G04*
G04 #@! TF.GenerationSoftware,Altium Limited,Altium Designer,24.7.2 (38)*
G04*
G04 Layer_Physical_Order=1*
G04 Layer_Color=255*
%FSLAX25Y25*%
%MOIN*%
G70*
G04*
G04 #@! TF.SameCoordinates,557B2C77-FFCE-42D9-A2FA-4134FEC932EB*
G04*
G04*
G04 #@! TF.FilePolarity,Positive*
G04*
G01*
G75*
G04:AMPARAMS|DCode=13|XSize=77.56mil|YSize=23.62mil|CornerRadius=2.95mil|HoleSize=0mil|Usage=FLASHONLY|Rotation=0.000|XOffset=0mil|YOffset=0mil|HoleType=Round|Shape=RoundedRectangle|*
%AMROUNDEDRECTD13*
21,1,0.07756,0.01772,0,0,0.0*
21,1,0.07165,0.02362,0,0,0.0*
1,1,0.00591,0.03583,-0.00886*
1,1,0.00591,-0.03583,-0.00886*
1,1,0.00591,-0.03583,0.00886*
1,1,0.00591,0.03583,0.00886*
%
%ADD13ROUNDEDRECTD13*%
%ADD14R,0.03543X0.05906*%
%ADD15R,0.05906X0.03543*%
%ADD16R,0.03543X0.03543*%
%ADD17R,0.07087X0.04024*%
%ADD18R,0.00984X0.01870*%
%ADD19R,0.08661X0.04724*%
%ADD20R,0.05906X0.06299*%
%ADD21R,0.06299X0.02756*%
%ADD22R,0.13504X0.05000*%
%ADD23R,0.04724X0.04724*%
%ADD24R,0.04550X0.05544*%
%ADD25R,0.05143X0.04545*%
%ADD26R,0.01870X0.00984*%
%ADD27R,0.05544X0.04550*%
%ADD28R,0.07480X0.04331*%
%ADD29R,0.04940X0.05733*%
%ADD30R,0.03937X0.04528*%
%ADD31R,0.05733X0.04940*%
G04:AMPARAMS|DCode=32|XSize=29.13mil|YSize=10.63mil|CornerRadius=0.37mil|HoleSize=0mil|Usage=FLASHONLY|Rotation=0.000|XOffset=0mil|YOffset=0mil|HoleType=Round|Shape=RoundedRectangle|*
%AMROUNDEDRECTD32*
21,1,0.02913,0.00989,0,0,0.0*
21,1,0.02839,0.01063,0,0,0.0*
1,1,0.00074,0.01420,-0.00494*
1,1,0.00074,-0.01420,-0.00494*
1,1,0.00074,-0.01420,0.00494*
1,1,0.00074,0.01420,0.00494*
%
%ADD32ROUNDEDRECTD32*%
G04:AMPARAMS|DCode=33|XSize=10.63mil|YSize=33.07mil|CornerRadius=1.33mil|HoleSize=0mil|Usage=FLASHONLY|Rotation=0.000|XOffset=0mil|YOffset=0mil|HoleType=Round|Shape=RoundedRectangle|*
%AMROUNDEDRECTD33*
21,1,0.01063,0.03041,0,0,0.0*
21,1,0.00797,0.03307,0,0,0.0*
1,1,0.00266,0.00399,-0.01521*
1,1,0.00266,-0.00399,-0.01521*
1,1,0.00266,-0.00399,0.01521*
1,1,0.00266,0.00399,0.01521*
%
%ADD33ROUNDEDRECTD33*%
G04:AMPARAMS|DCode=34|XSize=33.07mil|YSize=10.63mil|CornerRadius=1.33mil|HoleSize=0mil|Usage=FLASHONLY|Rotation=0.000|XOffset=0mil|YOffset=0mil|HoleType=Round|Shape=RoundedRectangle|*
%AMROUNDEDRECTD34*
21,1,0.03307,0.00797,0,0,0.0*
21,1,0.03041,0.01063,0,0,0.0*
1,1,0.00266,0.01521,-0.00399*
1,1,0.00266,-0.01521,-0.00399*
1,1,0.00266,-0.01521,0.00399*
1,1,0.00266,0.01521,0.00399*
%
%ADD34ROUNDEDRECTD34*%
%ADD36R,0.04724X0.04724*%
%ADD63R,0.03307X0.09449*%
%ADD64R,0.04331X0.04331*%
%ADD65C,0.01500*%
%ADD66C,0.01000*%
%ADD67C,0.02000*%
%ADD68C,0.04000*%
%ADD69C,0.01575*%
%ADD70C,0.03937*%
%ADD71C,0.05394*%
%ADD72R,0.05394X0.05394*%
%ADD73R,0.04795X0.04795*%
%ADD74C,0.04795*%
%ADD75C,0.03543*%
G36*
X92025Y146246D02*
X94811D01*
X103013Y138044D01*
X102879Y137721D01*
X101500D01*
Y134251D01*
X99500D01*
Y137721D01*
X96633D01*
Y135577D01*
X94367D01*
Y137721D01*
X91500D01*
Y134251D01*
X89500D01*
Y137721D01*
X87664D01*
Y138075D01*
X89163Y139574D01*
X94072D01*
Y145724D01*
X89050D01*
X88919Y146029D01*
X89123Y146275D01*
X89128Y146276D01*
X91872D01*
X92025Y146246D01*
D02*
G37*
G36*
X343000Y155810D02*
X343000Y155810D01*
X343349Y155808D01*
X345654Y155657D01*
X348262Y155139D01*
X350781Y154284D01*
X353166Y153108D01*
X355377Y151630D01*
X357377Y149876D01*
X359130Y147877D01*
X360608Y145666D01*
X361784Y143281D01*
X362638Y140762D01*
X363157Y138154D01*
X363308Y135849D01*
X363311Y135500D01*
X363311Y135500D01*
X363311Y135500D01*
Y27846D01*
X363311Y27845D01*
X363311Y27500D01*
X363306Y27152D01*
X363173Y24776D01*
X362716Y22087D01*
X361961Y19466D01*
X360917Y16945D01*
X359597Y14558D01*
X358019Y12333D01*
X356201Y10299D01*
X354167Y8481D01*
X351942Y6903D01*
X349555Y5583D01*
X347034Y4539D01*
X344413Y3784D01*
X341724Y3327D01*
X339083Y3179D01*
X339000Y3190D01*
X18500Y3190D01*
X18383Y3174D01*
X16101Y3354D01*
X13761Y3915D01*
X11538Y4836D01*
X9486Y6094D01*
X7656Y7656D01*
X6094Y9486D01*
X4836Y11538D01*
X3915Y13761D01*
X3354Y16101D01*
X3174Y18383D01*
X3190Y18500D01*
Y137667D01*
X3190Y138000D01*
X3190Y138000D01*
X3190Y138000D01*
X3190D01*
X3197Y138347D01*
X3326Y140327D01*
X3781Y142614D01*
X4076Y143482D01*
X4625Y144808D01*
X6002Y147192D01*
X7677Y149376D01*
X9624Y151322D01*
X11808Y152998D01*
X14192Y154375D01*
X15518Y154924D01*
X16386Y155219D01*
X18673Y155674D01*
X20653Y155803D01*
X21000Y155810D01*
X21000Y155810D01*
X21000Y155810D01*
X111802D01*
Y134182D01*
X111479Y134048D01*
X96583Y148944D01*
X96071Y149286D01*
X95466Y149407D01*
X94072D01*
Y152426D01*
X86928D01*
Y148551D01*
X78882Y140505D01*
X78540Y139993D01*
X78420Y139388D01*
Y137426D01*
X76428D01*
Y131276D01*
X83572D01*
Y137426D01*
X81580D01*
Y138733D01*
X86605Y143757D01*
X86928Y143623D01*
Y141809D01*
X84966Y139847D01*
X84623Y139334D01*
X84503Y138729D01*
Y131139D01*
X84623Y130535D01*
X84966Y130022D01*
X85874Y129114D01*
X86387Y128771D01*
X86834Y128682D01*
Y124479D01*
X91932D01*
X94831Y121580D01*
X94697Y121257D01*
X89124D01*
X83572Y126809D01*
Y130724D01*
X76428D01*
Y130368D01*
X72461D01*
Y130965D01*
X67937D01*
Y132512D01*
X64394D01*
Y130500D01*
X64562D01*
Y126609D01*
Y122279D01*
Y118173D01*
X64362D01*
Y116795D01*
X68512D01*
Y114795D01*
X64362D01*
Y113417D01*
X64562D01*
Y107806D01*
X63914Y107677D01*
X63319Y107279D01*
X43953Y87913D01*
X43556Y87318D01*
X43416Y86616D01*
Y59667D01*
X42219D01*
Y59866D01*
X39749D01*
Y56000D01*
X38749D01*
D01*
X39749D01*
Y52134D01*
X42219D01*
Y52333D01*
X43674D01*
Y49566D01*
X43654Y49224D01*
X42000D01*
Y43500D01*
Y37776D01*
X43654D01*
Y38011D01*
X44017D01*
Y39563D01*
X46017D01*
Y38011D01*
X46437D01*
X46841Y38092D01*
X47185Y38321D01*
X47414Y38664D01*
X47494Y39069D01*
Y39636D01*
X47844Y39781D01*
X49606Y38019D01*
X50036Y37732D01*
X50543Y37631D01*
X61338D01*
Y35794D01*
X67662D01*
Y42119D01*
X62907D01*
X62773Y42442D01*
X63212Y42881D01*
X64679D01*
X64862Y42857D01*
X69149D01*
X77503Y34503D01*
X78088Y34054D01*
X78769Y33772D01*
X79500Y33676D01*
X92149D01*
X92880Y33772D01*
X93256Y33928D01*
X93949D01*
X95817Y32060D01*
X96329Y31718D01*
X96934Y31598D01*
X117667D01*
X128003Y21262D01*
Y16503D01*
X132762D01*
X134129Y15136D01*
X134642Y14793D01*
X135247Y14673D01*
X249253D01*
X249858Y14793D01*
X250371Y15136D01*
X252238Y17003D01*
X256997D01*
Y23997D01*
X250003D01*
Y19238D01*
X248599Y17833D01*
X246236D01*
X246102Y18157D01*
X246298Y18353D01*
X246759Y19150D01*
X246997Y20040D01*
Y20960D01*
X246759Y21850D01*
X246298Y22647D01*
X245647Y23298D01*
X244850Y23758D01*
X243960Y23997D01*
X243040D01*
X242407Y23828D01*
X237776Y28459D01*
X237263Y28802D01*
X236658Y28922D01*
X233313D01*
X230830Y31405D01*
X230964Y31728D01*
X231351D01*
Y34500D01*
X228808D01*
X228726Y34464D01*
X228724Y34466D01*
Y39072D01*
X227229D01*
Y39851D01*
X227109Y40456D01*
X226766Y40969D01*
X219369Y48366D01*
X218856Y48709D01*
X218251Y48829D01*
X195259D01*
X195173Y48943D01*
X195349Y49294D01*
X196256D01*
Y51500D01*
Y53707D01*
X193673D01*
X193168Y53606D01*
X192739Y53320D01*
X192453Y52891D01*
X192353Y52386D01*
Y52017D01*
X192029Y51884D01*
X186283Y57630D01*
Y60978D01*
X186253Y61131D01*
Y64428D01*
Y69428D01*
Y73055D01*
X186576Y73189D01*
X186920Y72845D01*
Y62559D01*
X187040Y61954D01*
X187382Y61442D01*
X192557Y56268D01*
Y55614D01*
X192641Y55187D01*
X192884Y54825D01*
X193246Y54582D01*
X193673Y54497D01*
X200839D01*
X201266Y54582D01*
X201628Y54825D01*
X201870Y55187D01*
X201955Y55614D01*
Y57386D01*
X201870Y57813D01*
X201628Y58175D01*
X201266Y58418D01*
X200839Y58503D01*
X196870D01*
X196825Y58512D01*
X194783D01*
X194120Y59174D01*
X194254Y59497D01*
X200839D01*
X201266Y59582D01*
X201628Y59825D01*
X201870Y60187D01*
X201955Y60614D01*
Y62386D01*
X201870Y62813D01*
X201628Y63175D01*
X201266Y63418D01*
X200839Y63503D01*
X196870D01*
X196825Y63512D01*
X194783D01*
X194120Y64174D01*
X194254Y64497D01*
X200839D01*
X201266Y64582D01*
X201628Y64824D01*
X201870Y65187D01*
X201955Y65614D01*
Y67386D01*
X201870Y67813D01*
X201628Y68176D01*
X201266Y68418D01*
X200839Y68503D01*
X193673D01*
X193246Y68418D01*
X192884Y68176D01*
X192730Y67946D01*
X192380Y68052D01*
Y69948D01*
X192730Y70054D01*
X192884Y69824D01*
X193246Y69582D01*
X193673Y69497D01*
X200839D01*
X201266Y69582D01*
X201628Y69824D01*
X201870Y70187D01*
X201955Y70614D01*
Y72386D01*
X201870Y72813D01*
X201628Y73176D01*
X201266Y73418D01*
X200839Y73503D01*
X193673D01*
X193246Y73418D01*
X192884Y73176D01*
X192730Y72946D01*
X192380Y73052D01*
Y74948D01*
X192730Y75054D01*
X192884Y74825D01*
X193246Y74582D01*
X193673Y74497D01*
X200839D01*
X201266Y74582D01*
X201628Y74825D01*
X201870Y75187D01*
X201955Y75614D01*
Y77386D01*
X201870Y77813D01*
X201628Y78175D01*
X201266Y78418D01*
X200839Y78503D01*
X193673D01*
X193246Y78418D01*
X192884Y78175D01*
X192641Y77813D01*
X192616Y77684D01*
X192271Y77679D01*
X192258Y77681D01*
X191918Y78192D01*
X188013Y82096D01*
X187501Y82438D01*
X186896Y82559D01*
X186253D01*
Y84572D01*
X186253D01*
Y85420D01*
X188404D01*
X192557Y81268D01*
Y80614D01*
X192641Y80187D01*
X192884Y79825D01*
X193246Y79582D01*
X193673Y79497D01*
X200839D01*
X201266Y79582D01*
X201628Y79825D01*
X201870Y80187D01*
X201955Y80614D01*
Y82386D01*
X201870Y82813D01*
X201628Y83175D01*
X201266Y83418D01*
X200839Y83503D01*
X194791D01*
X194120Y84174D01*
X194254Y84497D01*
X200839D01*
X201266Y84582D01*
X201628Y84825D01*
X201870Y85187D01*
X201955Y85614D01*
Y87386D01*
X201870Y87813D01*
X201628Y88175D01*
X201266Y88418D01*
X200839Y88503D01*
X194791D01*
X191165Y92129D01*
X191337Y92452D01*
X191500Y92420D01*
X228320D01*
X228384Y92325D01*
X228746Y92082D01*
X229173Y91997D01*
X236339D01*
X236766Y92082D01*
X237128Y92325D01*
X237370Y92687D01*
X237455Y93114D01*
Y94886D01*
X237370Y95313D01*
X237128Y95675D01*
X236766Y95918D01*
X236339Y96003D01*
X229173D01*
X228746Y95918D01*
X228384Y95675D01*
X228320Y95580D01*
X192155D01*
X189618Y98118D01*
X189105Y98460D01*
X188500Y98580D01*
X186253D01*
Y99428D01*
X186253D01*
Y100420D01*
X190653D01*
X193191Y97882D01*
X193703Y97540D01*
X194308Y97420D01*
X228320D01*
X228384Y97325D01*
X228746Y97082D01*
X229173Y96997D01*
X236339D01*
X236766Y97082D01*
X237128Y97325D01*
X237370Y97687D01*
X237455Y98114D01*
Y99886D01*
X237370Y100313D01*
X237128Y100675D01*
X236766Y100918D01*
X236339Y101003D01*
X229173D01*
X228746Y100918D01*
X228384Y100675D01*
X228320Y100580D01*
X194963D01*
X194666Y100877D01*
X194800Y101200D01*
X207804D01*
Y107800D01*
X192700D01*
Y106080D01*
X192166D01*
X190129Y108117D01*
X189617Y108460D01*
X189012Y108580D01*
X186253D01*
Y109572D01*
X186253D01*
Y110420D01*
X189012D01*
X189617Y110540D01*
X190129Y110882D01*
X192166Y112920D01*
X204196D01*
Y111200D01*
X219300D01*
Y116317D01*
X219571Y116539D01*
X219573Y116539D01*
X225387D01*
X225991Y116659D01*
X226504Y117002D01*
X226922Y117420D01*
X228320D01*
X228384Y117324D01*
X228746Y117082D01*
X229173Y116997D01*
X236339D01*
X236766Y117082D01*
X237128Y117324D01*
X237370Y117687D01*
X237455Y118114D01*
Y119886D01*
X237370Y120313D01*
X237128Y120676D01*
X236766Y120918D01*
X236339Y121003D01*
X229173D01*
X228746Y120918D01*
X228384Y120676D01*
X228320Y120580D01*
X226267D01*
X225663Y120460D01*
X225150Y120117D01*
X224732Y119700D01*
X223685D01*
X223657Y119745D01*
X223577Y120050D01*
X224015Y120487D01*
X224021Y120500D01*
X220979D01*
X220985Y120487D01*
X221423Y120050D01*
X221343Y119745D01*
X221315Y119700D01*
X220211D01*
X219747Y120010D01*
X219142Y120130D01*
X206340D01*
X206305Y120480D01*
X206605Y120540D01*
X207118Y120882D01*
X217155Y130920D01*
X231175D01*
Y126003D01*
X229173D01*
X228746Y125918D01*
X228384Y125675D01*
X228141Y125313D01*
X228057Y124886D01*
Y123114D01*
X228141Y122687D01*
X228384Y122325D01*
X228746Y122082D01*
X229173Y121997D01*
X236339D01*
X236766Y122082D01*
X237128Y122325D01*
X237370Y122687D01*
X237455Y123114D01*
Y124886D01*
X237370Y125313D01*
X237128Y125675D01*
X236766Y125918D01*
X236339Y126003D01*
X234336D01*
Y131621D01*
X234216Y132226D01*
X233873Y132739D01*
X232995Y133617D01*
X232482Y133960D01*
X231877Y134080D01*
X216500D01*
X215895Y133960D01*
X215383Y133617D01*
X205345Y123580D01*
X186253D01*
Y124228D01*
X186453D01*
Y126000D01*
X178547D01*
Y124228D01*
X178747D01*
Y119428D01*
X178747D01*
Y114572D01*
X178747D01*
Y109428D01*
X178747D01*
Y104428D01*
X178747D01*
Y99572D01*
X178747D01*
Y94428D01*
X178747D01*
Y89572D01*
X178747D01*
Y84428D01*
X178747D01*
Y79572D01*
X178747D01*
Y74572D01*
X178747D01*
Y69428D01*
Y64428D01*
Y59428D01*
X183122D01*
Y56975D01*
X183243Y56370D01*
X183585Y55858D01*
X193312Y46131D01*
X193824Y45788D01*
X194429Y45668D01*
X217597D01*
X223843Y39422D01*
X223698Y39072D01*
X222574D01*
Y31928D01*
X225910D01*
X226056Y31709D01*
X231541Y26224D01*
X232053Y25882D01*
X232658Y25761D01*
X236004D01*
X240173Y21592D01*
X240003Y20960D01*
Y20040D01*
X240242Y19150D01*
X240702Y18353D01*
X240898Y18157D01*
X240764Y17833D01*
X236236D01*
X236102Y18157D01*
X236298Y18353D01*
X236758Y19150D01*
X236997Y20040D01*
Y20960D01*
X236758Y21850D01*
X236298Y22647D01*
X235647Y23298D01*
X234850Y23758D01*
X233960Y23997D01*
X233040D01*
X232407Y23828D01*
X226076Y30159D01*
X225563Y30502D01*
X224958Y30622D01*
X217725D01*
X216943Y31405D01*
X217076Y31728D01*
X221126D01*
Y34500D01*
X217851D01*
Y35500D01*
X216851D01*
Y39272D01*
X214576D01*
Y34686D01*
X214226Y34499D01*
X214224Y34500D01*
Y39072D01*
X210663D01*
X205118Y44618D01*
X204605Y44960D01*
X204000Y45080D01*
X185655D01*
X177732Y53003D01*
X177866Y53326D01*
X178123D01*
Y60831D01*
X172979D01*
Y60831D01*
X167980D01*
Y60831D01*
X163123D01*
Y60831D01*
X158123D01*
Y60831D01*
X152980D01*
Y60831D01*
X147979D01*
Y60831D01*
X143123D01*
Y60831D01*
X137979D01*
Y60831D01*
X133123D01*
Y60831D01*
X128153D01*
Y61418D01*
X131502Y64767D01*
X131635Y64732D01*
X132364D01*
X133069Y64920D01*
X133700Y65285D01*
X134215Y65800D01*
X134580Y66431D01*
X134768Y67136D01*
Y67865D01*
X134580Y68569D01*
X134215Y69200D01*
X133700Y69715D01*
X133069Y70080D01*
X132364Y70268D01*
X131635D01*
X130931Y70080D01*
X130300Y69715D01*
X129785Y69200D01*
X129420Y68569D01*
X129232Y67865D01*
Y67136D01*
X129267Y67002D01*
X125455Y63190D01*
X125113Y62678D01*
X124993Y62073D01*
Y60831D01*
X122979D01*
Y60831D01*
X119561D01*
X119416Y61181D01*
X127002Y68767D01*
X127136Y68731D01*
X127865D01*
X128569Y68920D01*
X129200Y69285D01*
X129715Y69800D01*
X130080Y70431D01*
X130269Y71135D01*
Y71864D01*
X130080Y72569D01*
X129715Y73200D01*
X129200Y73715D01*
X128569Y74080D01*
X127865Y74269D01*
X127136D01*
X126431Y74080D01*
X125884Y73764D01*
X125713Y73858D01*
X125612Y73954D01*
X125593Y73979D01*
X125768Y74635D01*
Y75365D01*
X125580Y76069D01*
X125215Y76700D01*
X124700Y77215D01*
X124069Y77580D01*
X123364Y77768D01*
X122635D01*
X121931Y77580D01*
X121300Y77215D01*
X120785Y76700D01*
X120420Y76069D01*
X120231Y75365D01*
Y74635D01*
X120420Y73931D01*
X120507Y73781D01*
X120420Y73340D01*
Y71033D01*
X117967Y68580D01*
X117355D01*
Y69572D01*
X117355D01*
Y74428D01*
Y79572D01*
X117355D01*
Y84428D01*
X117355D01*
Y89572D01*
X117355D01*
Y94428D01*
Y99428D01*
Y104572D01*
X117355D01*
Y109428D01*
X117355D01*
Y114428D01*
Y120420D01*
X117845D01*
X125420Y112845D01*
Y105284D01*
X125300Y105215D01*
X124785Y104700D01*
X124420Y104069D01*
X124232Y103365D01*
Y102636D01*
X124420Y101931D01*
X124785Y101300D01*
X125300Y100785D01*
X125931Y100420D01*
X126636Y100232D01*
X127365D01*
X128069Y100420D01*
X128700Y100785D01*
X129215Y101300D01*
X129580Y101931D01*
X129769Y102636D01*
Y103365D01*
X129580Y104069D01*
X129215Y104700D01*
X128700Y105215D01*
X128580Y105284D01*
Y113500D01*
Y127500D01*
X128460Y128105D01*
X128118Y128618D01*
X125008Y131727D01*
X125142Y132051D01*
X183484Y132051D01*
X183796Y132113D01*
X184061Y132289D01*
X184238Y132554D01*
X184300Y132866D01*
X184300Y155810D01*
X343000D01*
X343000Y155810D01*
D02*
G37*
G36*
X125420Y126845D02*
Y117773D01*
X125096Y117639D01*
X119617Y123117D01*
X119105Y123460D01*
X118500Y123580D01*
X117355D01*
Y124228D01*
X117555D01*
Y126000D01*
X113602D01*
Y128000D01*
X117555D01*
Y129736D01*
X122529D01*
X125420Y126845D01*
D02*
G37*
G36*
X64562Y102874D02*
Y100625D01*
Y96294D01*
Y91964D01*
X72461D01*
Y96294D01*
Y101223D01*
X72894D01*
X74928Y99189D01*
Y94776D01*
X82072D01*
Y96271D01*
X109850D01*
Y93541D01*
X108540D01*
Y94887D01*
X99460D01*
Y93502D01*
X98021D01*
Y95666D01*
X91719D01*
Y95867D01*
X89249D01*
Y92000D01*
X88249D01*
D01*
X89249D01*
Y88134D01*
X91719D01*
Y88333D01*
X98021D01*
Y90341D01*
X99460D01*
Y88956D01*
X108540D01*
Y90380D01*
X109850D01*
Y89428D01*
X109850D01*
Y87559D01*
X109474D01*
X108870Y87438D01*
X108357Y87096D01*
X106305Y85044D01*
X99460D01*
Y83659D01*
X98021D01*
Y85667D01*
X91719D01*
Y85866D01*
X89249D01*
Y82000D01*
X88249D01*
D01*
X89249D01*
Y78133D01*
X91719D01*
Y78333D01*
X98021D01*
Y80498D01*
X99460D01*
Y79113D01*
X108540D01*
Y82809D01*
X109526Y83795D01*
X109850Y83661D01*
Y79428D01*
X109850D01*
Y73326D01*
X108149D01*
X107642Y73225D01*
X107212Y72937D01*
X105100Y70825D01*
X102926D01*
Y73072D01*
X96776D01*
Y65928D01*
X99931D01*
X100215Y65578D01*
X100169Y65346D01*
Y61312D01*
X92255D01*
Y59577D01*
X91932Y59443D01*
X91437Y59937D01*
X91007Y60225D01*
X90500Y60325D01*
X76878D01*
X76744Y60649D01*
X84015Y67920D01*
X90074D01*
Y65928D01*
X96224D01*
Y73072D01*
X90074D01*
Y71080D01*
X83875D01*
X83702Y71196D01*
X83000Y71335D01*
X82298Y71196D01*
X81702Y70798D01*
X71202Y60298D01*
X71202Y60298D01*
X66740Y55835D01*
X66000D01*
X65769Y55789D01*
X65597Y56112D01*
X78405Y68920D01*
X78500D01*
X79105Y69040D01*
X79618Y69383D01*
X79960Y69895D01*
X80080Y70500D01*
Y88074D01*
X82072D01*
Y94224D01*
X74928D01*
Y88074D01*
X76920D01*
Y71809D01*
X76632Y71618D01*
X59201Y54186D01*
X57851Y55537D01*
X60791Y58478D01*
X61105Y58540D01*
X61617Y58882D01*
X65502Y62767D01*
X65636Y62731D01*
X66365D01*
X67069Y62920D01*
X67700Y63285D01*
X68215Y63800D01*
X68580Y64431D01*
X68769Y65136D01*
Y65864D01*
X68580Y66569D01*
X68215Y67200D01*
X67700Y67715D01*
X67069Y68080D01*
X66365Y68269D01*
X65636D01*
X64931Y68080D01*
X64300Y67715D01*
X63785Y67200D01*
X63420Y66569D01*
X63231Y65864D01*
Y65136D01*
X63267Y65002D01*
X59787Y61522D01*
X59474Y61460D01*
X58961Y61118D01*
X55847Y58003D01*
X55270Y58446D01*
X54589Y58728D01*
X53858Y58824D01*
X48521D01*
Y59667D01*
X47086D01*
Y85855D01*
X64239Y103008D01*
X64562Y102874D01*
D02*
G37*
G36*
X90835Y56790D02*
X90972Y56492D01*
X90972D01*
X90972Y56492D01*
Y54357D01*
X88867D01*
Y56721D01*
X86000D01*
Y53251D01*
X85000D01*
Y52251D01*
X81134D01*
Y49781D01*
X81334D01*
Y43479D01*
X84574D01*
X88406Y39647D01*
X88272Y39324D01*
X80670D01*
X72316Y47678D01*
X71731Y48127D01*
X71050Y48409D01*
X70319Y48505D01*
X67662D01*
Y49205D01*
X64321D01*
X64299Y49209D01*
X64155Y49560D01*
X66760Y52165D01*
X67500D01*
X68202Y52304D01*
X68798Y52702D01*
X73770Y57674D01*
X89951D01*
X90835Y56790D01*
D02*
G37*
G36*
X108186Y47939D02*
X108616Y47652D01*
X109124Y47551D01*
X110928D01*
Y44276D01*
X118072D01*
Y47675D01*
X124389D01*
X124896Y47775D01*
X125326Y48063D01*
X130467Y53203D01*
X130549Y53326D01*
X132980D01*
Y53326D01*
X138123D01*
Y53326D01*
X139226D01*
Y50912D01*
X139327Y50405D01*
X139614Y49975D01*
X139694Y49895D01*
X139560Y49572D01*
X134776D01*
Y42428D01*
X138051D01*
Y39124D01*
X138152Y38616D01*
X138218Y38517D01*
X138031Y38166D01*
X135998D01*
X135991Y38200D01*
X135649Y38713D01*
X132729Y41633D01*
Y42428D01*
X134224D01*
Y49572D01*
X128074D01*
Y42428D01*
X129568D01*
Y40978D01*
X129689Y40373D01*
X130031Y39860D01*
X131202Y38690D01*
X131068Y38366D01*
X130749D01*
Y34500D01*
Y30634D01*
X133219D01*
Y30834D01*
X137286D01*
X138208Y29912D01*
X138647Y29618D01*
X140767Y27498D01*
X140732Y27365D01*
Y26636D01*
X140920Y25931D01*
X141285Y25300D01*
X141800Y24785D01*
X142431Y24420D01*
X143135Y24231D01*
X143865D01*
X144569Y24420D01*
X145200Y24785D01*
X145715Y25300D01*
X145931Y25675D01*
X148224D01*
X148732Y25775D01*
X149162Y26063D01*
X152550Y29451D01*
X154009Y30910D01*
X154215Y30951D01*
X154524Y31157D01*
X154730Y31466D01*
X154803Y31830D01*
Y34697D01*
X157670D01*
X157792Y34722D01*
X158404D01*
X159063Y34063D01*
X159493Y33775D01*
X160000Y33674D01*
X161129D01*
Y30165D01*
X160339D01*
X159832Y30064D01*
X159402Y29776D01*
X153372Y23746D01*
X153350Y23758D01*
X152460Y23997D01*
X151540D01*
X150650Y23758D01*
X149853Y23298D01*
X149202Y22647D01*
X148741Y21850D01*
X148503Y20960D01*
Y20040D01*
X148741Y19150D01*
X149202Y18353D01*
X149398Y18157D01*
X149264Y17833D01*
X135901D01*
X134997Y18738D01*
Y23497D01*
X130238D01*
X119440Y34295D01*
X118927Y34638D01*
X118322Y34758D01*
X110805D01*
X110671Y35082D01*
X113163Y37574D01*
X118072D01*
Y43724D01*
X110928D01*
Y39809D01*
X105878Y34758D01*
X102926D01*
Y41072D01*
X101177D01*
Y44390D01*
X102182Y45396D01*
X102470Y45826D01*
X102570Y46333D01*
Y52201D01*
X102470Y52708D01*
X102182Y53138D01*
X101996Y53325D01*
X102121Y53627D01*
X102464Y53662D01*
X108186Y47939D01*
D02*
G37*
G36*
X157980Y53326D02*
X160242D01*
X160455Y53006D01*
X175905Y37557D01*
X175771Y37233D01*
X173003D01*
X171284Y38953D01*
X170854Y39240D01*
X170346Y39341D01*
X166173D01*
X166039Y39665D01*
X167937Y41563D01*
X168225Y41993D01*
X168325Y42500D01*
X168225Y43007D01*
X167937Y43437D01*
X167507Y43725D01*
X167000Y43826D01*
X166493Y43725D01*
X166063Y43437D01*
X163935Y41310D01*
X158822D01*
X158621Y41554D01*
Y42351D01*
X158549Y42715D01*
X158343Y43024D01*
X158034Y43230D01*
X157670Y43303D01*
X154803D01*
Y46170D01*
X154730Y46534D01*
X154524Y46843D01*
X154215Y47049D01*
X153851Y47121D01*
X153054D01*
X152810Y47322D01*
Y53326D01*
X153123D01*
Y53326D01*
X157980D01*
Y53326D01*
D02*
G37*
G36*
X174165Y52755D02*
X174285Y52150D01*
X174628Y51637D01*
X183882Y42382D01*
X184395Y42040D01*
X185000Y41920D01*
X203345D01*
X205670Y39595D01*
X205536Y39272D01*
X204351D01*
Y36500D01*
X206626D01*
Y38181D01*
X206950Y38315D01*
X208043Y37222D01*
Y37025D01*
X208074Y36872D01*
Y31928D01*
X211989D01*
X212677Y31240D01*
X212756Y31121D01*
X215232Y28646D01*
X215098Y28322D01*
X205525D01*
X202443Y31405D01*
X202576Y31728D01*
X206626D01*
Y34500D01*
X203351D01*
Y35500D01*
X202351D01*
Y39272D01*
X201951D01*
X200713Y40509D01*
X200284Y40797D01*
X199776Y40898D01*
X190072D01*
X189565Y40797D01*
X189135Y40509D01*
X189063Y40437D01*
X188775Y40007D01*
X188674Y39500D01*
X188775Y38993D01*
X189063Y38563D01*
X189493Y38275D01*
X190000Y38175D01*
X190362Y38247D01*
X193574D01*
Y37080D01*
X187655D01*
X173153Y51582D01*
Y53326D01*
X174165D01*
Y52755D01*
D02*
G37*
G36*
X186420Y27042D02*
Y23625D01*
X185853Y23298D01*
X185202Y22647D01*
X184741Y21850D01*
X184503Y20960D01*
Y20040D01*
X184741Y19150D01*
X185202Y18353D01*
X185398Y18157D01*
X185264Y17833D01*
X181019D01*
X180885Y18157D01*
X180958Y18230D01*
X181445Y19073D01*
X181559Y19500D01*
X174441D01*
X174555Y19073D01*
X175042Y18230D01*
X175115Y18157D01*
X174981Y17833D01*
X165497D01*
Y22122D01*
X166931Y23556D01*
X170244D01*
X170751Y23657D01*
X171181Y23945D01*
X173003Y25767D01*
X177871D01*
Y31089D01*
Y35133D01*
X178195Y35267D01*
X186420Y27042D01*
D02*
G37*
%LPC*%
G36*
X67937Y136524D02*
X64394D01*
Y134512D01*
X67937D01*
Y136524D01*
D02*
G37*
G36*
X62394D02*
X58850D01*
Y134512D01*
X62394D01*
Y136524D01*
D02*
G37*
G36*
X32110Y136874D02*
X27779D01*
Y134512D01*
X32110D01*
Y136874D01*
D02*
G37*
G36*
X25780D02*
X21449D01*
Y134512D01*
X25780D01*
Y136874D01*
D02*
G37*
G36*
X62394Y132512D02*
X58850D01*
Y130500D01*
X62394D01*
Y132512D01*
D02*
G37*
G36*
X32110Y132512D02*
X27779D01*
Y130150D01*
X32110D01*
Y132512D01*
D02*
G37*
G36*
X25780D02*
X21449D01*
Y130150D01*
X25780D01*
Y132512D01*
D02*
G37*
G36*
X223500Y128901D02*
Y128380D01*
X224021D01*
X224015Y128393D01*
X223513Y128896D01*
X223500Y128901D01*
D02*
G37*
G36*
X221500D02*
X221487Y128896D01*
X220985Y128393D01*
X220979Y128380D01*
X221500D01*
Y128901D01*
D02*
G37*
G36*
X186453Y129772D02*
X183500D01*
Y128000D01*
X186453D01*
Y129772D01*
D02*
G37*
G36*
X181500D02*
X178547D01*
Y128000D01*
X181500D01*
Y129772D01*
D02*
G37*
G36*
X269619Y144162D02*
X263295D01*
Y140073D01*
X256883Y133661D01*
X256540Y133148D01*
X256420Y132543D01*
Y126196D01*
X256070Y125954D01*
X255827Y126003D01*
X248661D01*
X248234Y125918D01*
X247872Y125675D01*
X247630Y125313D01*
X247545Y124886D01*
Y124232D01*
X241138Y117825D01*
X240795Y117313D01*
X240675Y116708D01*
Y96951D01*
X240555Y96882D01*
X240040Y96366D01*
X239675Y95735D01*
X239487Y95031D01*
Y94302D01*
X239675Y93598D01*
X240040Y92967D01*
X240555Y92451D01*
X240675Y92382D01*
Y91910D01*
X237983Y89218D01*
X237659Y89351D01*
Y89886D01*
X237559Y90391D01*
X237272Y90820D01*
X236844Y91106D01*
X236339Y91207D01*
X233756D01*
Y89000D01*
X232756D01*
Y88000D01*
X227759D01*
X227635Y87849D01*
X221334D01*
X221116Y88175D01*
X220754Y88418D01*
X220327Y88503D01*
X213161D01*
X212734Y88418D01*
X212372Y88175D01*
X212130Y87813D01*
X212045Y87386D01*
Y85614D01*
X212130Y85187D01*
X212372Y84825D01*
X212734Y84582D01*
X213161Y84497D01*
X220327D01*
X220754Y84582D01*
X220913Y84689D01*
X237269D01*
X237874Y84809D01*
X238386Y85151D01*
X243373Y90137D01*
X243715Y90650D01*
X243835Y91255D01*
Y92382D01*
X243955Y92451D01*
X244470Y92967D01*
X244835Y93598D01*
X245023Y94302D01*
Y95031D01*
X244835Y95735D01*
X244470Y96366D01*
X243955Y96882D01*
X243835Y96951D01*
Y116053D01*
X247221Y119439D01*
X247545Y119305D01*
Y118114D01*
X247630Y117687D01*
X247872Y117324D01*
X248234Y117082D01*
X248661Y116997D01*
X255246D01*
X255380Y116674D01*
X254709Y116003D01*
X248661D01*
X248234Y115918D01*
X247872Y115675D01*
X247630Y115313D01*
X247545Y114886D01*
Y113114D01*
X247630Y112687D01*
X247872Y112325D01*
X248234Y112082D01*
X248661Y111997D01*
X255305D01*
X255439Y111674D01*
X254777Y111012D01*
X252675D01*
X252630Y111003D01*
X248661D01*
X248234Y110918D01*
X247872Y110676D01*
X247630Y110313D01*
X247545Y109886D01*
Y108114D01*
X247630Y107687D01*
X247872Y107325D01*
X248234Y107082D01*
X248661Y106997D01*
X255827D01*
X256254Y107082D01*
X256616Y107325D01*
X256858Y107687D01*
X256943Y108114D01*
Y108709D01*
X261118Y112882D01*
X261460Y113395D01*
X261580Y114000D01*
Y114845D01*
X262971Y116236D01*
X263295Y116102D01*
Y113073D01*
X256233Y106011D01*
X252675D01*
X252630Y106003D01*
X248661D01*
X248234Y105918D01*
X247872Y105675D01*
X247630Y105313D01*
X247545Y104886D01*
Y103114D01*
X247630Y102687D01*
X247872Y102324D01*
X248234Y102082D01*
X248661Y101997D01*
X255246D01*
X255380Y101674D01*
X254709Y101003D01*
X248661D01*
X248234Y100918D01*
X247872Y100675D01*
X247630Y100313D01*
X247545Y99886D01*
Y98114D01*
X247630Y97687D01*
X247872Y97325D01*
X248234Y97082D01*
X248661Y96997D01*
X255246D01*
X255380Y96674D01*
X254709Y96003D01*
X248661D01*
X248234Y95918D01*
X247872Y95675D01*
X247630Y95313D01*
X247545Y94886D01*
Y93114D01*
X247630Y92687D01*
X247872Y92325D01*
X248234Y92082D01*
X248661Y91997D01*
X255827D01*
X256254Y92082D01*
X256616Y92325D01*
X256858Y92687D01*
X256943Y93114D01*
Y93768D01*
X257596Y94420D01*
X263251D01*
Y92838D01*
X269576D01*
Y99162D01*
X263251D01*
Y97580D01*
X257176D01*
X256905Y97914D01*
X256904Y97917D01*
X256943Y98114D01*
Y98768D01*
X261596Y103420D01*
X263295D01*
Y101838D01*
X269619D01*
Y108162D01*
X263640D01*
X263546Y108162D01*
X263256Y108474D01*
X263259Y108567D01*
X265529Y110838D01*
X269619D01*
Y117162D01*
X264354D01*
X264220Y117486D01*
X265118Y118383D01*
X265460Y118895D01*
X265580Y119500D01*
Y119838D01*
X269619D01*
Y126162D01*
X263640D01*
X263546Y126162D01*
X263256Y126474D01*
X263259Y126567D01*
X265529Y128838D01*
X269619D01*
Y135162D01*
X263640D01*
X263546Y135162D01*
X263256Y135474D01*
X263259Y135567D01*
X265529Y137838D01*
X269619D01*
Y144162D01*
D02*
G37*
G36*
X224021Y126380D02*
X220979D01*
X220985Y126368D01*
X221442Y125910D01*
X220985Y125453D01*
X220979Y125440D01*
X224021D01*
X224015Y125453D01*
X223558Y125910D01*
X224015Y126368D01*
X224021Y126380D01*
D02*
G37*
G36*
X354421Y131698D02*
X353579D01*
X352766Y131480D01*
X352037Y131059D01*
X351441Y130463D01*
X351020Y129734D01*
X350802Y128921D01*
Y128079D01*
X351020Y127266D01*
X351441Y126537D01*
X352037Y125941D01*
X352766Y125520D01*
X353579Y125302D01*
X354421D01*
X355234Y125520D01*
X355963Y125941D01*
X356559Y126537D01*
X356980Y127266D01*
X357198Y128079D01*
Y128921D01*
X356980Y129734D01*
X356559Y130463D01*
X355963Y131059D01*
X355234Y131480D01*
X354421Y131698D01*
D02*
G37*
G36*
X224021Y123440D02*
X220979D01*
X220985Y123428D01*
X221442Y122970D01*
X220985Y122512D01*
X220979Y122500D01*
X224021D01*
X224015Y122512D01*
X223558Y122970D01*
X224015Y123428D01*
X224021Y123440D01*
D02*
G37*
G36*
X276706Y144162D02*
X270381D01*
Y137838D01*
X276706D01*
Y139420D01*
X292345D01*
X309767Y121998D01*
X309732Y121864D01*
Y121135D01*
X309751Y121061D01*
X309438Y120880D01*
X296753Y133565D01*
X296240Y133908D01*
X295635Y134028D01*
X285619D01*
X285014Y133908D01*
X284524Y133580D01*
X276706D01*
Y135162D01*
X270381D01*
Y128838D01*
X276706D01*
Y130420D01*
X285172D01*
X285776Y130540D01*
X286266Y130867D01*
X291388D01*
X291522Y130544D01*
X291441Y130463D01*
X291020Y129734D01*
X290802Y128921D01*
Y128079D01*
X291020Y127266D01*
X291441Y126537D01*
X292037Y125941D01*
X292766Y125520D01*
X293579Y125302D01*
X294421D01*
X294848Y125417D01*
X296367Y123898D01*
Y121112D01*
X296044Y120978D01*
X295963Y121059D01*
X295234Y121480D01*
X294421Y121698D01*
X293579D01*
X293152Y121583D01*
X290617Y124118D01*
X290105Y124460D01*
X289500Y124580D01*
X276706D01*
Y126162D01*
X270381D01*
Y119838D01*
X276706D01*
Y121420D01*
X288845D01*
X290917Y119348D01*
X290802Y118921D01*
Y118079D01*
X291020Y117266D01*
X291441Y116537D01*
X292037Y115941D01*
X292076Y115919D01*
X291986Y115580D01*
X276706D01*
Y117162D01*
X270381D01*
Y110838D01*
X276706D01*
Y112420D01*
X295083D01*
X295688Y112540D01*
X296200Y112882D01*
X299065Y115747D01*
X299408Y116260D01*
X299528Y116865D01*
Y124552D01*
X299408Y125157D01*
X299065Y125670D01*
X297083Y127652D01*
X297198Y128079D01*
Y128193D01*
X297521Y128327D01*
X315890Y109957D01*
X315732Y109364D01*
Y108635D01*
X315920Y107931D01*
X316285Y107300D01*
X316800Y106785D01*
X317323Y106483D01*
X317229Y106133D01*
X296612D01*
X296478Y106456D01*
X296559Y106537D01*
X296980Y107266D01*
X297198Y108079D01*
Y108921D01*
X296980Y109734D01*
X296559Y110463D01*
X295963Y111059D01*
X295234Y111480D01*
X294421Y111698D01*
X293579D01*
X292766Y111480D01*
X292037Y111059D01*
X291441Y110463D01*
X291020Y109734D01*
X290802Y108921D01*
Y108079D01*
X291020Y107266D01*
X291441Y106537D01*
X291522Y106456D01*
X291388Y106133D01*
X286266D01*
X285776Y106460D01*
X285172Y106580D01*
X276706D01*
Y108162D01*
X270381D01*
Y101838D01*
X276706D01*
Y103420D01*
X284524D01*
X285014Y103092D01*
X285619Y102972D01*
X340052D01*
X340657Y103092D01*
X341170Y103435D01*
X353152Y115417D01*
X353579Y115302D01*
X354421D01*
X355234Y115520D01*
X355963Y115941D01*
X356559Y116537D01*
X356980Y117266D01*
X357198Y118079D01*
Y118921D01*
X356980Y119734D01*
X356559Y120463D01*
X355963Y121059D01*
X355234Y121480D01*
X354421Y121698D01*
X353579D01*
X352766Y121480D01*
X352037Y121059D01*
X351441Y120463D01*
X351020Y119734D01*
X350802Y118921D01*
Y118079D01*
X350917Y117652D01*
X339398Y106133D01*
X319771D01*
X319677Y106483D01*
X320200Y106785D01*
X320715Y107300D01*
X321080Y107931D01*
X321269Y108635D01*
Y109364D01*
X321080Y110069D01*
X320715Y110700D01*
X320200Y111215D01*
X319569Y111580D01*
X318864Y111768D01*
X318549D01*
X311880Y118438D01*
X312061Y118751D01*
X312136Y118731D01*
X312864D01*
X313569Y118920D01*
X314200Y119285D01*
X314715Y119800D01*
X315080Y120431D01*
X315268Y121135D01*
Y121864D01*
X315080Y122569D01*
X314715Y123200D01*
X314200Y123715D01*
X313569Y124080D01*
X312864Y124268D01*
X312136D01*
X312002Y124233D01*
X294117Y142118D01*
X293605Y142460D01*
X293000Y142580D01*
X276706D01*
Y144162D01*
D02*
G37*
G36*
X25569Y125257D02*
X24840D01*
X24136Y125068D01*
X23505Y124704D01*
X22989Y124188D01*
X22625Y123557D01*
X22436Y122853D01*
Y122124D01*
X22625Y121420D01*
X22989Y120788D01*
X23505Y120273D01*
X24136Y119908D01*
X24840Y119720D01*
X25569D01*
X26273Y119908D01*
X26905Y120273D01*
X27420Y120788D01*
X27785Y121420D01*
X27973Y122124D01*
Y122853D01*
X27785Y123557D01*
X27420Y124188D01*
X26905Y124704D01*
X26273Y125068D01*
X25569Y125257D01*
D02*
G37*
G36*
X236339Y116003D02*
X229173D01*
X228746Y115918D01*
X228384Y115675D01*
X228141Y115313D01*
X228057Y114886D01*
Y113114D01*
X228141Y112687D01*
X228384Y112325D01*
X228746Y112082D01*
X229173Y111997D01*
X236339D01*
X236766Y112082D01*
X237128Y112325D01*
X237370Y112687D01*
X237455Y113114D01*
Y114886D01*
X237370Y115313D01*
X237128Y115675D01*
X236766Y115918D01*
X236339Y116003D01*
D02*
G37*
G36*
Y111003D02*
X229173D01*
X228746Y110918D01*
X228384Y110676D01*
X228141Y110313D01*
X228057Y109886D01*
Y108114D01*
X228141Y107687D01*
X228384Y107325D01*
X228746Y107082D01*
X229173Y106997D01*
X236339D01*
X236766Y107082D01*
X237128Y107325D01*
X237370Y107687D01*
X237455Y108114D01*
Y109886D01*
X237370Y110313D01*
X237128Y110676D01*
X236766Y110918D01*
X236339Y111003D01*
D02*
G37*
G36*
X354421Y111698D02*
X353579D01*
X352766Y111480D01*
X352037Y111059D01*
X351441Y110463D01*
X351020Y109734D01*
X350802Y108921D01*
Y108079D01*
X351020Y107266D01*
X351441Y106537D01*
X352037Y105941D01*
X352766Y105520D01*
X353579Y105302D01*
X354421D01*
X355234Y105520D01*
X355963Y105941D01*
X356559Y106537D01*
X356980Y107266D01*
X357198Y108079D01*
Y108921D01*
X356980Y109734D01*
X356559Y110463D01*
X355963Y111059D01*
X355234Y111480D01*
X354421Y111698D01*
D02*
G37*
G36*
X150429Y104890D02*
X148658D01*
Y103118D01*
X150429D01*
Y104890D01*
D02*
G37*
G36*
X135634D02*
X133862D01*
Y103118D01*
X135634D01*
Y104890D01*
D02*
G37*
G36*
X146658D02*
X144886D01*
Y104890D01*
X143146D01*
Y102118D01*
X141146D01*
Y104890D01*
X139406D01*
Y104890D01*
X137634D01*
Y102118D01*
X136634D01*
Y101118D01*
X133862D01*
Y99347D01*
Y97606D01*
X136634D01*
Y95606D01*
X133862D01*
Y93835D01*
X133862D01*
Y92094D01*
X136634D01*
Y91094D01*
X137634D01*
Y88323D01*
X139406D01*
Y88323D01*
X141146D01*
Y91094D01*
X143146D01*
Y88323D01*
X144886D01*
Y88323D01*
X146658D01*
Y91094D01*
X147658D01*
Y92094D01*
X150429D01*
Y93866D01*
X150429D01*
Y95606D01*
X147657D01*
Y97606D01*
X150429D01*
Y99347D01*
X150429D01*
Y101118D01*
X147658D01*
Y102118D01*
X146658D01*
Y104890D01*
D02*
G37*
G36*
X236339Y106003D02*
X229173D01*
X228746Y105918D01*
X228384Y105675D01*
X228141Y105313D01*
X228057Y104886D01*
Y103114D01*
X228141Y102687D01*
X228384Y102324D01*
X228746Y102082D01*
X229173Y101997D01*
X236339D01*
X236766Y102082D01*
X237128Y102324D01*
X237370Y102687D01*
X237455Y103114D01*
Y104886D01*
X237370Y105313D01*
X237128Y105675D01*
X236766Y105918D01*
X236339Y106003D01*
D02*
G37*
G36*
X354421Y101698D02*
X353579D01*
X352766Y101480D01*
X352037Y101059D01*
X351441Y100463D01*
X351020Y99734D01*
X350802Y98921D01*
Y98079D01*
X350917Y97652D01*
X349398Y96133D01*
X296612D01*
X296478Y96456D01*
X296559Y96537D01*
X296980Y97266D01*
X297198Y98079D01*
Y98921D01*
X296980Y99734D01*
X296559Y100463D01*
X295963Y101059D01*
X295234Y101480D01*
X294421Y101698D01*
X293579D01*
X292766Y101480D01*
X292037Y101059D01*
X291441Y100463D01*
X291020Y99734D01*
X290802Y98921D01*
Y98079D01*
X291020Y97266D01*
X291441Y96537D01*
X291522Y96456D01*
X291388Y96133D01*
X286752D01*
X285767Y97118D01*
X285255Y97460D01*
X284650Y97580D01*
X276662D01*
Y99162D01*
X270338D01*
Y92838D01*
X276662D01*
Y94420D01*
X283995D01*
X284980Y93435D01*
X285493Y93092D01*
X286098Y92972D01*
X350052D01*
X350657Y93092D01*
X351170Y93435D01*
X353152Y95417D01*
X353579Y95302D01*
X354421D01*
X355234Y95520D01*
X355963Y95941D01*
X356559Y96537D01*
X356980Y97266D01*
X357198Y98079D01*
Y98921D01*
X356980Y99734D01*
X356559Y100463D01*
X355963Y101059D01*
X355234Y101480D01*
X354421Y101698D01*
D02*
G37*
G36*
X231756Y91207D02*
X229173D01*
X228668Y91106D01*
X228239Y90820D01*
X227953Y90391D01*
X227875Y90000D01*
X231756D01*
Y91207D01*
D02*
G37*
G36*
X150429Y90095D02*
X148658D01*
Y88323D01*
X150429D01*
Y90095D01*
D02*
G37*
G36*
X135634D02*
X133862D01*
Y88323D01*
X135634D01*
Y90095D01*
D02*
G37*
G36*
X25569Y93761D02*
X24840D01*
X24136Y93572D01*
X23505Y93208D01*
X22989Y92692D01*
X22625Y92061D01*
X22436Y91357D01*
Y90628D01*
X22625Y89924D01*
X22989Y89292D01*
X23505Y88777D01*
X24136Y88412D01*
X24840Y88224D01*
X25569D01*
X26273Y88412D01*
X26905Y88777D01*
X27420Y89292D01*
X27785Y89924D01*
X27973Y90628D01*
Y91357D01*
X27785Y92061D01*
X27420Y92692D01*
X26905Y93208D01*
X26273Y93572D01*
X25569Y93761D01*
D02*
G37*
G36*
X357198Y91698D02*
X350802D01*
Y90080D01*
X321460D01*
X320855Y89960D01*
X320342Y89618D01*
X316857Y86133D01*
X296612D01*
X296478Y86456D01*
X296559Y86537D01*
X296980Y87266D01*
X297198Y88079D01*
Y88921D01*
X296980Y89734D01*
X296559Y90463D01*
X295963Y91059D01*
X295234Y91480D01*
X294421Y91698D01*
X293579D01*
X292766Y91480D01*
X292037Y91059D01*
X291441Y90463D01*
X291020Y89734D01*
X290802Y88921D01*
Y88079D01*
X291020Y87266D01*
X291441Y86537D01*
X291522Y86456D01*
X291388Y86133D01*
X287274D01*
X285289Y88117D01*
X284776Y88460D01*
X284172Y88580D01*
X276706D01*
Y90162D01*
X270381D01*
Y83838D01*
X276706D01*
Y85420D01*
X283517D01*
X284785Y84151D01*
X284651Y83828D01*
X277791D01*
X277186Y83708D01*
X276674Y83365D01*
X274470Y81162D01*
X270381D01*
Y74838D01*
X276706D01*
Y78927D01*
X278446Y80667D01*
X290028D01*
X290162Y80344D01*
X282010Y72193D01*
X275155D01*
X275003Y72162D01*
X270381D01*
Y65838D01*
X276360D01*
X276454Y65838D01*
X276744Y65526D01*
X276741Y65433D01*
X274470Y63162D01*
X270381D01*
Y56838D01*
X276360D01*
X276454Y56838D01*
X276744Y56526D01*
X276741Y56433D01*
X274470Y54162D01*
X270381D01*
Y47838D01*
X276706D01*
Y51927D01*
X283146Y58367D01*
X291388D01*
X291522Y58044D01*
X291441Y57963D01*
X291020Y57234D01*
X290802Y56421D01*
Y55579D01*
X291020Y54766D01*
X291441Y54037D01*
X292037Y53441D01*
X292729Y53042D01*
X292811Y52873D01*
X292863Y52680D01*
X288935Y48753D01*
X288592Y48240D01*
X288472Y47635D01*
Y39948D01*
X288592Y39343D01*
X288935Y38830D01*
X290917Y36848D01*
X290802Y36421D01*
Y36307D01*
X290479Y36173D01*
X283535Y43117D01*
X283022Y43460D01*
X282417Y43580D01*
X276706D01*
Y45162D01*
X270381D01*
Y38838D01*
X276706D01*
Y40420D01*
X281763D01*
X288226Y33956D01*
X288092Y33633D01*
X286524D01*
X286039Y34117D01*
X285526Y34460D01*
X284922Y34580D01*
X276706D01*
Y36162D01*
X270381D01*
Y29838D01*
X276706D01*
Y31420D01*
X284267D01*
X284752Y30935D01*
X285264Y30592D01*
X285869Y30472D01*
X288457D01*
X290295Y28635D01*
X290807Y28292D01*
X291412Y28172D01*
X296588D01*
X297193Y28292D01*
X297705Y28635D01*
X299542Y30472D01*
X340052D01*
X340657Y30592D01*
X341170Y30935D01*
X353152Y42917D01*
X353579Y42802D01*
X354421D01*
X355234Y43020D01*
X355963Y43441D01*
X356559Y44037D01*
X356980Y44766D01*
X357198Y45579D01*
Y46421D01*
X356980Y47234D01*
X356559Y47963D01*
X355963Y48559D01*
X355234Y48980D01*
X354421Y49198D01*
X353579D01*
X352766Y48980D01*
X352037Y48559D01*
X351441Y47963D01*
X351020Y47234D01*
X350802Y46421D01*
Y45579D01*
X350917Y45152D01*
X339398Y33633D01*
X299908D01*
X299774Y33956D01*
X306237Y40420D01*
X330000D01*
X330605Y40540D01*
X331118Y40883D01*
X353152Y62917D01*
X353579Y62802D01*
X354421D01*
X355234Y63020D01*
X355963Y63441D01*
X356559Y64037D01*
X356980Y64766D01*
X357198Y65579D01*
Y66421D01*
X356980Y67234D01*
X356559Y67963D01*
X355963Y68559D01*
X355234Y68980D01*
X354421Y69198D01*
X353579D01*
X352766Y68980D01*
X352037Y68559D01*
X351441Y67963D01*
X351020Y67234D01*
X350802Y66421D01*
Y65579D01*
X350917Y65152D01*
X329345Y43580D01*
X305583D01*
X304978Y43460D01*
X304465Y43117D01*
X297521Y36173D01*
X297198Y36307D01*
Y36421D01*
X296980Y37234D01*
X296559Y37963D01*
X295963Y38559D01*
X295234Y38980D01*
X294421Y39198D01*
X293579D01*
X293152Y39083D01*
X291633Y40602D01*
Y43388D01*
X291956Y43522D01*
X292037Y43441D01*
X292766Y43020D01*
X293579Y42802D01*
X294421D01*
X295234Y43020D01*
X295963Y43441D01*
X296559Y44037D01*
X296980Y44766D01*
X297198Y45579D01*
Y46421D01*
X297083Y46848D01*
X304117Y53882D01*
X304460Y54395D01*
X304580Y55000D01*
Y75836D01*
X304460Y76440D01*
X304117Y76953D01*
X298422Y82649D01*
X298556Y82972D01*
X317512D01*
X318117Y83092D01*
X318629Y83435D01*
X322114Y86920D01*
X350802D01*
Y85302D01*
X357198D01*
Y91698D01*
D02*
G37*
G36*
X255827Y91003D02*
X248661D01*
X248234Y90918D01*
X247872Y90675D01*
X247630Y90313D01*
X247545Y89886D01*
Y88114D01*
X247630Y87687D01*
X247872Y87325D01*
X248234Y87082D01*
X248661Y86997D01*
X254709D01*
X255823Y85883D01*
X256336Y85540D01*
X256941Y85420D01*
X263295D01*
Y83838D01*
X269619D01*
Y90162D01*
X263295D01*
Y88580D01*
X257596D01*
X256943Y89232D01*
Y89886D01*
X256858Y90313D01*
X256616Y90675D01*
X256254Y90918D01*
X255827Y91003D01*
D02*
G37*
G36*
X220327Y83503D02*
X213161D01*
X212734Y83418D01*
X212372Y83175D01*
X212130Y82813D01*
X212045Y82386D01*
Y80614D01*
X212130Y80187D01*
X212372Y79825D01*
X212734Y79582D01*
X213161Y79497D01*
X220327D01*
X220754Y79582D01*
X221116Y79825D01*
X221180Y79920D01*
X262302D01*
X263295Y78927D01*
Y75183D01*
X263295Y74892D01*
X263009Y74683D01*
X260074Y77618D01*
X259561Y77960D01*
X258957Y78080D01*
X221180D01*
X221116Y78175D01*
X220754Y78418D01*
X220327Y78503D01*
X213161D01*
X212734Y78418D01*
X212372Y78175D01*
X212130Y77813D01*
X212045Y77386D01*
Y75614D01*
X212130Y75187D01*
X212372Y74825D01*
X212734Y74582D01*
X213161Y74497D01*
X220327D01*
X220754Y74582D01*
X221116Y74825D01*
X221180Y74920D01*
X258302D01*
X263295Y69927D01*
Y66183D01*
X263295Y65892D01*
X263009Y65683D01*
X256074Y72618D01*
X255561Y72960D01*
X254957Y73080D01*
X221180D01*
X221116Y73176D01*
X220754Y73418D01*
X220327Y73503D01*
X213161D01*
X212734Y73418D01*
X212372Y73176D01*
X212130Y72813D01*
X212045Y72386D01*
Y70614D01*
X212130Y70187D01*
X212372Y69824D01*
X212734Y69582D01*
X213161Y69497D01*
X220327D01*
X220754Y69582D01*
X221116Y69824D01*
X221180Y69920D01*
X254302D01*
X263295Y60927D01*
Y56838D01*
X269619D01*
Y63162D01*
X265529D01*
X263140Y65552D01*
X263349Y65838D01*
X263622Y65838D01*
X269619D01*
Y72162D01*
X265529D01*
X263140Y74552D01*
X263349Y74838D01*
X263622Y74838D01*
X269619D01*
Y81162D01*
X265529D01*
X264074Y82617D01*
X263562Y82960D01*
X262957Y83080D01*
X221180D01*
X221116Y83175D01*
X220754Y83418D01*
X220327Y83503D01*
D02*
G37*
G36*
X32110Y75850D02*
X27779D01*
Y73488D01*
X32110D01*
Y75850D01*
D02*
G37*
G36*
X25780D02*
X21449D01*
Y73488D01*
X25780D01*
Y75850D01*
D02*
G37*
G36*
X354421Y79198D02*
X353579D01*
X352766Y78980D01*
X352037Y78559D01*
X351441Y77963D01*
X351020Y77234D01*
X350802Y76421D01*
Y75579D01*
X351020Y74766D01*
X351441Y74037D01*
X352037Y73441D01*
X352766Y73020D01*
X353579Y72802D01*
X354421D01*
X355234Y73020D01*
X355963Y73441D01*
X356559Y74037D01*
X356980Y74766D01*
X357198Y75579D01*
Y76421D01*
X356980Y77234D01*
X356559Y77963D01*
X355963Y78559D01*
X355234Y78980D01*
X354421Y79198D01*
D02*
G37*
G36*
X32110Y71488D02*
X27779D01*
Y69126D01*
X32110D01*
Y71488D01*
D02*
G37*
G36*
X25780D02*
X21449D01*
Y69126D01*
X25780D01*
Y71488D01*
D02*
G37*
G36*
X37749Y59866D02*
X35279D01*
Y57000D01*
X37749D01*
Y59866D01*
D02*
G37*
G36*
X354421Y59198D02*
X353579D01*
X352766Y58980D01*
X352037Y58559D01*
X351441Y57963D01*
X351020Y57234D01*
X350802Y56421D01*
Y55579D01*
X351020Y54766D01*
X351441Y54037D01*
X352037Y53441D01*
X352766Y53020D01*
X353579Y52802D01*
X354421D01*
X355234Y53020D01*
X355963Y53441D01*
X356559Y54037D01*
X356980Y54766D01*
X357198Y55579D01*
Y56421D01*
X356980Y57234D01*
X356559Y57963D01*
X355963Y58559D01*
X355234Y58980D01*
X354421Y59198D01*
D02*
G37*
G36*
X200839Y53707D02*
X198256D01*
Y52500D01*
X202136D01*
X202059Y52891D01*
X201772Y53320D01*
X201344Y53606D01*
X200839Y53707D01*
D02*
G37*
G36*
X37749Y55000D02*
X35279D01*
Y52134D01*
X37749D01*
Y55000D01*
D02*
G37*
G36*
X31367Y53221D02*
X28500D01*
Y50751D01*
X31367D01*
Y53221D01*
D02*
G37*
G36*
X20866D02*
X18000D01*
Y50751D01*
X20866D01*
Y53221D01*
D02*
G37*
G36*
X16000D02*
X13134D01*
Y50751D01*
X16000D01*
Y53221D01*
D02*
G37*
G36*
X26500D02*
X23633D01*
Y50751D01*
X26500D01*
Y53221D01*
D02*
G37*
G36*
X202136Y50500D02*
X198256D01*
Y49294D01*
X200839D01*
X201344Y49394D01*
X201772Y49680D01*
X202059Y50109D01*
X202136Y50500D01*
D02*
G37*
G36*
X220327Y68503D02*
X213161D01*
X212734Y68418D01*
X212372Y68176D01*
X212130Y67813D01*
X212045Y67386D01*
Y65614D01*
X212130Y65187D01*
X212372Y64824D01*
X212734Y64582D01*
X213161Y64497D01*
X220327D01*
X220754Y64582D01*
X221116Y64824D01*
X221180Y64920D01*
X245345D01*
X249382Y60883D01*
X249382Y60883D01*
X260383Y49883D01*
X260895Y49540D01*
X261500Y49420D01*
X263295D01*
Y47838D01*
X269619D01*
Y54162D01*
X263295D01*
Y52580D01*
X262155D01*
X251618Y63117D01*
X251618Y63117D01*
X247117Y67617D01*
X246605Y67960D01*
X246000Y68080D01*
X221180D01*
X221116Y68176D01*
X220754Y68418D01*
X220327Y68503D01*
D02*
G37*
G36*
X40000Y49224D02*
X38346D01*
Y48989D01*
X37983D01*
Y47437D01*
X35983D01*
Y48989D01*
X35563D01*
X35159Y48908D01*
X34815Y48679D01*
X34586Y48336D01*
X34506Y47931D01*
Y46943D01*
X34384Y46794D01*
X33968D01*
X33461Y46693D01*
X33238Y46544D01*
X31367D01*
Y48751D01*
X27500D01*
X23633D01*
Y46281D01*
X23370Y46073D01*
X21130D01*
X20866Y46281D01*
Y48751D01*
X17000D01*
X13134D01*
Y46281D01*
X13333D01*
Y39979D01*
X20666D01*
Y40425D01*
X23833D01*
Y39979D01*
X24426D01*
Y23497D01*
X23503D01*
Y16503D01*
X30497D01*
Y17176D01*
X34979D01*
Y16333D01*
X41281D01*
Y16134D01*
X43751D01*
Y20000D01*
Y23866D01*
X41281D01*
Y23666D01*
X34979D01*
Y22824D01*
X30497D01*
Y23497D01*
X30074D01*
Y39979D01*
X31166D01*
Y42037D01*
X34700D01*
X34710Y42026D01*
Y41037D01*
X34769Y40736D01*
X34654Y40563D01*
X34873D01*
X34960Y40433D01*
X35236Y40248D01*
X35563Y40183D01*
X36983D01*
Y39563D01*
X37983D01*
Y38011D01*
X38346D01*
Y37776D01*
X40000D01*
Y43500D01*
Y49224D01*
D02*
G37*
G36*
X220327Y63503D02*
X213161D01*
X212734Y63418D01*
X212372Y63175D01*
X212130Y62813D01*
X212045Y62386D01*
Y60614D01*
X212130Y60187D01*
X212372Y59825D01*
X212734Y59582D01*
X213161Y59497D01*
X220327D01*
X220754Y59582D01*
X221116Y59825D01*
X221180Y59920D01*
X242345D01*
X259770Y42495D01*
X260283Y42152D01*
X260888Y42032D01*
X263295D01*
Y39183D01*
X263295Y38892D01*
X263009Y38683D01*
X244074Y57617D01*
X243562Y57960D01*
X242957Y58080D01*
X221180D01*
X221116Y58175D01*
X220754Y58418D01*
X220327Y58503D01*
X213161D01*
X212734Y58418D01*
X212372Y58175D01*
X212130Y57813D01*
X212045Y57386D01*
Y55614D01*
X212130Y55187D01*
X212372Y54825D01*
X212734Y54582D01*
X213161Y54497D01*
X220327D01*
X220754Y54582D01*
X221116Y54825D01*
X221180Y54920D01*
X242302D01*
X263295Y33927D01*
Y30183D01*
X263295Y29892D01*
X263009Y29683D01*
X240074Y52618D01*
X239562Y52960D01*
X238957Y53080D01*
X221180D01*
X221116Y53175D01*
X220754Y53418D01*
X220327Y53503D01*
X213161D01*
X212734Y53418D01*
X212372Y53175D01*
X212130Y52813D01*
X212045Y52386D01*
Y50614D01*
X212130Y50187D01*
X212372Y49825D01*
X212734Y49582D01*
X213161Y49497D01*
X220327D01*
X220754Y49582D01*
X221116Y49825D01*
X221180Y49920D01*
X238302D01*
X263295Y24927D01*
Y20838D01*
X269619D01*
Y27162D01*
X265529D01*
X263140Y29552D01*
X263349Y29838D01*
X263622Y29838D01*
X269619D01*
Y36162D01*
X265529D01*
X263140Y38552D01*
X263349Y38838D01*
X263622Y38838D01*
X269619D01*
Y45162D01*
X264997D01*
X264844Y45193D01*
X261542D01*
X244117Y62617D01*
X243605Y62960D01*
X243000Y63080D01*
X221180D01*
X221116Y63175D01*
X220754Y63418D01*
X220327Y63503D01*
D02*
G37*
G36*
X35983Y38563D02*
X34654D01*
X34815Y38321D01*
X35159Y38092D01*
X35563Y38011D01*
X35983D01*
Y38563D01*
D02*
G37*
G36*
X235626Y39272D02*
X233351D01*
Y36500D01*
X235626D01*
Y39272D01*
D02*
G37*
G36*
X231351D02*
X229076D01*
Y36500D01*
X231351D01*
Y39272D01*
D02*
G37*
G36*
X221126D02*
X218851D01*
Y36500D01*
X221126D01*
Y39272D01*
D02*
G37*
G36*
X235626Y34500D02*
X233351D01*
Y31728D01*
X235626D01*
Y34500D01*
D02*
G37*
G36*
X357198Y39198D02*
X350802D01*
Y35037D01*
X341345Y25580D01*
X276706D01*
Y27162D01*
X270381D01*
Y20838D01*
X276706D01*
Y22420D01*
X342000D01*
X342605Y22540D01*
X343117Y22883D01*
X353037Y32802D01*
X357198D01*
Y39198D01*
D02*
G37*
G36*
X92500Y23559D02*
Y21000D01*
X95059D01*
X94945Y21427D01*
X94458Y22270D01*
X93770Y22958D01*
X92927Y23445D01*
X92500Y23559D01*
D02*
G37*
G36*
X90500D02*
X90073Y23445D01*
X89230Y22958D01*
X88542Y22270D01*
X88055Y21427D01*
X87941Y21000D01*
X90500D01*
Y23559D01*
D02*
G37*
G36*
X48221Y23866D02*
X45751D01*
Y21000D01*
X48221D01*
Y23866D01*
D02*
G37*
G36*
X18000Y23559D02*
Y21000D01*
X20559D01*
X20445Y21427D01*
X19958Y22270D01*
X19270Y22958D01*
X18427Y23445D01*
X18000Y23559D01*
D02*
G37*
G36*
X16000D02*
X15573Y23445D01*
X14730Y22958D01*
X14042Y22270D01*
X13555Y21427D01*
X13441Y21000D01*
X16000D01*
Y23559D01*
D02*
G37*
G36*
X121960Y23497D02*
X121040D01*
X120150Y23258D01*
X119353Y22798D01*
X118702Y22147D01*
X118242Y21350D01*
X118003Y20460D01*
Y19540D01*
X118242Y18650D01*
X118702Y17853D01*
X119353Y17202D01*
X120150Y16741D01*
X121040Y16503D01*
X121960D01*
X122850Y16741D01*
X123647Y17202D01*
X124298Y17853D01*
X124759Y18650D01*
X124997Y19540D01*
Y20460D01*
X124759Y21350D01*
X124298Y22147D01*
X123647Y22798D01*
X122850Y23258D01*
X121960Y23497D01*
D02*
G37*
G36*
X111960D02*
X111040D01*
X110150Y23258D01*
X109353Y22798D01*
X108702Y22147D01*
X108241Y21350D01*
X108003Y20460D01*
Y19540D01*
X108241Y18650D01*
X108702Y17853D01*
X109353Y17202D01*
X110150Y16741D01*
X111040Y16503D01*
X111960D01*
X112850Y16741D01*
X113647Y17202D01*
X114298Y17853D01*
X114759Y18650D01*
X114997Y19540D01*
Y20460D01*
X114759Y21350D01*
X114298Y22147D01*
X113647Y22798D01*
X112850Y23258D01*
X111960Y23497D01*
D02*
G37*
G36*
X101960D02*
X101040D01*
X100150Y23258D01*
X99353Y22798D01*
X98702Y22147D01*
X98242Y21350D01*
X98003Y20460D01*
Y19540D01*
X98242Y18650D01*
X98702Y17853D01*
X99353Y17202D01*
X100150Y16741D01*
X101040Y16503D01*
X101960D01*
X102850Y16741D01*
X103647Y17202D01*
X104298Y17853D01*
X104759Y18650D01*
X104997Y19540D01*
Y20460D01*
X104759Y21350D01*
X104298Y22147D01*
X103647Y22798D01*
X102850Y23258D01*
X101960Y23497D01*
D02*
G37*
G36*
X95059Y19000D02*
X92500D01*
Y16441D01*
X92927Y16555D01*
X93770Y17042D01*
X94458Y17730D01*
X94945Y18573D01*
X95059Y19000D01*
D02*
G37*
G36*
X90500D02*
X87941D01*
X88055Y18573D01*
X88542Y17730D01*
X89230Y17042D01*
X90073Y16555D01*
X90500Y16441D01*
Y19000D01*
D02*
G37*
G36*
X20559D02*
X18000D01*
Y16441D01*
X18427Y16555D01*
X19270Y17042D01*
X19958Y17730D01*
X20445Y18573D01*
X20559Y19000D01*
D02*
G37*
G36*
X16000D02*
X13441D01*
X13555Y18573D01*
X14042Y17730D01*
X14730Y17042D01*
X15573Y16555D01*
X16000Y16441D01*
Y19000D01*
D02*
G37*
G36*
X48221D02*
X45751D01*
Y16134D01*
X48221D01*
Y19000D01*
D02*
G37*
G36*
X87249Y95867D02*
X84779D01*
Y93000D01*
X87249D01*
Y95867D01*
D02*
G37*
G36*
Y91000D02*
X84779D01*
Y88134D01*
X87249D01*
Y91000D01*
D02*
G37*
G36*
Y85866D02*
X84779D01*
Y83000D01*
X87249D01*
Y85866D01*
D02*
G37*
G36*
Y81000D02*
X84779D01*
Y78133D01*
X87249D01*
Y81000D01*
D02*
G37*
G36*
X68331Y80181D02*
X65378D01*
Y77031D01*
X68331D01*
Y80181D01*
D02*
G37*
G36*
X63378D02*
X60425D01*
Y77031D01*
X63378D01*
Y80181D01*
D02*
G37*
G36*
X68331Y75032D02*
X65378D01*
Y71882D01*
X68331D01*
Y75032D01*
D02*
G37*
G36*
X63378D02*
X60425D01*
Y71882D01*
X63378D01*
Y75032D01*
D02*
G37*
G36*
X84000Y56721D02*
X81134D01*
Y54251D01*
X84000D01*
Y56721D01*
D02*
G37*
G36*
X128749Y38366D02*
X126279D01*
Y35500D01*
X128749D01*
Y38366D01*
D02*
G37*
G36*
Y33500D02*
X126279D01*
Y30634D01*
X128749D01*
Y33500D01*
D02*
G37*
G36*
X179000Y24059D02*
Y21500D01*
X181559D01*
X181445Y21927D01*
X180958Y22770D01*
X180270Y23458D01*
X179427Y23945D01*
X179000Y24059D01*
D02*
G37*
G36*
X177000D02*
X176573Y23945D01*
X175730Y23458D01*
X175042Y22770D01*
X174555Y21927D01*
X174441Y21500D01*
X177000D01*
Y24059D01*
D02*
G37*
%LPD*%
D13*
X232756Y124000D02*
D03*
Y119000D02*
D03*
Y114000D02*
D03*
Y109000D02*
D03*
Y104000D02*
D03*
Y99000D02*
D03*
Y94000D02*
D03*
Y89000D02*
D03*
X252244D02*
D03*
Y94000D02*
D03*
Y99000D02*
D03*
Y104000D02*
D03*
Y109000D02*
D03*
Y114000D02*
D03*
Y119000D02*
D03*
Y124000D02*
D03*
X197256Y86500D02*
D03*
Y81500D02*
D03*
Y76500D02*
D03*
Y71500D02*
D03*
Y66500D02*
D03*
Y61500D02*
D03*
Y56500D02*
D03*
Y51500D02*
D03*
X216744D02*
D03*
Y56500D02*
D03*
Y61500D02*
D03*
Y66500D02*
D03*
Y71500D02*
D03*
Y76500D02*
D03*
Y81500D02*
D03*
Y86500D02*
D03*
D14*
X175551Y57079D02*
D03*
X170551Y57079D02*
D03*
X165551Y57079D02*
D03*
X160551Y57079D02*
D03*
X155551Y57079D02*
D03*
X150551Y57079D02*
D03*
X145551Y57079D02*
D03*
X140551Y57079D02*
D03*
X135551Y57079D02*
D03*
X130551Y57079D02*
D03*
X125551D02*
D03*
X120551Y57079D02*
D03*
D15*
X182500Y127000D02*
D03*
X182500Y122000D02*
D03*
X182500Y117000D02*
D03*
X182500Y112000D02*
D03*
X182500Y107000D02*
D03*
X182500Y102000D02*
D03*
X182500Y97000D02*
D03*
X182500Y92000D02*
D03*
X182500Y87000D02*
D03*
X182500Y82000D02*
D03*
X182500Y77000D02*
D03*
X182500Y72000D02*
D03*
Y67000D02*
D03*
Y62000D02*
D03*
X113602D02*
D03*
X113602Y67000D02*
D03*
X113602Y72000D02*
D03*
Y77000D02*
D03*
X113602Y82000D02*
D03*
X113602Y87000D02*
D03*
X113602Y92000D02*
D03*
Y97000D02*
D03*
Y102000D02*
D03*
X113602Y107000D02*
D03*
X113602Y112000D02*
D03*
Y117000D02*
D03*
Y122000D02*
D03*
Y127000D02*
D03*
D16*
X147658Y102118D02*
D03*
X142146Y102118D02*
D03*
X136634Y102118D02*
D03*
X147658Y91094D02*
D03*
X142146Y91094D02*
D03*
X136634Y91094D02*
D03*
X147657Y96606D02*
D03*
X136634D02*
D03*
X142146D02*
D03*
D17*
X63394Y133512D02*
D03*
D18*
X99453Y59577D02*
D03*
Y50423D02*
D03*
X93547D02*
D03*
X95516D02*
D03*
X97484D02*
D03*
X93547Y59577D02*
D03*
X95516D02*
D03*
X97484D02*
D03*
D19*
X26779Y133512D02*
D03*
Y72488D02*
D03*
D20*
X64378Y76032D02*
D03*
D21*
X68512Y128787D02*
D03*
Y124457D02*
D03*
Y120126D02*
D03*
Y115795D02*
D03*
Y111465D02*
D03*
Y107134D02*
D03*
Y102803D02*
D03*
Y98472D02*
D03*
Y94142D02*
D03*
D22*
X211748Y114500D02*
D03*
X200252Y104500D02*
D03*
D23*
X64500Y38957D02*
D03*
Y46043D02*
D03*
D24*
X211149Y35500D02*
D03*
X217851D02*
D03*
X196649D02*
D03*
X203351D02*
D03*
X99851Y69500D02*
D03*
X93149D02*
D03*
X232351Y35500D02*
D03*
X225649D02*
D03*
X93149Y37500D02*
D03*
X99851D02*
D03*
X131149Y46000D02*
D03*
X137851D02*
D03*
D25*
X174500Y34161D02*
D03*
Y28839D02*
D03*
X164500D02*
D03*
Y34161D02*
D03*
D26*
X92908Y53031D02*
D03*
Y56968D02*
D03*
Y55000D02*
D03*
X100092Y53031D02*
D03*
Y56968D02*
D03*
Y55000D02*
D03*
D27*
X90500Y142649D02*
D03*
Y149351D02*
D03*
X80000Y134351D02*
D03*
Y127649D02*
D03*
X78500Y97851D02*
D03*
Y91149D02*
D03*
Y109149D02*
D03*
Y115851D02*
D03*
X88500D02*
D03*
Y109149D02*
D03*
X114500Y40649D02*
D03*
Y47351D02*
D03*
D28*
X104000Y82079D02*
D03*
Y91921D02*
D03*
D29*
X44751Y20000D02*
D03*
X38249D02*
D03*
X38749Y56000D02*
D03*
X45251D02*
D03*
X129749Y34500D02*
D03*
X136251D02*
D03*
X94751Y82000D02*
D03*
X88249D02*
D03*
X94751Y92000D02*
D03*
X88249D02*
D03*
D30*
X55000Y54626D02*
D03*
Y45374D02*
D03*
D31*
X17000Y49751D02*
D03*
Y43249D02*
D03*
X27500Y49751D02*
D03*
Y43249D02*
D03*
X100500Y134251D02*
D03*
Y127749D02*
D03*
X85000Y53251D02*
D03*
Y46749D02*
D03*
X90500Y127749D02*
D03*
Y134251D02*
D03*
D32*
X36983Y47437D02*
D03*
Y45469D02*
D03*
Y43500D02*
D03*
Y41532D02*
D03*
Y39563D02*
D03*
X45017D02*
D03*
Y41532D02*
D03*
Y43500D02*
D03*
Y45469D02*
D03*
Y47437D02*
D03*
D33*
X147547Y33350D02*
D03*
X149516D02*
D03*
X151484D02*
D03*
X153453D02*
D03*
Y44650D02*
D03*
X151484D02*
D03*
X149516D02*
D03*
X147547D02*
D03*
D34*
X144850Y41953D02*
D03*
Y39984D02*
D03*
Y38016D02*
D03*
Y36047D02*
D03*
X156150D02*
D03*
Y38016D02*
D03*
Y39984D02*
D03*
Y41953D02*
D03*
D36*
X266457Y24000D02*
D03*
X273543D02*
D03*
X266457Y42000D02*
D03*
X273543D02*
D03*
X266457Y33000D02*
D03*
X273543D02*
D03*
X266457Y51000D02*
D03*
X273543D02*
D03*
X266457Y60000D02*
D03*
X273543D02*
D03*
X266457Y69000D02*
D03*
X273543D02*
D03*
X266457Y78000D02*
D03*
X273543D02*
D03*
X266413Y96000D02*
D03*
X273500D02*
D03*
X266457Y87000D02*
D03*
X273543D02*
D03*
Y132000D02*
D03*
X266457D02*
D03*
Y141000D02*
D03*
X273543D02*
D03*
X266457Y123000D02*
D03*
X273543D02*
D03*
X266457Y114000D02*
D03*
X273543D02*
D03*
X266457Y105000D02*
D03*
X273543D02*
D03*
D63*
X41000Y43500D02*
D03*
D64*
X150500Y39000D02*
D03*
D65*
X87621Y130231D02*
X90103Y127749D01*
X86991Y130231D02*
X87621D01*
X86084Y131139D02*
X86991Y130231D01*
X90103Y127749D02*
X90500D01*
X86084Y131139D02*
Y138729D01*
X90003Y142649D01*
X90500D01*
X100500Y134251D02*
X105616D01*
X111400Y128022D02*
X112421Y127000D01*
X113602D01*
X105616Y134251D02*
X111400Y128468D01*
Y128022D02*
Y128468D01*
X95466Y147826D02*
X111976Y131316D01*
X90500Y149351D02*
X92025Y147826D01*
X95466D01*
X100500Y127749D02*
X105616D01*
X110344Y123022D01*
X112581D02*
X113602Y122000D01*
X110344Y123022D02*
X112581D01*
X102057Y121976D02*
X107034Y117000D01*
X96669Y121976D02*
X102057D01*
X90897Y127749D02*
X96669Y121976D01*
X90500Y127749D02*
X90897D01*
X107034Y117000D02*
X113602D01*
X104283Y112000D02*
X113602D01*
X88469Y119676D02*
X96607D01*
X80497Y127649D02*
X88469Y119676D01*
X80000Y127649D02*
X80497D01*
X96607Y119676D02*
X104283Y112000D01*
X68512Y128787D02*
X78861D01*
X80000Y127649D01*
X293000Y141000D02*
X312500Y121500D01*
X225649Y35500D02*
Y39851D01*
X218251Y47249D02*
X225649Y39851D01*
X194429Y47249D02*
X218251D01*
X225649Y35500D02*
X227174Y33975D01*
X185000Y43500D02*
X204000D01*
X209624Y37876D01*
X175745Y52755D02*
X185000Y43500D01*
X111976Y131316D02*
X123184D01*
X90500Y142649D02*
X90997D01*
X136251Y34103D02*
X139325Y31029D01*
X136251Y34103D02*
Y34500D01*
X139325Y31029D02*
X139471D01*
X131149Y40978D02*
Y46000D01*
X134531Y36220D02*
X136251Y34500D01*
X131149Y40978D02*
X134531Y37595D01*
Y36220D02*
Y37595D01*
X137851Y46000D02*
X139376Y44475D01*
X55000Y54858D02*
Y54921D01*
Y54626D02*
Y54858D01*
Y54921D02*
X60079Y60000D01*
X60500D01*
X77750Y70500D02*
X78500D01*
X58322Y51072D02*
X77750Y70500D01*
X91624Y39522D02*
X93397Y37749D01*
X131500Y20000D02*
X135247Y16253D01*
X118322Y33178D02*
X131500Y20000D01*
X226267Y119000D02*
X232756D01*
X219142Y118550D02*
X219573Y118119D01*
X204354Y118550D02*
X219142D01*
X219573Y118119D02*
X225387D01*
X226267Y119000D01*
X202804Y117000D02*
X204354Y118550D01*
X182500Y117000D02*
X202804D01*
X232756Y124000D02*
Y131621D01*
X231877Y132500D02*
X232756Y131621D01*
X216500Y132500D02*
X231877D01*
X206000Y122000D02*
X216500Y132500D01*
X182500Y122000D02*
X206000D01*
X194308Y99000D02*
X232756D01*
X182500Y102000D02*
X191308D01*
X194308Y99000D01*
X191500Y94000D02*
X232756D01*
X182500Y97000D02*
X188500D01*
X191500Y94000D01*
X135247Y16253D02*
X249253D01*
X253500Y20500D01*
X242255Y116708D02*
X249547Y124000D01*
X242255Y94666D02*
Y116708D01*
X249547Y124000D02*
X252244D01*
X237269Y86269D02*
X242255Y91255D01*
Y94666D01*
X216975Y86269D02*
X237269D01*
X216744Y86500D02*
X216975Y86269D01*
X216744Y81500D02*
X262957D01*
X216744Y76500D02*
X258957D01*
X262957Y81500D02*
X266457Y78000D01*
X254941Y89000D02*
X256941Y87000D01*
X266457D01*
X258957Y76500D02*
X266457Y69000D01*
X216744Y71500D02*
X254957D01*
X252244Y89000D02*
X254941D01*
X256941Y96000D02*
X266413D01*
X252244Y94000D02*
X254941D01*
X256941Y96000D01*
X143500Y27000D02*
X143713Y26787D01*
X139471Y31029D02*
X143500Y27000D01*
X60500Y60000D02*
X66000Y65500D01*
X191512Y114500D02*
X211748D01*
X106532Y33178D02*
X118322D01*
X94674Y35438D02*
X96934Y33178D01*
X94674Y35438D02*
Y36472D01*
X114003Y40649D02*
X114500D01*
X106532Y33178D02*
X114003Y40649D01*
X96934Y33178D02*
X106532D01*
X93692Y109149D02*
X95841Y107000D01*
X88500Y109149D02*
X93692D01*
X95841Y107000D02*
X96500D01*
X95421Y114326D02*
X102747Y107000D01*
X113602D01*
X86146Y102000D02*
X113602D01*
X78500Y97851D02*
X112751D01*
X123184Y131316D02*
X127000Y127500D01*
Y113500D02*
Y127500D01*
X88438Y147826D02*
X88975D01*
X90500Y149351D01*
X80000Y134351D02*
Y139388D01*
X88438Y147826D01*
X118500Y122000D02*
X127000Y113500D01*
Y103000D02*
Y113500D01*
X113602Y122000D02*
X118500D01*
X81875Y112974D02*
X81914D01*
X84214Y110674D01*
X86975D01*
X78500Y115851D02*
X78997D01*
X81875Y112974D01*
X86975Y110674D02*
X88500Y109149D01*
X78500Y70500D02*
Y91149D01*
X85000Y46749D02*
X86720Y48469D01*
X91127Y39522D02*
X91624D01*
X83000Y69500D02*
X93149D01*
X54905Y45469D02*
X55000Y45374D01*
X38000Y19751D02*
X38249Y20000D01*
X126573Y58100D02*
Y62073D01*
X132000Y67500D01*
X125551Y57079D02*
X126573Y58100D01*
X118000Y62000D02*
X127500Y71500D01*
X113602Y62000D02*
X118000D01*
X123000Y74340D02*
Y75000D01*
X122000Y70379D02*
Y73340D01*
X123000Y74340D01*
X118621Y67000D02*
X122000Y70379D01*
X113602Y67000D02*
X118621D01*
X189012Y107000D02*
X191512Y104500D01*
X196256D01*
X182500Y107000D02*
X189012D01*
X182500Y112000D02*
X189012D01*
X191512Y114500D01*
X273543Y141000D02*
X293000D01*
X285172Y132000D02*
X285619Y132448D01*
X273543Y132000D02*
X285172D01*
X285619Y132448D02*
X295635D01*
X318500Y109583D01*
Y109000D02*
Y109583D01*
X273543Y105000D02*
X285172D01*
X285619Y104552D01*
X340052D01*
X354000Y118500D01*
X350052Y94552D02*
X354000Y98500D01*
X286098Y94552D02*
X350052D01*
X284650Y96000D02*
X286098Y94552D01*
X273500Y96000D02*
X284650D01*
X317512Y84552D02*
X321460Y88500D01*
X354000D01*
X296588Y82248D02*
X303000Y75836D01*
X294000Y46000D02*
X303000Y55000D01*
Y75836D01*
X300248Y56665D02*
Y75335D01*
X295635Y52052D02*
X300248Y56665D01*
X295635Y79948D02*
X300248Y75335D01*
X297948Y64365D02*
Y72052D01*
X294000Y76000D02*
X297948Y72052D01*
X293530Y59948D02*
X297948Y64365D01*
X277791Y82248D02*
X296588D01*
X273543Y78000D02*
X277791Y82248D01*
X290052Y39948D02*
X294000Y36000D01*
X290052Y39948D02*
Y47635D01*
X294470Y52052D01*
X295635D01*
X292000Y79948D02*
X295635D01*
X282665Y70612D02*
X292000Y79948D01*
X275155Y70612D02*
X282665D01*
X273543Y69000D02*
X275155Y70612D01*
X273543Y42000D02*
X282417D01*
X285869Y32052D02*
X289112D01*
X291412Y29752D01*
X292365Y32052D02*
X295635D01*
X305583Y42000D01*
X291412Y29752D02*
X296588D01*
X282417Y42000D02*
X292365Y32052D01*
X296588Y29752D02*
X298888Y32052D01*
X305583Y42000D02*
X330000D01*
X298888Y32052D02*
X340052D01*
X330000Y42000D02*
X354000Y66000D01*
X282491Y59948D02*
X293530D01*
X273543Y60000D02*
X279543Y66000D01*
X294000D01*
X273543Y51000D02*
X282491Y59948D01*
X286619Y84552D02*
X317512D01*
X273543Y24000D02*
X342000D01*
X354000Y36000D01*
X340052Y32052D02*
X354000Y46000D01*
X273543Y33000D02*
X284922D01*
X285869Y32052D01*
X284172Y87000D02*
X286619Y84552D01*
X273543Y87000D02*
X284172D01*
X297948Y116865D02*
Y124552D01*
X294000Y128500D02*
X297948Y124552D01*
X273543Y114000D02*
X295083D01*
X297948Y116865D01*
X273543Y123000D02*
X289500D01*
X294000Y118500D01*
X264000Y119500D02*
Y120543D01*
X260000Y115500D02*
X264000Y119500D01*
X260000Y114000D02*
Y115500D01*
X264000Y120543D02*
X266457Y123000D01*
X255431Y109431D02*
X260000Y114000D01*
X260500Y119559D02*
Y126043D01*
X254941Y114000D02*
X260500Y119559D01*
X252244Y114000D02*
X254941D01*
X252244Y109000D02*
X252675Y109431D01*
X255431D01*
X254941Y119000D02*
X258000Y122059D01*
X260500Y126043D02*
X266457Y132000D01*
X258000Y122059D02*
Y132543D01*
X266457Y141000D01*
X260941Y105000D02*
X266457D01*
X254941Y99000D02*
X260941Y105000D01*
X252244Y99000D02*
X254941D01*
X252244Y104000D02*
X252675Y104431D01*
X256888D02*
X266457Y114000D01*
X252675Y104431D02*
X256888D01*
X252244Y119000D02*
X254941D01*
X254957Y71500D02*
X266457Y60000D01*
X216744Y66500D02*
X246000D01*
X250500Y62000D02*
X261500Y51000D01*
X246000Y66500D02*
X250500Y62000D01*
Y62000D02*
Y62000D01*
X261500Y51000D02*
X266457D01*
X242957Y56500D02*
X266457Y33000D01*
X216744Y56500D02*
X242957D01*
X243000Y61500D02*
X260888Y43612D01*
X216744Y61500D02*
X243000D01*
X260888Y43612D02*
X264844D01*
X266457Y42000D01*
X238957Y51500D02*
X266457Y24000D01*
X216744Y51500D02*
X238957D01*
X194559Y86500D02*
X197256D01*
X182500Y92000D02*
X189059D01*
X194559Y86500D01*
X189059Y87000D02*
X194559Y81500D01*
X197256D01*
X182500Y87000D02*
X189059D01*
X188500Y62559D02*
Y73500D01*
X186022Y75978D02*
X188500Y73500D01*
X183522Y75978D02*
X186022D01*
X182500Y77000D02*
X183522Y75978D01*
X182500Y82000D02*
X183522Y80978D01*
X190800Y65259D02*
Y77074D01*
X186896Y80978D02*
X190800Y77074D01*
X183522Y80978D02*
X186896D01*
X196825Y61931D02*
X197256Y61500D01*
X188500Y62559D02*
X194128Y56931D01*
Y61931D02*
X196825D01*
X190800Y65259D02*
X194128Y61931D01*
X196825Y56931D02*
X197256Y56500D01*
X194128Y56931D02*
X196825D01*
X232658Y27342D02*
X236658D01*
X227174Y32826D02*
X232658Y27342D01*
X227174Y32826D02*
Y33975D01*
X236658Y27342D02*
X243500Y20500D01*
X183681Y62000D02*
X184703Y60978D01*
Y56975D02*
Y60978D01*
Y56975D02*
X194429Y47249D01*
X182500Y62000D02*
X183681D01*
X213874Y32239D02*
X217070Y29042D01*
X224958D01*
X211149Y35003D02*
Y35500D01*
Y35003D02*
X213874Y32278D01*
Y32239D02*
Y32278D01*
X224958Y29042D02*
X233500Y20500D01*
X209624Y37025D02*
Y37876D01*
Y37025D02*
X211149Y35500D01*
X175745Y52755D02*
Y56885D01*
X175551Y57079D02*
X175745Y56885D01*
X199374Y32239D02*
Y32278D01*
Y32239D02*
X204870Y26742D01*
X217258D01*
X223500Y20500D01*
X196649Y35003D02*
Y35500D01*
Y35003D02*
X199374Y32278D01*
X171573Y50927D02*
X187000Y35500D01*
X196649D01*
X171573Y50927D02*
Y56057D01*
X170551Y57079D02*
X171573Y56057D01*
X160551Y57079D02*
X161573Y56057D01*
Y54124D02*
Y56057D01*
Y54124D02*
X188000Y27697D01*
Y20500D02*
Y27697D01*
X166573Y52393D02*
X198000Y20966D01*
X166573Y52393D02*
Y56057D01*
X198000Y20500D02*
Y20966D01*
X165551Y57079D02*
X166573Y56057D01*
X174201Y28839D02*
X174500D01*
X174201Y34161D02*
X174500D01*
X150551Y57079D02*
X151484Y56146D01*
X85000Y53251D02*
X85220Y53031D01*
X129530Y56057D02*
X130551Y57079D01*
X114500Y47351D02*
X114997D01*
X112975Y48876D02*
X114500Y47351D01*
X90025Y114326D02*
X95421D01*
X88003Y115851D02*
X88500D01*
X90025Y114326D01*
X76478Y99376D02*
Y99873D01*
X68512Y102803D02*
X73548D01*
X76478Y99873D01*
Y99376D02*
X78003Y97851D01*
X78500D01*
X68512Y111465D02*
X75687D01*
X78003Y109149D01*
X78500D01*
X68512Y120126D02*
X83728D01*
X88003Y115851D01*
X94751Y82000D02*
X94830Y82079D01*
X104000D01*
X94830Y91921D02*
X104000D01*
X94751Y92000D02*
X94830Y91921D01*
X105575Y82079D02*
X109474Y85978D01*
X104000Y82079D02*
X105575D01*
X109474Y85978D02*
X112581D01*
X113602Y87000D01*
X104039Y91961D02*
X113563D01*
X113602Y92000D01*
X104000Y91921D02*
X104039Y91961D01*
X112751Y97851D02*
X113602Y97000D01*
X78997Y109149D02*
X86146Y102000D01*
X78500Y109149D02*
X78997D01*
D66*
X90500Y134251D02*
X100500D01*
X44949Y41500D02*
X48000D01*
X50543Y38957D02*
X64500D01*
X48000Y41500D02*
X50543Y38957D01*
X136634Y91094D02*
X136634Y91094D01*
X139390D01*
X142146D01*
X142146Y91094D01*
Y96606D02*
X142146Y96606D01*
Y93850D02*
Y96606D01*
Y102118D02*
X144902D01*
X142146Y102118D02*
X142146Y102118D01*
X136634Y96606D02*
Y99362D01*
X142146Y91094D02*
X142146Y91094D01*
Y93850D01*
X144902Y96606D02*
X147657D01*
X142146Y96606D02*
Y99362D01*
Y96606D02*
X142146Y96606D01*
X142146Y96606D02*
X142146Y96606D01*
X139390Y96606D02*
X142146D01*
X136634D02*
X139390D01*
X136634Y102118D02*
X136634Y102118D01*
Y93850D02*
Y96606D01*
Y91094D02*
X136634Y91094D01*
X142146Y91094D02*
X144902D01*
X147658D01*
X147658Y91094D01*
X147658Y91094D02*
Y93850D01*
X147658Y91094D02*
X147658Y91094D01*
Y93850D02*
Y96606D01*
X147658Y96606D02*
Y99362D01*
Y102118D01*
X144902Y102118D02*
X147657D01*
X147658Y102118D01*
X139390Y102118D02*
X142146D01*
X136634D02*
X139390D01*
X147547Y44650D02*
Y47953D01*
X145551Y49949D02*
X147547Y47953D01*
X164484Y39984D02*
X167000Y42500D01*
X156150Y39984D02*
X164484D01*
X150500Y39000D02*
X151484Y39984D01*
X156150D01*
X149516D02*
X150500Y39000D01*
X149516Y39984D02*
Y44650D01*
Y38016D02*
X150500Y39000D01*
X144850Y38016D02*
X149516D01*
X190000Y39500D02*
X190072Y39572D01*
X199776D01*
X203351Y35997D01*
Y35500D02*
Y35997D01*
X92908Y53031D02*
Y55000D01*
X142453Y36047D02*
X144850D01*
X139376Y39124D02*
Y44475D01*
Y39124D02*
X142453Y36047D01*
X91469Y48469D02*
X93485Y50485D01*
X151612Y30388D02*
X153453Y32228D01*
X148224Y27000D02*
X151612Y30388D01*
X151484Y30516D02*
Y33350D01*
Y30516D02*
X151612Y30388D01*
X143500Y27000D02*
X148224D01*
X153453Y32228D02*
Y33350D01*
X27614Y43363D02*
X38046D01*
X52493Y41810D02*
X60267D01*
X64500Y46043D01*
X44917Y43500D02*
X50803D01*
X52493Y41810D01*
X45000Y47500D02*
Y55749D01*
X45251Y56000D01*
X33968Y45469D02*
X37083D01*
X29470Y45219D02*
X33719D01*
X33968Y45469D01*
X27614Y43363D02*
X29470Y45219D01*
X27500Y43249D02*
X27614Y43363D01*
X44917Y45469D02*
X54905D01*
X72500Y59000D02*
X90500D01*
X92256Y57244D01*
X86720Y48469D02*
X91469D01*
X44917Y41532D02*
X44949Y41500D01*
X160000Y35000D02*
X163661D01*
X156150Y36047D02*
X158953D01*
X160000Y35000D01*
X163661D02*
X164500Y34161D01*
X156150Y38016D02*
X170346D01*
X170244Y24882D02*
X174201Y28839D01*
X162000Y20500D02*
X166382Y24882D01*
X170244D01*
X160339Y28839D02*
X164500D01*
X152000Y20500D02*
X160339Y28839D01*
X170346Y38016D02*
X174201Y34161D01*
X151484Y44650D02*
Y56146D01*
X145551Y49949D02*
Y57079D01*
X145000Y42215D02*
Y46464D01*
X140551Y50912D02*
X145000Y46464D01*
X144850Y42066D02*
X145000Y42215D01*
X140551Y50912D02*
Y57079D01*
X101245Y46333D02*
Y52201D01*
X99851Y44939D02*
X101245Y46333D01*
X100528Y52918D02*
X101245Y52201D01*
X100528Y52918D02*
Y53024D01*
X99851Y37500D02*
Y44939D01*
X85220Y53031D02*
X92908D01*
X108149Y72000D02*
X113602D01*
X105649Y69500D02*
X108149Y72000D01*
X99851Y69500D02*
X105649D01*
X101495Y65346D02*
X105649Y69500D01*
X124389Y49000D02*
X129530Y54141D01*
X114997Y47351D02*
X116646Y49000D01*
X124389D01*
X129530Y54141D02*
Y56057D01*
X100500Y55000D02*
X103000D01*
X109124Y48876D02*
X112975D01*
X103000Y55000D02*
X109124Y48876D01*
X100587Y57092D02*
X101495Y58000D01*
Y65346D01*
X100092Y56968D02*
X100216Y57092D01*
X100587D01*
D67*
X45251Y56000D02*
Y86616D01*
X64617Y105981D01*
X65587D01*
X66740Y107134D01*
X68512D01*
X60697Y48697D02*
X66000Y54000D01*
X67500D01*
X85000Y45649D02*
Y46749D01*
X38249Y20000D02*
Y20397D01*
X27250Y42999D02*
X27500Y43249D01*
X67500Y54000D02*
X72500Y59000D01*
X85000Y45649D02*
X91127Y39522D01*
X72500Y59000D02*
X83000Y69500D01*
D68*
X60697Y48697D02*
X62988Y46406D01*
X58322Y51072D02*
X60697Y48697D01*
X55000Y54394D02*
X58322Y51072D01*
X92874Y36728D02*
X93149Y37003D01*
X92377Y36728D02*
X92874D01*
X93149Y37003D02*
Y37500D01*
X92149Y36500D02*
X92377Y36728D01*
X79500Y36500D02*
X92149D01*
X70319Y45681D02*
X79500Y36500D01*
X64862Y45681D02*
X70319D01*
X64500Y46043D02*
X64862Y45681D01*
X55000Y54394D02*
Y54626D01*
X62988Y46406D02*
X64138D01*
X64500Y46043D01*
X45251Y56000D02*
X53858D01*
X55000Y54858D01*
X38000Y19751D02*
Y19779D01*
X27000Y20000D02*
X37779D01*
X38000Y19779D01*
X27250Y20250D02*
Y42999D01*
X27000Y20000D02*
X27250Y20250D01*
X17000Y43249D02*
X27500D01*
D69*
X144902Y91094D02*
D03*
X139390Y91094D02*
D03*
X144902Y96606D02*
D03*
X139390Y96606D02*
D03*
X144902Y102118D02*
D03*
X139390Y102118D02*
D03*
X147658Y93850D02*
D03*
X142146D02*
D03*
X136634Y93850D02*
D03*
X147658Y99362D02*
D03*
X136634Y99362D02*
D03*
X142146Y99362D02*
D03*
X41000Y46440D02*
D03*
X222500Y121500D02*
D03*
Y124440D02*
D03*
Y127380D02*
D03*
X41000Y43500D02*
D03*
Y40560D02*
D03*
D70*
X25205Y122488D02*
D03*
Y90992D02*
D03*
X312500Y121500D02*
D03*
X242255Y94666D02*
D03*
X143500Y27000D02*
D03*
X96500Y107000D02*
D03*
X66000Y65500D02*
D03*
X127000Y103000D02*
D03*
X132000Y67500D02*
D03*
X127500Y71500D02*
D03*
X123000Y75000D02*
D03*
X318500Y109000D02*
D03*
D71*
X178000Y20500D02*
D03*
X188000D02*
D03*
X198000D02*
D03*
X17000Y20000D02*
D03*
X152000Y20500D02*
D03*
X91500Y20000D02*
D03*
X101500D02*
D03*
X111500D02*
D03*
X121500D02*
D03*
X223500Y20500D02*
D03*
X233500D02*
D03*
X243500D02*
D03*
D72*
X208000D02*
D03*
X27000Y20000D02*
D03*
X162000Y20500D02*
D03*
X131500Y20000D02*
D03*
X253500Y20500D02*
D03*
D73*
X354000Y36000D02*
D03*
Y88500D02*
D03*
D74*
Y46000D02*
D03*
Y56000D02*
D03*
Y66000D02*
D03*
Y76000D02*
D03*
X294000D02*
D03*
Y66000D02*
D03*
Y56000D02*
D03*
Y46000D02*
D03*
Y36000D02*
D03*
X354000Y98500D02*
D03*
Y108500D02*
D03*
Y118500D02*
D03*
Y128500D02*
D03*
X294000D02*
D03*
Y118500D02*
D03*
Y108500D02*
D03*
Y98500D02*
D03*
Y88500D02*
D03*
D75*
X56000Y83500D02*
D03*
X43500Y99000D02*
D03*
X44000Y117000D02*
D03*
X143500Y123000D02*
D03*
X166500Y124000D02*
D03*
X166000Y74500D02*
D03*
X244000Y35000D02*
D03*
X215500Y43000D02*
D03*
X190000Y39500D02*
D03*
X122500Y39000D02*
D03*
X224500Y90000D02*
D03*
X205000Y58000D02*
D03*
X167000Y42500D02*
D03*
X121500Y126000D02*
D03*
X75000Y51500D02*
D03*
M02*
