G04*
G04 #@! TF.GenerationSoftware,Altium Limited,Altium Designer,24.7.2 (38)*
G04*
G04 Layer_Color=32768*
%FSLAX25Y25*%
%MOIN*%
G70*
G04*
G04 #@! TF.SameCoordinates,557B2C77-FFCE-42D9-A2FA-4134FEC932EB*
G04*
G04*
G04 #@! TF.FilePolarity,Positive*
G04*
G01*
G75*
%ADD10C,0.00787*%
%ADD77C,0.00197*%
D10*
X61350Y36201D02*
Y48799D01*
X67650D01*
Y36201D02*
Y48799D01*
X61350Y36201D02*
X67650D01*
X207889Y39256D02*
X221111D01*
Y31744D02*
Y39256D01*
X207889Y31744D02*
X221111D01*
X207889D02*
Y39256D01*
X193389D02*
X206611D01*
Y31744D02*
Y39256D01*
X193389Y31744D02*
X206611D01*
X193389D02*
Y39256D01*
X177650Y26173D02*
Y36827D01*
X171350Y26173D02*
X177650D01*
X171350D02*
Y36827D01*
X177650D01*
X89889Y65744D02*
Y73256D01*
Y65744D02*
X103111D01*
Y73256D01*
X89889D02*
X103111D01*
X86744Y152611D02*
X94256D01*
X86744Y139389D02*
Y152611D01*
Y139389D02*
X94256D01*
Y152611D01*
X83756Y124389D02*
Y137611D01*
X76244Y124389D02*
X83756D01*
X76244D02*
Y137611D01*
X83756D01*
X34795Y16149D02*
Y23851D01*
Y16149D02*
X48205D01*
Y23851D01*
X34795D02*
X48205D01*
X48705Y52149D02*
Y59851D01*
X35295D02*
X48705D01*
X35295Y52149D02*
Y59851D01*
Y52149D02*
X48705D01*
X51752Y42717D02*
X58248D01*
Y57284D01*
X51752D02*
X58248D01*
X51752Y42717D02*
Y57284D01*
X13149Y39795D02*
X20851D01*
Y53205D01*
X13149D02*
X20851D01*
X13149Y39795D02*
Y53205D01*
X23649Y39795D02*
X31351D01*
Y53205D01*
X23649D02*
X31351D01*
X23649Y39795D02*
Y53205D01*
X74744Y87889D02*
X82256D01*
Y101111D01*
X74744D02*
X82256D01*
X74744Y87889D02*
Y101111D01*
Y119111D02*
X82256D01*
X74744Y105889D02*
Y119111D01*
Y105889D02*
X82256D01*
Y119111D01*
X84744Y105889D02*
X92256D01*
Y119111D01*
X84744D02*
X92256D01*
X84744Y105889D02*
Y119111D01*
X96649Y124295D02*
X104351D01*
Y137705D01*
X96649Y137705D02*
X104351Y137705D01*
X96649Y124295D02*
Y137705D01*
X161350Y36827D02*
X167650D01*
X161350Y26173D02*
Y36827D01*
Y26173D02*
X167650D01*
Y36827D01*
X222389Y31744D02*
Y39256D01*
Y31744D02*
X235611D01*
Y39256D01*
X222389D02*
X235611D01*
X89889Y41256D02*
X103111D01*
Y33744D02*
Y41256D01*
X89889Y33744D02*
X103111D01*
X89889D02*
Y41256D01*
X81149Y43295D02*
X88851D01*
Y56705D01*
X81149D02*
X88851D01*
X81149Y43295D02*
Y56705D01*
X139705Y30649D02*
Y38351D01*
X126295D02*
X139705D01*
X126295D02*
X126295Y30649D01*
X139705D01*
X141111Y42244D02*
Y49756D01*
X127889D02*
X141111D01*
X127889Y42244D02*
Y49756D01*
Y42244D02*
X141111D01*
X263701Y27150D02*
X276299D01*
Y20850D02*
Y27150D01*
X263701Y20850D02*
X276299D01*
X263701D02*
Y27150D01*
Y45150D02*
X276299D01*
Y38850D02*
Y45150D01*
X263701Y38850D02*
X276299D01*
X263701D02*
Y45150D01*
Y36150D02*
X276299D01*
Y29850D02*
Y36150D01*
X263701Y29850D02*
X276299D01*
X263701D02*
Y36150D01*
Y54150D02*
X276299D01*
Y47850D02*
Y54150D01*
X263701Y47850D02*
X276299D01*
X263701D02*
Y54150D01*
Y63150D02*
X276299D01*
Y56850D02*
Y63150D01*
X263701Y56850D02*
X276299D01*
X263701D02*
Y63150D01*
Y72150D02*
X276299D01*
Y65850D02*
Y72150D01*
X263701Y65850D02*
X276299D01*
X263701D02*
Y72150D01*
Y81150D02*
X276299D01*
Y74850D02*
Y81150D01*
X263701Y74850D02*
X276299D01*
X263701D02*
Y81150D01*
X263657Y99150D02*
X276256D01*
Y92850D02*
Y99150D01*
X263657Y92850D02*
X276256D01*
X263657D02*
Y99150D01*
X263701Y90150D02*
X276299D01*
Y83850D02*
Y90150D01*
X263701Y83850D02*
X276299D01*
X263701D02*
Y90150D01*
Y128850D02*
Y135150D01*
Y128850D02*
X276299D01*
Y135150D01*
X263701D02*
X276299D01*
X263701Y144150D02*
X276299D01*
Y137850D02*
Y144150D01*
X263701Y137850D02*
X276299D01*
X263701D02*
Y144150D01*
Y126150D02*
X276299D01*
Y119850D02*
Y126150D01*
X263701Y119850D02*
X276299D01*
X263701D02*
Y126150D01*
Y117150D02*
X276299D01*
Y110850D02*
Y117150D01*
X263701Y110850D02*
X276299D01*
X263701D02*
Y117150D01*
Y108150D02*
X276299D01*
Y101850D02*
Y108150D01*
X263701Y101850D02*
X276299D01*
X263701D02*
Y108150D01*
X86649Y124295D02*
Y137705D01*
X94351Y137705D01*
Y124295D02*
Y137705D01*
X86649Y124295D02*
X94351D01*
X84795Y78149D02*
X98205D01*
X84795Y85851D02*
X84795Y78149D01*
X84795Y85851D02*
X98205D01*
Y78149D02*
Y85851D01*
X84795Y88149D02*
X98205D01*
X84795Y95851D02*
X84795Y88149D01*
X84795Y95851D02*
X98205D01*
Y88149D02*
Y95851D01*
X110744Y37389D02*
Y50611D01*
X118256D01*
Y37389D02*
Y50611D01*
X110744Y37389D02*
X118256D01*
D77*
X227894Y126972D02*
X257106D01*
X227894Y86028D02*
X257106D01*
X227894D02*
Y126972D01*
X257106Y86028D02*
Y126972D01*
X109665Y53142D02*
X186437D01*
X186437Y157472D02*
X186437Y53142D01*
X109665Y157473D02*
X186437Y157472D01*
X109665Y53142D02*
X109665Y157473D01*
X72646Y69142D02*
Y136858D01*
X-13575Y69142D02*
X72646D01*
X-13575D02*
Y136858D01*
X72646D01*
X172016Y-19382D02*
X213984D01*
Y24181D01*
X172016D02*
X213984D01*
X172016Y-19382D02*
Y24181D01*
X11016Y-19882D02*
Y23681D01*
X32984D01*
Y-19882D02*
Y23681D01*
X11016Y-19882D02*
X32984D01*
X192516Y98516D02*
X219484D01*
X192516D02*
Y120484D01*
X219484D01*
Y98516D02*
Y120484D01*
X192394Y89472D02*
X221606D01*
X192394Y48528D02*
X221606D01*
X192394D02*
Y89472D01*
X221606Y48528D02*
Y89472D01*
X90595Y61890D02*
X102406D01*
X90595Y48110D02*
Y61890D01*
Y48110D02*
X102406D01*
Y61890D01*
X99276Y78929D02*
X108724D01*
Y95071D01*
X99276D02*
X108724D01*
X99276Y78929D02*
Y95071D01*
X34642Y48953D02*
X36079D01*
Y50390D01*
X45921D01*
Y48953D02*
Y50390D01*
Y48953D02*
X47358D01*
X45921Y38047D02*
X47358D01*
X45921Y36610D02*
Y38047D01*
X36079Y36610D02*
X45921D01*
X36079D02*
Y38047D01*
X34642D02*
X36079D01*
X34642D02*
Y48953D01*
X47358Y38047D02*
Y48953D01*
X142213Y30713D02*
X158787D01*
X142213Y47287D02*
X158787D01*
X142213Y30713D02*
Y47287D01*
X158787Y30713D02*
Y47287D01*
X146016Y-19382D02*
Y24181D01*
X167984D01*
Y-19382D02*
Y24181D01*
X146016Y-19382D02*
X167984D01*
X85516Y-19882D02*
X137484D01*
Y23681D01*
X85516D02*
X137484D01*
X85516Y-19882D02*
Y23681D01*
X362386Y30213D02*
Y81787D01*
X285614D02*
X362386D01*
X285614Y30213D02*
Y81787D01*
Y30213D02*
X362386D01*
Y82713D02*
Y134287D01*
X285614D02*
X362386D01*
X285614Y82713D02*
Y134287D01*
Y82713D02*
X362386D01*
X217516Y-19382D02*
X259484D01*
Y24181D01*
X217516D02*
X259484D01*
X217516Y-19382D02*
Y24181D01*
M02*
