G04*
G04 #@! TF.GenerationSoftware,Altium Limited,Altium Designer,24.7.2 (38)*
G04*
G04 Layer_Color=128*
%FSLAX25Y25*%
%MOIN*%
G70*
G04*
G04 #@! TF.SameCoordinates,557B2C77-FFCE-42D9-A2FA-4134FEC932EB*
G04*
G04*
G04 #@! TF.FilePolarity,Positive*
G04*
G01*
G75*
%ADD23R,0.04724X0.04724*%
%ADD29R,0.04940X0.05733*%
%ADD30R,0.03937X0.04528*%
%ADD31R,0.05733X0.04940*%
G04:AMPARAMS|DCode=32|XSize=29.13mil|YSize=10.63mil|CornerRadius=0.37mil|HoleSize=0mil|Usage=FLASHONLY|Rotation=0.000|XOffset=0mil|YOffset=0mil|HoleType=Round|Shape=RoundedRectangle|*
%AMROUNDEDRECTD32*
21,1,0.02913,0.00989,0,0,0.0*
21,1,0.02839,0.01063,0,0,0.0*
1,1,0.00074,0.01420,-0.00494*
1,1,0.00074,-0.01420,-0.00494*
1,1,0.00074,-0.01420,0.00494*
1,1,0.00074,0.01420,0.00494*
%
%ADD32ROUNDEDRECTD32*%
%ADD36R,0.04724X0.04724*%
G36*
X224153Y124046D02*
X220845D01*
Y120109D01*
X224153D01*
Y124046D01*
D02*
G37*
G36*
Y128777D02*
X220844D01*
Y124834D01*
X224153D01*
Y128777D01*
D02*
G37*
D23*
X247500Y127543D02*
D03*
Y120457D02*
D03*
D29*
X221749Y110000D02*
D03*
X228251D02*
D03*
D30*
X237500Y122126D02*
D03*
Y112874D02*
D03*
D31*
X210500Y115749D02*
D03*
Y122251D02*
D03*
X200000Y115749D02*
D03*
Y122251D02*
D03*
D32*
X218483Y120503D02*
D03*
Y122472D02*
D03*
Y124440D02*
D03*
Y126409D02*
D03*
Y128377D02*
D03*
X226517D02*
D03*
Y126409D02*
D03*
Y124440D02*
D03*
Y122472D02*
D03*
Y120503D02*
D03*
D36*
X213457Y138000D02*
D03*
X220543D02*
D03*
Y147500D02*
D03*
X213457D02*
D03*
M02*
