G04*
G04 #@! TF.GenerationSoftware,Altium Limited,Altium Designer,24.7.2 (38)*
G04*
G04 Layer_Color=32896*
%FSLAX25Y25*%
%MOIN*%
G70*
G04*
G04 #@! TF.SameCoordinates,557B2C77-FFCE-42D9-A2FA-4134FEC932EB*
G04*
G04*
G04 #@! TF.FilePolarity,Positive*
G04*
G01*
G75*
%ADD10C,0.00787*%
G36*
X213821Y140526D02*
X213882Y140521D01*
X213941Y140512D01*
X213995Y140499D01*
X214046Y140484D01*
X214093Y140468D01*
X214135Y140452D01*
X214175Y140435D01*
X214210Y140417D01*
X214241Y140401D01*
X214266Y140384D01*
X214288Y140370D01*
X214305Y140359D01*
X214317Y140348D01*
X214325Y140342D01*
X214327Y140340D01*
X214365Y140304D01*
X214397Y140264D01*
X214428Y140222D01*
X214454Y140179D01*
X214477Y140133D01*
X214498Y140087D01*
X214514Y140044D01*
X214528Y140000D01*
X214539Y139960D01*
X214548Y139922D01*
X214556Y139887D01*
X214561Y139858D01*
X214567Y139834D01*
X214568Y139816D01*
Y139809D01*
X214570Y139804D01*
Y139802D01*
Y139800D01*
X214252Y139767D01*
X214250Y139811D01*
X214246Y139851D01*
X214239Y139889D01*
X214232Y139926D01*
X214221Y139958D01*
X214210Y139987D01*
X214197Y140016D01*
X214184Y140040D01*
X214174Y140062D01*
X214161Y140082D01*
X214150Y140098D01*
X214139Y140113D01*
X214132Y140122D01*
X214124Y140131D01*
X214121Y140135D01*
X214119Y140137D01*
X214093Y140160D01*
X214064Y140180D01*
X214035Y140199D01*
X214006Y140215D01*
X213975Y140228D01*
X213946Y140239D01*
X213917Y140248D01*
X213890Y140255D01*
X213862Y140260D01*
X213839Y140264D01*
X213817Y140268D01*
X213797Y140269D01*
X213782Y140271D01*
X213760D01*
X213722Y140269D01*
X213686Y140266D01*
X213651Y140260D01*
X213618Y140251D01*
X213589Y140242D01*
X213560Y140231D01*
X213535Y140220D01*
X213511Y140208D01*
X213491Y140197D01*
X213473Y140184D01*
X213457Y140173D01*
X213444Y140164D01*
X213433Y140155D01*
X213426Y140149D01*
X213422Y140146D01*
X213420Y140144D01*
X213397Y140120D01*
X213376Y140095D01*
X213358Y140069D01*
X213344Y140042D01*
X213331Y140016D01*
X213320Y139991D01*
X213311Y139966D01*
X213304Y139942D01*
X213298Y139920D01*
X213295Y139900D01*
X213291Y139882D01*
X213289Y139866D01*
X213287Y139853D01*
Y139844D01*
Y139836D01*
Y139834D01*
X213289Y139802D01*
X213293Y139769D01*
X213300Y139736D01*
X213309Y139704D01*
X213333Y139640D01*
X213347Y139611D01*
X213360Y139583D01*
X213373Y139558D01*
X213387Y139534D01*
X213398Y139514D01*
X213409Y139496D01*
X213420Y139483D01*
X213427Y139472D01*
X213431Y139465D01*
X213433Y139463D01*
X213462Y139425D01*
X213498Y139383D01*
X213537Y139341D01*
X213580Y139298D01*
X213624Y139252D01*
X213671Y139208D01*
X213717Y139165D01*
X213764Y139123D01*
X213808Y139083D01*
X213850Y139047D01*
X213886Y139012D01*
X213921Y138985D01*
X213948Y138961D01*
X213959Y138952D01*
X213968Y138943D01*
X213975Y138937D01*
X213981Y138932D01*
X213984Y138930D01*
X213986Y138928D01*
X214033Y138888D01*
X214079Y138850D01*
X214121Y138813D01*
X214161Y138779D01*
X214197Y138744D01*
X214230Y138713D01*
X214259Y138684D01*
X214286Y138657D01*
X214312Y138633D01*
X214332Y138611D01*
X214350Y138593D01*
X214365Y138577D01*
X214376Y138564D01*
X214383Y138555D01*
X214388Y138550D01*
X214390Y138548D01*
X214439Y138486D01*
X214481Y138426D01*
X214516Y138369D01*
X214532Y138344D01*
X214545Y138319D01*
X214556Y138297D01*
X214567Y138277D01*
X214576Y138258D01*
X214581Y138242D01*
X214587Y138229D01*
X214590Y138220D01*
X214594Y138215D01*
Y138213D01*
X214607Y138175D01*
X214616Y138136D01*
X214621Y138100D01*
X214625Y138069D01*
X214627Y138040D01*
X214629Y138029D01*
Y138018D01*
Y138011D01*
Y138005D01*
Y138002D01*
Y138000D01*
X212965D01*
Y138297D01*
X214199D01*
X214179Y138328D01*
X214157Y138358D01*
X214135Y138386D01*
X214115Y138411D01*
X214097Y138431D01*
X214083Y138448D01*
X214073Y138459D01*
X214070Y138462D01*
X214054Y138480D01*
X214032Y138500D01*
X214008Y138522D01*
X213981Y138548D01*
X213951Y138573D01*
X213922Y138601D01*
X213861Y138653D01*
X213831Y138679D01*
X213804Y138702D01*
X213780Y138724D01*
X213757Y138742D01*
X213739Y138759D01*
X213726Y138770D01*
X213717Y138779D01*
X213713Y138781D01*
X213653Y138832D01*
X213597Y138881D01*
X213546Y138926D01*
X213498Y138968D01*
X213455Y139008D01*
X213417Y139045D01*
X213380Y139077D01*
X213349Y139107D01*
X213322Y139134D01*
X213300Y139157D01*
X213280Y139178D01*
X213264Y139194D01*
X213251Y139207D01*
X213244Y139216D01*
X213238Y139221D01*
X213236Y139223D01*
X213211Y139254D01*
X213185Y139283D01*
X213163Y139312D01*
X213143Y139339D01*
X213107Y139392D01*
X213092Y139416D01*
X213080Y139438D01*
X213067Y139458D01*
X213058Y139476D01*
X213049Y139492D01*
X213043Y139505D01*
X213038Y139516D01*
X213034Y139523D01*
X213031Y139529D01*
Y139531D01*
X213011Y139585D01*
X212994Y139638D01*
X212983Y139689D01*
X212976Y139734D01*
X212974Y139754D01*
X212972Y139773D01*
X212971Y139787D01*
X212969Y139802D01*
Y139813D01*
Y139820D01*
Y139825D01*
Y139827D01*
X212971Y139882D01*
X212978Y139935D01*
X212989Y139984D01*
X213001Y140031D01*
X213018Y140075D01*
X213036Y140117D01*
X213056Y140155D01*
X213074Y140189D01*
X213094Y140220D01*
X213114Y140248D01*
X213133Y140271D01*
X213149Y140289D01*
X213162Y140306D01*
X213173Y140317D01*
X213180Y140324D01*
X213182Y140326D01*
X213224Y140362D01*
X213267Y140393D01*
X213313Y140419D01*
X213360Y140442D01*
X213407Y140462D01*
X213457Y140479D01*
X213502Y140491D01*
X213547Y140502D01*
X213589Y140512D01*
X213629Y140517D01*
X213664Y140523D01*
X213695Y140524D01*
X213720Y140526D01*
X213739Y140528D01*
X213755D01*
X213821Y140526D01*
D02*
G37*
G36*
X217000Y138000D02*
X216667D01*
Y139119D01*
X216236D01*
X216197Y139117D01*
X216165Y139116D01*
X216139Y139114D01*
X216121Y139110D01*
X216106Y139108D01*
X216097Y139107D01*
X216095D01*
X216066Y139097D01*
X216039Y139088D01*
X216014Y139076D01*
X215992Y139065D01*
X215972Y139056D01*
X215957Y139047D01*
X215948Y139041D01*
X215945Y139039D01*
X215915Y139019D01*
X215886Y138994D01*
X215859Y138965D01*
X215832Y138937D01*
X215810Y138912D01*
X215792Y138890D01*
X215784Y138881D01*
X215779Y138875D01*
X215777Y138872D01*
X215775Y138870D01*
X215757Y138846D01*
X215737Y138821D01*
X215697Y138766D01*
X215657Y138708D01*
X215619Y138652D01*
X215602Y138626D01*
X215586Y138602D01*
X215571Y138581D01*
X215559Y138560D01*
X215549Y138546D01*
X215542Y138533D01*
X215537Y138526D01*
X215535Y138524D01*
X215202Y138000D01*
X214785D01*
X215220Y138684D01*
X215269Y138757D01*
X215295Y138790D01*
X215318Y138823D01*
X215342Y138852D01*
X215366Y138879D01*
X215388Y138905D01*
X215407Y138928D01*
X215426Y138950D01*
X215444Y138968D01*
X215458Y138983D01*
X215471Y138997D01*
X215482Y139006D01*
X215489Y139015D01*
X215495Y139019D01*
X215497Y139021D01*
X215526Y139045D01*
X215557Y139067D01*
X215590Y139088D01*
X215622Y139107D01*
X215651Y139123D01*
X215664Y139130D01*
X215675Y139136D01*
X215684Y139141D01*
X215691Y139143D01*
X215695Y139147D01*
X215697D01*
X215631Y139157D01*
X215569Y139170D01*
X215513Y139187D01*
X215460Y139203D01*
X215413Y139223D01*
X215368Y139241D01*
X215329Y139261D01*
X215293Y139281D01*
X215262Y139301D01*
X215236Y139320D01*
X215213Y139336D01*
X215195Y139350D01*
X215180Y139363D01*
X215169Y139372D01*
X215164Y139378D01*
X215162Y139380D01*
X215131Y139414D01*
X215104Y139452D01*
X215080Y139489D01*
X215060Y139527D01*
X215044Y139565D01*
X215029Y139603D01*
X215018Y139640D01*
X215009Y139674D01*
X215002Y139707D01*
X214996Y139736D01*
X214993Y139763D01*
X214989Y139785D01*
Y139805D01*
X214987Y139820D01*
Y139827D01*
Y139831D01*
X214989Y139869D01*
X214991Y139907D01*
X214996Y139944D01*
X215003Y139978D01*
X215011Y140011D01*
X215020Y140042D01*
X215031Y140071D01*
X215040Y140098D01*
X215049Y140122D01*
X215060Y140144D01*
X215069Y140164D01*
X215076Y140180D01*
X215084Y140193D01*
X215087Y140202D01*
X215091Y140208D01*
X215093Y140209D01*
X215113Y140240D01*
X215135Y140269D01*
X215158Y140295D01*
X215180Y140321D01*
X215204Y140342D01*
X215227Y140362D01*
X215251Y140379D01*
X215273Y140395D01*
X215293Y140408D01*
X215313Y140419D01*
X215329Y140430D01*
X215344Y140437D01*
X215357Y140442D01*
X215366Y140446D01*
X215371Y140450D01*
X215373D01*
X215407Y140462D01*
X215446Y140473D01*
X215486Y140482D01*
X215526Y140490D01*
X215611Y140502D01*
X215653Y140506D01*
X215693Y140510D01*
X215733Y140513D01*
X215768Y140515D01*
X215801Y140517D01*
X215830D01*
X215852Y140519D01*
X217000D01*
Y138000D01*
D02*
G37*
G36*
X212614Y140189D02*
X211380D01*
X211424Y140138D01*
X211467Y140084D01*
X211549Y139973D01*
X211587Y139916D01*
X211626Y139862D01*
X211660Y139809D01*
X211691Y139758D01*
X211720Y139711D01*
X211748Y139667D01*
X211769Y139627D01*
X211789Y139594D01*
X211804Y139567D01*
X211811Y139556D01*
X211817Y139547D01*
X211820Y139538D01*
X211824Y139532D01*
X211826Y139531D01*
Y139529D01*
X211864Y139456D01*
X211899Y139381D01*
X211933Y139309D01*
X211964Y139238D01*
X211991Y139168D01*
X212019Y139101D01*
X212042Y139037D01*
X212064Y138977D01*
X212082Y138921D01*
X212099Y138872D01*
X212113Y138826D01*
X212124Y138790D01*
X212130Y138774D01*
X212133Y138759D01*
X212137Y138746D01*
X212141Y138735D01*
X212142Y138728D01*
X212144Y138723D01*
X212146Y138719D01*
Y138717D01*
X212166Y138641D01*
X212182Y138566D01*
X212197Y138495D01*
X212212Y138428D01*
X212223Y138364D01*
X212232Y138306D01*
X212239Y138251D01*
X212244Y138200D01*
X212250Y138156D01*
X212253Y138116D01*
X212257Y138082D01*
X212259Y138053D01*
Y138031D01*
X212261Y138013D01*
Y138004D01*
Y138000D01*
X211942D01*
X211937Y138069D01*
X211929Y138138D01*
X211922Y138204D01*
X211913Y138266D01*
X211904Y138326D01*
X211893Y138384D01*
X211884Y138437D01*
X211873Y138486D01*
X211864Y138531D01*
X211855Y138571D01*
X211846Y138606D01*
X211839Y138637D01*
X211833Y138661D01*
X211828Y138677D01*
X211826Y138688D01*
X211824Y138692D01*
X211799Y138775D01*
X211771Y138859D01*
X211744Y138939D01*
X211713Y139017D01*
X211684Y139094D01*
X211653Y139165D01*
X211624Y139234D01*
X211595Y139298D01*
X211567Y139356D01*
X211542Y139407D01*
X211518Y139452D01*
X211509Y139474D01*
X211498Y139492D01*
X211491Y139509D01*
X211482Y139523D01*
X211476Y139536D01*
X211471Y139547D01*
X211465Y139554D01*
X211462Y139560D01*
X211460Y139563D01*
Y139565D01*
X211416Y139643D01*
X211371Y139716D01*
X211329Y139785D01*
X211285Y139851D01*
X211245Y139911D01*
X211205Y139967D01*
X211167Y140018D01*
X211132Y140064D01*
X211101Y140106D01*
X211072Y140142D01*
X211047Y140173D01*
X211025Y140199D01*
X211007Y140218D01*
X210994Y140235D01*
X210985Y140242D01*
X210983Y140246D01*
Y140486D01*
X212614D01*
Y140189D01*
D02*
G37*
G36*
X219762Y112568D02*
X219824Y112563D01*
X219882Y112553D01*
X219937Y112541D01*
X219988Y112526D01*
X220035Y112510D01*
X220077Y112493D01*
X220117Y112477D01*
X220152Y112459D01*
X220182Y112442D01*
X220208Y112426D01*
X220230Y112411D01*
X220246Y112400D01*
X220259Y112390D01*
X220266Y112384D01*
X220268Y112382D01*
X220306Y112346D01*
X220339Y112306D01*
X220370Y112264D01*
X220395Y112220D01*
X220419Y112175D01*
X220439Y112129D01*
X220456Y112086D01*
X220470Y112042D01*
X220481Y112002D01*
X220490Y111964D01*
X220497Y111929D01*
X220503Y111900D01*
X220508Y111876D01*
X220510Y111858D01*
Y111851D01*
X220512Y111845D01*
Y111844D01*
Y111842D01*
X220193Y111809D01*
X220192Y111853D01*
X220188Y111893D01*
X220181Y111931D01*
X220173Y111967D01*
X220163Y112000D01*
X220152Y112029D01*
X220139Y112058D01*
X220126Y112082D01*
X220115Y112104D01*
X220102Y112124D01*
X220092Y112140D01*
X220081Y112155D01*
X220073Y112164D01*
X220066Y112173D01*
X220062Y112177D01*
X220061Y112179D01*
X220035Y112202D01*
X220006Y112222D01*
X219977Y112240D01*
X219948Y112257D01*
X219917Y112269D01*
X219888Y112280D01*
X219859Y112290D01*
X219831Y112297D01*
X219804Y112302D01*
X219780Y112306D01*
X219758Y112310D01*
X219738Y112311D01*
X219724Y112313D01*
X219702D01*
X219664Y112311D01*
X219627Y112308D01*
X219593Y112302D01*
X219560Y112293D01*
X219531Y112284D01*
X219502Y112273D01*
X219476Y112262D01*
X219453Y112250D01*
X219433Y112239D01*
X219414Y112226D01*
X219398Y112215D01*
X219385Y112206D01*
X219374Y112197D01*
X219367Y112191D01*
X219363Y112188D01*
X219362Y112186D01*
X219338Y112162D01*
X219318Y112137D01*
X219300Y112111D01*
X219285Y112084D01*
X219272Y112058D01*
X219262Y112033D01*
X219252Y112007D01*
X219245Y111984D01*
X219240Y111962D01*
X219236Y111942D01*
X219233Y111924D01*
X219231Y111907D01*
X219229Y111895D01*
Y111885D01*
Y111878D01*
Y111876D01*
X219231Y111844D01*
X219234Y111811D01*
X219242Y111778D01*
X219251Y111745D01*
X219274Y111682D01*
X219289Y111653D01*
X219302Y111625D01*
X219314Y111600D01*
X219329Y111576D01*
X219340Y111556D01*
X219351Y111538D01*
X219362Y111525D01*
X219369Y111514D01*
X219373Y111507D01*
X219374Y111505D01*
X219404Y111467D01*
X219440Y111425D01*
X219478Y111383D01*
X219522Y111339D01*
X219566Y111294D01*
X219613Y111250D01*
X219658Y111207D01*
X219706Y111165D01*
X219749Y111125D01*
X219791Y111088D01*
X219828Y111054D01*
X219862Y111026D01*
X219889Y111003D01*
X219900Y110994D01*
X219910Y110985D01*
X219917Y110979D01*
X219922Y110974D01*
X219926Y110972D01*
X219928Y110970D01*
X219975Y110930D01*
X220021Y110892D01*
X220062Y110855D01*
X220102Y110821D01*
X220139Y110786D01*
X220172Y110755D01*
X220201Y110726D01*
X220228Y110699D01*
X220253Y110675D01*
X220273Y110653D01*
X220292Y110635D01*
X220306Y110619D01*
X220317Y110606D01*
X220324Y110597D01*
X220330Y110591D01*
X220332Y110590D01*
X220381Y110528D01*
X220423Y110468D01*
X220457Y110411D01*
X220474Y110386D01*
X220486Y110360D01*
X220497Y110338D01*
X220508Y110319D01*
X220517Y110300D01*
X220523Y110284D01*
X220528Y110271D01*
X220532Y110262D01*
X220536Y110257D01*
Y110255D01*
X220548Y110216D01*
X220557Y110178D01*
X220563Y110142D01*
X220567Y110111D01*
X220568Y110082D01*
X220570Y110071D01*
Y110060D01*
Y110053D01*
Y110047D01*
Y110044D01*
Y110042D01*
X218907D01*
Y110338D01*
X220141D01*
X220121Y110369D01*
X220099Y110400D01*
X220077Y110428D01*
X220057Y110453D01*
X220039Y110473D01*
X220024Y110489D01*
X220015Y110501D01*
X220011Y110504D01*
X219995Y110522D01*
X219973Y110542D01*
X219950Y110564D01*
X219922Y110590D01*
X219893Y110615D01*
X219864Y110642D01*
X219802Y110695D01*
X219773Y110721D01*
X219746Y110744D01*
X219722Y110766D01*
X219698Y110784D01*
X219680Y110801D01*
X219668Y110812D01*
X219658Y110821D01*
X219655Y110823D01*
X219595Y110874D01*
X219538Y110923D01*
X219487Y110968D01*
X219440Y111010D01*
X219396Y111050D01*
X219358Y111086D01*
X219322Y111119D01*
X219291Y111148D01*
X219263Y111176D01*
X219242Y111199D01*
X219221Y111219D01*
X219205Y111236D01*
X219192Y111249D01*
X219185Y111258D01*
X219180Y111263D01*
X219178Y111265D01*
X219152Y111296D01*
X219127Y111325D01*
X219105Y111354D01*
X219085Y111381D01*
X219049Y111434D01*
X219034Y111458D01*
X219021Y111480D01*
X219009Y111500D01*
X219000Y111518D01*
X218990Y111534D01*
X218985Y111547D01*
X218980Y111558D01*
X218976Y111565D01*
X218972Y111571D01*
Y111572D01*
X218952Y111627D01*
X218936Y111680D01*
X218925Y111731D01*
X218918Y111776D01*
X218916Y111796D01*
X218914Y111814D01*
X218912Y111829D01*
X218910Y111844D01*
Y111855D01*
Y111862D01*
Y111867D01*
Y111869D01*
X218912Y111924D01*
X218919Y111977D01*
X218930Y112026D01*
X218943Y112073D01*
X218959Y112117D01*
X218978Y112159D01*
X218998Y112197D01*
X219016Y112231D01*
X219036Y112262D01*
X219056Y112290D01*
X219074Y112313D01*
X219091Y112331D01*
X219103Y112348D01*
X219114Y112359D01*
X219122Y112366D01*
X219123Y112368D01*
X219165Y112404D01*
X219209Y112435D01*
X219254Y112461D01*
X219302Y112484D01*
X219349Y112504D01*
X219398Y112521D01*
X219444Y112533D01*
X219489Y112544D01*
X219531Y112553D01*
X219571Y112559D01*
X219606Y112564D01*
X219637Y112566D01*
X219662Y112568D01*
X219680Y112570D01*
X219697D01*
X219762Y112568D01*
D02*
G37*
G36*
X221540Y112539D02*
X221558Y112508D01*
X221600Y112448D01*
X221646Y112391D01*
X221670Y112364D01*
X221691Y112339D01*
X221713Y112317D01*
X221733Y112295D01*
X221751Y112277D01*
X221768Y112260D01*
X221780Y112248D01*
X221790Y112239D01*
X221797Y112233D01*
X221799Y112231D01*
X221873Y112169D01*
X221952Y112113D01*
X222028Y112062D01*
X222064Y112040D01*
X222099Y112018D01*
X222130Y112000D01*
X222159Y111984D01*
X222186Y111969D01*
X222208Y111958D01*
X222226Y111949D01*
X222241Y111942D01*
X222248Y111938D01*
X222252Y111936D01*
Y111638D01*
X222197Y111660D01*
X222141Y111685D01*
X222086Y111711D01*
X222035Y111736D01*
X222013Y111749D01*
X221992Y111760D01*
X221973Y111771D01*
X221959Y111780D01*
X221946Y111785D01*
X221935Y111791D01*
X221930Y111794D01*
X221928Y111796D01*
X221862Y111836D01*
X221833Y111856D01*
X221804Y111874D01*
X221779Y111895D01*
X221755Y111911D01*
X221733Y111929D01*
X221711Y111944D01*
X221695Y111958D01*
X221678Y111971D01*
X221664Y111984D01*
X221653Y111993D01*
X221644Y112000D01*
X221638Y112006D01*
X221635Y112009D01*
X221633Y112011D01*
Y110042D01*
X221324D01*
Y112570D01*
X221524D01*
X221540Y112539D01*
D02*
G37*
G36*
X223873Y112602D02*
X223934Y112597D01*
X223992Y112590D01*
X224048Y112581D01*
X224101Y112570D01*
X224152Y112555D01*
X224199Y112542D01*
X224243Y112528D01*
X224281Y112513D01*
X224318Y112501D01*
X224348Y112488D01*
X224374Y112475D01*
X224396Y112466D01*
X224410Y112459D01*
X224419Y112453D01*
X224423Y112452D01*
X224474Y112421D01*
X224521Y112388D01*
X224565Y112353D01*
X224607Y112317D01*
X224645Y112280D01*
X224680Y112244D01*
X224712Y112206D01*
X224740Y112171D01*
X224765Y112138D01*
X224789Y112106D01*
X224807Y112078D01*
X224823Y112055D01*
X224834Y112033D01*
X224844Y112018D01*
X224849Y112009D01*
X224851Y112006D01*
X224876Y111949D01*
X224900Y111893D01*
X224920Y111835D01*
X224936Y111776D01*
X224951Y111718D01*
X224964Y111660D01*
X224973Y111605D01*
X224982Y111554D01*
X224987Y111505D01*
X224993Y111460D01*
X224995Y111420D01*
X224998Y111385D01*
Y111358D01*
X225000Y111347D01*
Y111338D01*
Y111330D01*
Y111325D01*
Y111321D01*
Y111319D01*
X224998Y111252D01*
X224995Y111187D01*
X224987Y111123D01*
X224980Y111063D01*
X224969Y111003D01*
X224958Y110948D01*
X224945Y110895D01*
X224933Y110846D01*
X224922Y110803D01*
X224909Y110763D01*
X224898Y110728D01*
X224887Y110699D01*
X224880Y110675D01*
X224873Y110659D01*
X224869Y110648D01*
X224867Y110646D01*
Y110644D01*
X224842Y110588D01*
X224813Y110533D01*
X224782Y110484D01*
X224751Y110437D01*
X224718Y110395D01*
X224685Y110355D01*
X224654Y110320D01*
X224623Y110287D01*
X224594Y110258D01*
X224567Y110235D01*
X224543Y110213D01*
X224521Y110196D01*
X224503Y110184D01*
X224490Y110173D01*
X224483Y110167D01*
X224480Y110166D01*
X224430Y110136D01*
X224378Y110111D01*
X224323Y110089D01*
X224268Y110069D01*
X224214Y110055D01*
X224157Y110040D01*
X224105Y110029D01*
X224052Y110020D01*
X224005Y110014D01*
X223959Y110009D01*
X223919Y110005D01*
X223884Y110002D01*
X223857D01*
X223844Y110000D01*
X223817D01*
X223744Y110002D01*
X223675Y110009D01*
X223610Y110020D01*
X223546Y110033D01*
X223488Y110049D01*
X223433Y110067D01*
X223382Y110087D01*
X223337Y110107D01*
X223295Y110127D01*
X223258Y110147D01*
X223226Y110166D01*
X223200Y110182D01*
X223178Y110195D01*
X223164Y110206D01*
X223155Y110213D01*
X223151Y110215D01*
X223102Y110258D01*
X223056Y110304D01*
X223014Y110353D01*
X222976Y110404D01*
X222942Y110457D01*
X222911Y110508D01*
X222883Y110559D01*
X222860Y110610D01*
X222838Y110657D01*
X222820Y110701D01*
X222805Y110739D01*
X222792Y110774D01*
X222783Y110801D01*
X222780Y110813D01*
X222778Y110823D01*
X222776Y110830D01*
X222774Y110835D01*
X222772Y110839D01*
Y110841D01*
X223105Y110924D01*
X223120Y110866D01*
X223136Y110813D01*
X223155Y110763D01*
X223176Y110717D01*
X223196Y110673D01*
X223220Y110633D01*
X223242Y110599D01*
X223264Y110566D01*
X223284Y110539D01*
X223304Y110513D01*
X223322Y110493D01*
X223338Y110477D01*
X223351Y110462D01*
X223360Y110453D01*
X223368Y110448D01*
X223369Y110446D01*
X223408Y110419D01*
X223446Y110393D01*
X223486Y110371D01*
X223526Y110353D01*
X223566Y110338D01*
X223606Y110326D01*
X223644Y110315D01*
X223680Y110306D01*
X223713Y110298D01*
X223746Y110295D01*
X223773Y110291D01*
X223797Y110287D01*
X223817D01*
X223832Y110286D01*
X223844D01*
X223886Y110287D01*
X223928Y110291D01*
X223968Y110297D01*
X224008Y110304D01*
X224044Y110313D01*
X224081Y110324D01*
X224114Y110333D01*
X224145Y110346D01*
X224172Y110357D01*
X224197Y110366D01*
X224219Y110377D01*
X224237Y110386D01*
X224252Y110393D01*
X224263Y110398D01*
X224270Y110402D01*
X224272Y110404D01*
X224308Y110428D01*
X224341Y110453D01*
X224372Y110480D01*
X224401Y110510D01*
X224427Y110539D01*
X224450Y110570D01*
X224472Y110599D01*
X224492Y110626D01*
X224509Y110653D01*
X224523Y110679D01*
X224536Y110703D01*
X224545Y110722D01*
X224554Y110739D01*
X224560Y110750D01*
X224561Y110759D01*
X224563Y110761D01*
X224580Y110806D01*
X224594Y110854D01*
X224607Y110901D01*
X224616Y110950D01*
X224634Y111043D01*
X224640Y111088D01*
X224645Y111132D01*
X224649Y111170D01*
X224651Y111207D01*
X224652Y111239D01*
X224654Y111267D01*
X224656Y111290D01*
Y111307D01*
Y111318D01*
Y111321D01*
X224654Y111369D01*
X224652Y111414D01*
X224643Y111501D01*
X224638Y111543D01*
X224631Y111583D01*
X224623Y111622D01*
X224616Y111656D01*
X224609Y111689D01*
X224603Y111718D01*
X224596Y111743D01*
X224590Y111765D01*
X224585Y111782D01*
X224581Y111794D01*
X224578Y111804D01*
Y111805D01*
X224561Y111849D01*
X224543Y111889D01*
X224523Y111927D01*
X224501Y111962D01*
X224480Y111996D01*
X224458Y112027D01*
X224434Y112055D01*
X224412Y112080D01*
X224390Y112102D01*
X224370Y112122D01*
X224352Y112138D01*
X224336Y112153D01*
X224323Y112164D01*
X224314Y112173D01*
X224307Y112177D01*
X224305Y112179D01*
X224267Y112204D01*
X224226Y112224D01*
X224186Y112244D01*
X224147Y112260D01*
X224105Y112273D01*
X224065Y112284D01*
X224026Y112293D01*
X223988Y112300D01*
X223954Y112308D01*
X223921Y112311D01*
X223892Y112315D01*
X223866Y112317D01*
X223846Y112319D01*
X223819D01*
X223772Y112317D01*
X223728Y112313D01*
X223686Y112308D01*
X223646Y112299D01*
X223610Y112290D01*
X223575Y112279D01*
X223544Y112268D01*
X223515Y112257D01*
X223489Y112244D01*
X223466Y112233D01*
X223446Y112222D01*
X223429Y112213D01*
X223417Y112204D01*
X223408Y112198D01*
X223402Y112195D01*
X223400Y112193D01*
X223369Y112168D01*
X223340Y112140D01*
X223315Y112109D01*
X223289Y112078D01*
X223266Y112044D01*
X223246Y112011D01*
X223226Y111978D01*
X223209Y111945D01*
X223195Y111915D01*
X223180Y111885D01*
X223169Y111860D01*
X223160Y111838D01*
X223153Y111818D01*
X223147Y111805D01*
X223146Y111796D01*
X223144Y111793D01*
X222816Y111869D01*
X222836Y111933D01*
X222862Y111993D01*
X222887Y112049D01*
X222916Y112102D01*
X222945Y112149D01*
X222974Y112195D01*
X223005Y112235D01*
X223035Y112271D01*
X223064Y112304D01*
X223089Y112331D01*
X223113Y112357D01*
X223134Y112375D01*
X223151Y112391D01*
X223165Y112402D01*
X223173Y112410D01*
X223176Y112411D01*
X223226Y112446D01*
X223276Y112475D01*
X223331Y112501D01*
X223384Y112522D01*
X223437Y112542D01*
X223489Y112557D01*
X223540Y112570D01*
X223590Y112581D01*
X223637Y112588D01*
X223679Y112593D01*
X223715Y112599D01*
X223748Y112601D01*
X223775Y112602D01*
X223786Y112604D01*
X223812D01*
X223873Y112602D01*
D02*
G37*
G36*
X209248Y118998D02*
X209313Y118995D01*
X209377Y118987D01*
X209437Y118980D01*
X209497Y118969D01*
X209552Y118958D01*
X209605Y118946D01*
X209654Y118933D01*
X209697Y118922D01*
X209737Y118909D01*
X209772Y118898D01*
X209801Y118887D01*
X209825Y118880D01*
X209841Y118873D01*
X209852Y118869D01*
X209854Y118867D01*
X209856D01*
X209912Y118842D01*
X209967Y118813D01*
X210016Y118782D01*
X210063Y118751D01*
X210105Y118718D01*
X210145Y118685D01*
X210180Y118654D01*
X210212Y118623D01*
X210242Y118594D01*
X210265Y118567D01*
X210287Y118543D01*
X210303Y118521D01*
X210316Y118503D01*
X210327Y118491D01*
X210333Y118483D01*
X210334Y118480D01*
X210364Y118430D01*
X210389Y118378D01*
X210411Y118323D01*
X210431Y118268D01*
X210445Y118214D01*
X210460Y118157D01*
X210471Y118105D01*
X210480Y118052D01*
X210486Y118005D01*
X210491Y117959D01*
X210495Y117919D01*
X210498Y117884D01*
Y117857D01*
X210500Y117844D01*
Y117817D01*
X210498Y117744D01*
X210491Y117675D01*
X210480Y117610D01*
X210467Y117546D01*
X210451Y117488D01*
X210433Y117433D01*
X210413Y117382D01*
X210393Y117337D01*
X210373Y117295D01*
X210353Y117258D01*
X210334Y117226D01*
X210318Y117200D01*
X210305Y117178D01*
X210294Y117164D01*
X210287Y117155D01*
X210285Y117151D01*
X210242Y117102D01*
X210196Y117056D01*
X210147Y117014D01*
X210096Y116976D01*
X210043Y116942D01*
X209992Y116911D01*
X209941Y116883D01*
X209890Y116860D01*
X209843Y116838D01*
X209799Y116820D01*
X209761Y116805D01*
X209727Y116792D01*
X209699Y116783D01*
X209686Y116780D01*
X209677Y116778D01*
X209670Y116776D01*
X209665Y116774D01*
X209661Y116772D01*
X209659D01*
X209576Y117105D01*
X209634Y117120D01*
X209686Y117136D01*
X209737Y117155D01*
X209783Y117176D01*
X209827Y117196D01*
X209867Y117220D01*
X209901Y117242D01*
X209934Y117264D01*
X209961Y117284D01*
X209987Y117304D01*
X210007Y117322D01*
X210023Y117338D01*
X210038Y117351D01*
X210047Y117360D01*
X210052Y117367D01*
X210054Y117369D01*
X210081Y117408D01*
X210107Y117446D01*
X210129Y117486D01*
X210147Y117526D01*
X210161Y117566D01*
X210174Y117606D01*
X210185Y117644D01*
X210194Y117681D01*
X210202Y117713D01*
X210205Y117746D01*
X210209Y117773D01*
X210212Y117797D01*
Y117817D01*
X210214Y117832D01*
Y117844D01*
X210212Y117886D01*
X210209Y117928D01*
X210203Y117968D01*
X210196Y118008D01*
X210187Y118045D01*
X210176Y118081D01*
X210167Y118114D01*
X210154Y118145D01*
X210143Y118172D01*
X210134Y118197D01*
X210123Y118219D01*
X210114Y118237D01*
X210107Y118252D01*
X210102Y118263D01*
X210098Y118270D01*
X210096Y118272D01*
X210072Y118308D01*
X210047Y118341D01*
X210019Y118372D01*
X209990Y118401D01*
X209961Y118427D01*
X209930Y118450D01*
X209901Y118472D01*
X209874Y118492D01*
X209847Y118509D01*
X209821Y118523D01*
X209798Y118536D01*
X209777Y118545D01*
X209761Y118554D01*
X209750Y118560D01*
X209741Y118561D01*
X209739Y118563D01*
X209694Y118580D01*
X209647Y118594D01*
X209599Y118607D01*
X209550Y118616D01*
X209457Y118634D01*
X209412Y118640D01*
X209368Y118645D01*
X209330Y118649D01*
X209293Y118651D01*
X209261Y118652D01*
X209233Y118654D01*
X209210Y118656D01*
X209193D01*
X209182D01*
X209179D01*
X209131Y118654D01*
X209086Y118652D01*
X208998Y118643D01*
X208957Y118638D01*
X208917Y118631D01*
X208878Y118623D01*
X208844Y118616D01*
X208811Y118609D01*
X208782Y118603D01*
X208756Y118596D01*
X208735Y118591D01*
X208718Y118585D01*
X208705Y118581D01*
X208696Y118578D01*
X208695D01*
X208651Y118561D01*
X208611Y118543D01*
X208573Y118523D01*
X208538Y118501D01*
X208504Y118480D01*
X208473Y118458D01*
X208445Y118434D01*
X208420Y118412D01*
X208398Y118390D01*
X208378Y118370D01*
X208362Y118352D01*
X208347Y118336D01*
X208336Y118323D01*
X208327Y118314D01*
X208323Y118307D01*
X208321Y118305D01*
X208296Y118267D01*
X208276Y118227D01*
X208256Y118186D01*
X208240Y118147D01*
X208227Y118105D01*
X208216Y118065D01*
X208207Y118026D01*
X208200Y117988D01*
X208192Y117954D01*
X208189Y117921D01*
X208185Y117892D01*
X208183Y117866D01*
X208181Y117846D01*
Y117819D01*
X208183Y117772D01*
X208187Y117728D01*
X208192Y117686D01*
X208201Y117646D01*
X208210Y117610D01*
X208221Y117575D01*
X208232Y117544D01*
X208243Y117515D01*
X208256Y117490D01*
X208267Y117466D01*
X208278Y117446D01*
X208287Y117429D01*
X208296Y117417D01*
X208301Y117408D01*
X208305Y117402D01*
X208307Y117400D01*
X208332Y117369D01*
X208360Y117340D01*
X208391Y117315D01*
X208422Y117289D01*
X208456Y117266D01*
X208489Y117246D01*
X208522Y117226D01*
X208554Y117209D01*
X208585Y117195D01*
X208614Y117180D01*
X208640Y117169D01*
X208662Y117160D01*
X208682Y117153D01*
X208695Y117147D01*
X208704Y117146D01*
X208707Y117144D01*
X208631Y116816D01*
X208567Y116836D01*
X208507Y116862D01*
X208451Y116887D01*
X208398Y116916D01*
X208351Y116945D01*
X208305Y116974D01*
X208265Y117005D01*
X208229Y117034D01*
X208196Y117064D01*
X208169Y117089D01*
X208143Y117113D01*
X208125Y117134D01*
X208109Y117151D01*
X208098Y117166D01*
X208090Y117173D01*
X208088Y117176D01*
X208054Y117226D01*
X208025Y117277D01*
X207999Y117331D01*
X207978Y117384D01*
X207958Y117437D01*
X207943Y117490D01*
X207930Y117540D01*
X207919Y117590D01*
X207912Y117637D01*
X207907Y117679D01*
X207901Y117715D01*
X207899Y117748D01*
X207897Y117775D01*
X207896Y117786D01*
Y117812D01*
X207897Y117874D01*
X207903Y117933D01*
X207910Y117992D01*
X207919Y118048D01*
X207930Y118101D01*
X207945Y118152D01*
X207958Y118199D01*
X207972Y118243D01*
X207987Y118281D01*
X207999Y118318D01*
X208012Y118349D01*
X208025Y118374D01*
X208034Y118396D01*
X208041Y118410D01*
X208047Y118420D01*
X208049Y118423D01*
X208079Y118474D01*
X208112Y118521D01*
X208147Y118565D01*
X208183Y118607D01*
X208220Y118645D01*
X208256Y118680D01*
X208294Y118712D01*
X208329Y118740D01*
X208362Y118765D01*
X208394Y118789D01*
X208422Y118807D01*
X208445Y118824D01*
X208467Y118834D01*
X208482Y118843D01*
X208491Y118849D01*
X208494Y118851D01*
X208551Y118876D01*
X208607Y118900D01*
X208665Y118920D01*
X208724Y118936D01*
X208782Y118951D01*
X208840Y118964D01*
X208895Y118973D01*
X208946Y118982D01*
X208995Y118987D01*
X209040Y118993D01*
X209080Y118995D01*
X209115Y118998D01*
X209142D01*
X209153Y119000D01*
X209162D01*
X209170D01*
X209175D01*
X209179D01*
X209180D01*
X209248Y118998D01*
D02*
G37*
G36*
X208840Y116197D02*
X208815Y116141D01*
X208789Y116086D01*
X208764Y116035D01*
X208751Y116013D01*
X208740Y115992D01*
X208729Y115973D01*
X208720Y115959D01*
X208715Y115946D01*
X208709Y115935D01*
X208705Y115930D01*
X208704Y115928D01*
X208664Y115862D01*
X208644Y115833D01*
X208625Y115804D01*
X208605Y115779D01*
X208589Y115755D01*
X208571Y115733D01*
X208556Y115711D01*
X208542Y115695D01*
X208529Y115679D01*
X208516Y115664D01*
X208507Y115653D01*
X208500Y115644D01*
X208494Y115638D01*
X208491Y115635D01*
X208489Y115633D01*
X210458D01*
Y115324D01*
X207930D01*
Y115524D01*
X207961Y115540D01*
X207992Y115558D01*
X208052Y115600D01*
X208109Y115646D01*
X208136Y115670D01*
X208161Y115691D01*
X208183Y115713D01*
X208205Y115733D01*
X208223Y115751D01*
X208240Y115768D01*
X208252Y115780D01*
X208261Y115790D01*
X208267Y115797D01*
X208269Y115799D01*
X208331Y115873D01*
X208387Y115952D01*
X208438Y116028D01*
X208460Y116064D01*
X208482Y116099D01*
X208500Y116130D01*
X208516Y116159D01*
X208531Y116186D01*
X208542Y116208D01*
X208551Y116226D01*
X208558Y116241D01*
X208562Y116248D01*
X208563Y116252D01*
X208862D01*
X208840Y116197D01*
D02*
G37*
G36*
Y114241D02*
X208815Y114184D01*
X208789Y114130D01*
X208764Y114079D01*
X208751Y114057D01*
X208740Y114035D01*
X208729Y114017D01*
X208720Y114002D01*
X208715Y113990D01*
X208709Y113979D01*
X208705Y113973D01*
X208704Y113971D01*
X208664Y113906D01*
X208644Y113877D01*
X208625Y113848D01*
X208605Y113822D01*
X208589Y113798D01*
X208571Y113777D01*
X208556Y113755D01*
X208542Y113738D01*
X208529Y113722D01*
X208516Y113707D01*
X208507Y113697D01*
X208500Y113688D01*
X208494Y113682D01*
X208491Y113678D01*
X208489Y113677D01*
X210458D01*
Y113367D01*
X207930D01*
Y113567D01*
X207961Y113584D01*
X207992Y113602D01*
X208052Y113644D01*
X208109Y113689D01*
X208136Y113713D01*
X208161Y113735D01*
X208183Y113757D01*
X208205Y113777D01*
X208223Y113795D01*
X208240Y113811D01*
X208252Y113824D01*
X208261Y113833D01*
X208267Y113840D01*
X208269Y113842D01*
X208331Y113917D01*
X208387Y113995D01*
X208438Y114072D01*
X208460Y114108D01*
X208482Y114143D01*
X208500Y114173D01*
X208516Y114202D01*
X208531Y114230D01*
X208542Y114252D01*
X208551Y114270D01*
X208558Y114284D01*
X208562Y114292D01*
X208563Y114295D01*
X208862D01*
X208840Y114241D01*
D02*
G37*
G36*
X198744Y118998D02*
X198810Y118995D01*
X198873Y118987D01*
X198933Y118980D01*
X198994Y118969D01*
X199048Y118958D01*
X199101Y118946D01*
X199150Y118933D01*
X199194Y118922D01*
X199234Y118909D01*
X199268Y118898D01*
X199297Y118887D01*
X199321Y118880D01*
X199338Y118873D01*
X199348Y118869D01*
X199350Y118867D01*
X199352D01*
X199408Y118842D01*
X199463Y118813D01*
X199512Y118782D01*
X199560Y118751D01*
X199601Y118718D01*
X199642Y118685D01*
X199676Y118654D01*
X199709Y118623D01*
X199738Y118594D01*
X199762Y118567D01*
X199783Y118543D01*
X199800Y118521D01*
X199813Y118503D01*
X199823Y118491D01*
X199829Y118483D01*
X199831Y118480D01*
X199860Y118430D01*
X199885Y118378D01*
X199907Y118323D01*
X199927Y118268D01*
X199942Y118214D01*
X199956Y118157D01*
X199967Y118105D01*
X199976Y118052D01*
X199982Y118005D01*
X199987Y117959D01*
X199991Y117919D01*
X199995Y117884D01*
Y117857D01*
X199996Y117844D01*
Y117817D01*
X199995Y117744D01*
X199987Y117675D01*
X199976Y117610D01*
X199964Y117546D01*
X199947Y117488D01*
X199929Y117433D01*
X199909Y117382D01*
X199889Y117337D01*
X199869Y117295D01*
X199849Y117258D01*
X199831Y117226D01*
X199814Y117200D01*
X199802Y117178D01*
X199791Y117164D01*
X199783Y117155D01*
X199782Y117151D01*
X199738Y117102D01*
X199692Y117056D01*
X199643Y117014D01*
X199592Y116976D01*
X199540Y116942D01*
X199489Y116911D01*
X199438Y116883D01*
X199387Y116860D01*
X199339Y116838D01*
X199296Y116820D01*
X199258Y116805D01*
X199223Y116792D01*
X199196Y116783D01*
X199183Y116780D01*
X199174Y116778D01*
X199167Y116776D01*
X199161Y116774D01*
X199157Y116772D01*
X199155D01*
X199072Y117105D01*
X199130Y117120D01*
X199183Y117136D01*
X199234Y117155D01*
X199279Y117176D01*
X199323Y117196D01*
X199363Y117220D01*
X199398Y117242D01*
X199430Y117264D01*
X199458Y117284D01*
X199483Y117304D01*
X199503Y117322D01*
X199520Y117338D01*
X199534Y117351D01*
X199543Y117360D01*
X199549Y117367D01*
X199550Y117369D01*
X199578Y117408D01*
X199603Y117446D01*
X199625Y117486D01*
X199643Y117526D01*
X199658Y117566D01*
X199671Y117606D01*
X199681Y117644D01*
X199691Y117681D01*
X199698Y117713D01*
X199701Y117746D01*
X199705Y117773D01*
X199709Y117797D01*
Y117817D01*
X199711Y117832D01*
Y117844D01*
X199709Y117886D01*
X199705Y117928D01*
X199700Y117968D01*
X199692Y118008D01*
X199683Y118045D01*
X199672Y118081D01*
X199663Y118114D01*
X199651Y118145D01*
X199640Y118172D01*
X199631Y118197D01*
X199620Y118219D01*
X199610Y118237D01*
X199603Y118252D01*
X199598Y118263D01*
X199594Y118270D01*
X199592Y118272D01*
X199569Y118308D01*
X199543Y118341D01*
X199516Y118372D01*
X199487Y118401D01*
X199458Y118427D01*
X199427Y118450D01*
X199398Y118472D01*
X199370Y118492D01*
X199343Y118509D01*
X199318Y118523D01*
X199294Y118536D01*
X199274Y118545D01*
X199258Y118554D01*
X199247Y118560D01*
X199237Y118561D01*
X199236Y118563D01*
X199190Y118580D01*
X199143Y118594D01*
X199095Y118607D01*
X199046Y118616D01*
X198953Y118634D01*
X198908Y118640D01*
X198864Y118645D01*
X198826Y118649D01*
X198790Y118651D01*
X198757Y118652D01*
X198730Y118654D01*
X198706Y118656D01*
X198690D01*
X198679D01*
X198675D01*
X198628Y118654D01*
X198582Y118652D01*
X198495Y118643D01*
X198453Y118638D01*
X198413Y118631D01*
X198375Y118623D01*
X198340Y118616D01*
X198307Y118609D01*
X198278Y118603D01*
X198253Y118596D01*
X198231Y118591D01*
X198215Y118585D01*
X198202Y118581D01*
X198193Y118578D01*
X198191D01*
X198147Y118561D01*
X198107Y118543D01*
X198069Y118523D01*
X198034Y118501D01*
X198000Y118480D01*
X197969Y118458D01*
X197942Y118434D01*
X197916Y118412D01*
X197894Y118390D01*
X197874Y118370D01*
X197858Y118352D01*
X197843Y118336D01*
X197832Y118323D01*
X197823Y118314D01*
X197820Y118307D01*
X197818Y118305D01*
X197792Y118267D01*
X197772Y118227D01*
X197752Y118186D01*
X197736Y118147D01*
X197723Y118105D01*
X197712Y118065D01*
X197703Y118026D01*
X197696Y117988D01*
X197689Y117954D01*
X197685Y117921D01*
X197681Y117892D01*
X197679Y117866D01*
X197678Y117846D01*
Y117819D01*
X197679Y117772D01*
X197683Y117728D01*
X197689Y117686D01*
X197698Y117646D01*
X197707Y117610D01*
X197718Y117575D01*
X197729Y117544D01*
X197740Y117515D01*
X197752Y117490D01*
X197763Y117466D01*
X197774Y117446D01*
X197783Y117429D01*
X197792Y117417D01*
X197798Y117408D01*
X197801Y117402D01*
X197803Y117400D01*
X197829Y117369D01*
X197856Y117340D01*
X197887Y117315D01*
X197918Y117289D01*
X197952Y117266D01*
X197985Y117246D01*
X198018Y117226D01*
X198051Y117209D01*
X198082Y117195D01*
X198111Y117180D01*
X198136Y117169D01*
X198158Y117160D01*
X198178Y117153D01*
X198191Y117147D01*
X198200Y117146D01*
X198204Y117144D01*
X198127Y116816D01*
X198064Y116836D01*
X198003Y116862D01*
X197947Y116887D01*
X197894Y116916D01*
X197847Y116945D01*
X197801Y116974D01*
X197761Y117005D01*
X197725Y117034D01*
X197692Y117064D01*
X197665Y117089D01*
X197640Y117113D01*
X197621Y117134D01*
X197605Y117151D01*
X197594Y117166D01*
X197587Y117173D01*
X197585Y117176D01*
X197550Y117226D01*
X197521Y117277D01*
X197496Y117331D01*
X197474Y117384D01*
X197454Y117437D01*
X197439Y117490D01*
X197426Y117540D01*
X197416Y117590D01*
X197408Y117637D01*
X197403Y117679D01*
X197397Y117715D01*
X197396Y117748D01*
X197394Y117775D01*
X197392Y117786D01*
Y117812D01*
X197394Y117874D01*
X197399Y117933D01*
X197406Y117992D01*
X197416Y118048D01*
X197426Y118101D01*
X197441Y118152D01*
X197454Y118199D01*
X197468Y118243D01*
X197483Y118281D01*
X197496Y118318D01*
X197508Y118349D01*
X197521Y118374D01*
X197530Y118396D01*
X197538Y118410D01*
X197543Y118420D01*
X197545Y118423D01*
X197576Y118474D01*
X197608Y118521D01*
X197643Y118565D01*
X197679Y118607D01*
X197716Y118645D01*
X197752Y118680D01*
X197791Y118712D01*
X197825Y118740D01*
X197858Y118765D01*
X197891Y118789D01*
X197918Y118807D01*
X197942Y118824D01*
X197963Y118834D01*
X197978Y118843D01*
X197987Y118849D01*
X197991Y118851D01*
X198047Y118876D01*
X198104Y118900D01*
X198162Y118920D01*
X198220Y118936D01*
X198278Y118951D01*
X198337Y118964D01*
X198391Y118973D01*
X198442Y118982D01*
X198491Y118987D01*
X198537Y118993D01*
X198577Y118995D01*
X198611Y118998D01*
X198639D01*
X198650Y119000D01*
X198659D01*
X198666D01*
X198671D01*
X198675D01*
X198677D01*
X198744Y118998D01*
D02*
G37*
G36*
X198337Y116197D02*
X198311Y116141D01*
X198286Y116086D01*
X198260Y116035D01*
X198247Y116013D01*
X198236Y115992D01*
X198225Y115973D01*
X198216Y115959D01*
X198211Y115946D01*
X198205Y115935D01*
X198202Y115930D01*
X198200Y115928D01*
X198160Y115862D01*
X198140Y115833D01*
X198122Y115804D01*
X198102Y115779D01*
X198085Y115755D01*
X198067Y115733D01*
X198053Y115711D01*
X198038Y115695D01*
X198025Y115679D01*
X198013Y115664D01*
X198003Y115653D01*
X197996Y115644D01*
X197991Y115638D01*
X197987Y115635D01*
X197985Y115633D01*
X199954D01*
Y115324D01*
X197426D01*
Y115524D01*
X197458Y115540D01*
X197488Y115558D01*
X197548Y115600D01*
X197605Y115646D01*
X197632Y115670D01*
X197658Y115691D01*
X197679Y115713D01*
X197701Y115733D01*
X197720Y115751D01*
X197736Y115768D01*
X197749Y115780D01*
X197758Y115790D01*
X197763Y115797D01*
X197765Y115799D01*
X197827Y115873D01*
X197883Y115952D01*
X197934Y116028D01*
X197956Y116064D01*
X197978Y116099D01*
X197996Y116130D01*
X198013Y116159D01*
X198027Y116186D01*
X198038Y116208D01*
X198047Y116226D01*
X198054Y116241D01*
X198058Y116248D01*
X198060Y116252D01*
X198358D01*
X198337Y116197D01*
D02*
G37*
G36*
X199348Y114523D02*
X199403Y114512D01*
X199454Y114496D01*
X199503Y114479D01*
X199549Y114459D01*
X199591Y114439D01*
X199631Y114417D01*
X199665Y114395D01*
X199696Y114374D01*
X199723Y114354D01*
X199747Y114334D01*
X199767Y114317D01*
X199783Y114303D01*
X199794Y114292D01*
X199802Y114284D01*
X199803Y114283D01*
X199838Y114241D01*
X199869Y114195D01*
X199894Y114150D01*
X199916Y114104D01*
X199936Y114057D01*
X199953Y114011D01*
X199966Y113966D01*
X199975Y113924D01*
X199984Y113884D01*
X199989Y113848D01*
X199995Y113815D01*
X199996Y113786D01*
X199998Y113764D01*
X200000Y113746D01*
Y113731D01*
X199998Y113664D01*
X199991Y113600D01*
X199978Y113538D01*
X199964Y113482D01*
X199947Y113427D01*
X199927Y113378D01*
X199907Y113331D01*
X199885Y113289D01*
X199864Y113252D01*
X199844Y113218D01*
X199823Y113191D01*
X199807Y113167D01*
X199793Y113147D01*
X199780Y113134D01*
X199773Y113127D01*
X199771Y113123D01*
X199727Y113081D01*
X199681Y113043D01*
X199634Y113010D01*
X199587Y112983D01*
X199540Y112960D01*
X199492Y112940D01*
X199449Y112925D01*
X199405Y112912D01*
X199365Y112901D01*
X199328Y112894D01*
X199296Y112889D01*
X199267Y112885D01*
X199245Y112883D01*
X199226Y112881D01*
X199216D01*
X199212D01*
X199167Y112883D01*
X199125Y112887D01*
X199085Y112892D01*
X199046Y112901D01*
X199010Y112910D01*
X198977Y112919D01*
X198946Y112932D01*
X198917Y112943D01*
X198892Y112954D01*
X198870Y112965D01*
X198852Y112976D01*
X198835Y112985D01*
X198822Y112994D01*
X198813Y112999D01*
X198808Y113003D01*
X198806Y113005D01*
X198777Y113029D01*
X198750Y113056D01*
X198726Y113083D01*
X198704Y113110D01*
X198684Y113140D01*
X198668Y113169D01*
X198651Y113198D01*
X198639Y113225D01*
X198626Y113251D01*
X198617Y113274D01*
X198608Y113296D01*
X198602Y113316D01*
X198597Y113331D01*
X198593Y113344D01*
X198591Y113351D01*
Y113353D01*
X198577Y113322D01*
X198560Y113293D01*
X198542Y113265D01*
X198526Y113240D01*
X198508Y113216D01*
X198489Y113196D01*
X198473Y113176D01*
X198457Y113160D01*
X198440Y113143D01*
X198426Y113130D01*
X198413Y113120D01*
X198402Y113110D01*
X198393Y113103D01*
X198386Y113098D01*
X198382Y113096D01*
X198380Y113094D01*
X198355Y113078D01*
X198329Y113065D01*
X198302Y113052D01*
X198276Y113043D01*
X198227Y113027D01*
X198180Y113016D01*
X198160Y113012D01*
X198140Y113010D01*
X198124Y113007D01*
X198109D01*
X198098Y113005D01*
X198089D01*
X198084D01*
X198082D01*
X198049Y113007D01*
X198018Y113009D01*
X197958Y113020D01*
X197903Y113034D01*
X197880Y113043D01*
X197856Y113050D01*
X197834Y113060D01*
X197816Y113069D01*
X197798Y113076D01*
X197785Y113083D01*
X197772Y113089D01*
X197765Y113094D01*
X197760Y113096D01*
X197758Y113098D01*
X197731Y113116D01*
X197703Y113136D01*
X197656Y113178D01*
X197614Y113222D01*
X197579Y113265D01*
X197565Y113285D01*
X197552Y113303D01*
X197541Y113320D01*
X197532Y113334D01*
X197525Y113347D01*
X197519Y113356D01*
X197518Y113362D01*
X197516Y113364D01*
X197499Y113396D01*
X197487Y113429D01*
X197474Y113462D01*
X197465Y113496D01*
X197448Y113560D01*
X197443Y113589D01*
X197438Y113618D01*
X197434Y113644D01*
X197432Y113668D01*
X197428Y113689D01*
Y113707D01*
X197426Y113722D01*
Y113742D01*
X197428Y113797D01*
X197434Y113849D01*
X197443Y113900D01*
X197454Y113948D01*
X197467Y113991D01*
X197481Y114031D01*
X197496Y114070D01*
X197512Y114104D01*
X197529Y114135D01*
X197543Y114163D01*
X197558Y114186D01*
X197570Y114206D01*
X197581Y114223D01*
X197590Y114234D01*
X197596Y114241D01*
X197598Y114243D01*
X197630Y114279D01*
X197667Y114312D01*
X197705Y114341D01*
X197745Y114366D01*
X197785Y114390D01*
X197825Y114412D01*
X197865Y114430D01*
X197903Y114446D01*
X197940Y114459D01*
X197973Y114470D01*
X198002Y114479D01*
X198029Y114486D01*
X198051Y114492D01*
X198065Y114496D01*
X198076Y114499D01*
X198078D01*
X198080D01*
X198135Y114190D01*
X198093Y114182D01*
X198054Y114173D01*
X198020Y114164D01*
X197987Y114152D01*
X197956Y114141D01*
X197929Y114126D01*
X197903Y114113D01*
X197880Y114101D01*
X197862Y114088D01*
X197843Y114077D01*
X197829Y114066D01*
X197818Y114057D01*
X197809Y114048D01*
X197801Y114042D01*
X197798Y114039D01*
X197796Y114037D01*
X197776Y114013D01*
X197758Y113990D01*
X197743Y113964D01*
X197731Y113939D01*
X197718Y113913D01*
X197709Y113890D01*
X197696Y113842D01*
X197690Y113820D01*
X197687Y113800D01*
X197685Y113782D01*
X197683Y113766D01*
X197681Y113755D01*
Y113737D01*
X197683Y113704D01*
X197687Y113671D01*
X197692Y113642D01*
X197699Y113613D01*
X197707Y113587D01*
X197718Y113562D01*
X197727Y113540D01*
X197738Y113520D01*
X197749Y113502D01*
X197758Y113485D01*
X197769Y113473D01*
X197776Y113460D01*
X197783Y113451D01*
X197789Y113445D01*
X197792Y113442D01*
X197794Y113440D01*
X197816Y113420D01*
X197838Y113402D01*
X197862Y113385D01*
X197885Y113373D01*
X197909Y113362D01*
X197933Y113353D01*
X197976Y113338D01*
X197996Y113333D01*
X198014Y113329D01*
X198033Y113327D01*
X198045Y113325D01*
X198058Y113323D01*
X198067D01*
X198073D01*
X198074D01*
X198113Y113325D01*
X198149Y113331D01*
X198184Y113338D01*
X198215Y113349D01*
X198244Y113360D01*
X198269Y113373D01*
X198293Y113387D01*
X198315Y113402D01*
X198333Y113418D01*
X198349Y113431D01*
X198362Y113445D01*
X198373Y113456D01*
X198382Y113467D01*
X198388Y113475D01*
X198391Y113480D01*
X198393Y113482D01*
X198411Y113511D01*
X198426Y113542D01*
X198440Y113573D01*
X198451Y113604D01*
X198469Y113664D01*
X198477Y113691D01*
X198482Y113718D01*
X198486Y113744D01*
X198489Y113766D01*
X198491Y113786D01*
X198493Y113804D01*
X198495Y113817D01*
Y113851D01*
X198493Y113868D01*
Y113875D01*
X198491Y113880D01*
Y113886D01*
X198762Y113920D01*
X198751Y113873D01*
X198744Y113831D01*
X198737Y113795D01*
X198733Y113762D01*
X198732Y113737D01*
X198730Y113718D01*
Y113702D01*
X198732Y113662D01*
X198735Y113626D01*
X198742Y113589D01*
X198751Y113556D01*
X198762Y113525D01*
X198773Y113496D01*
X198786Y113469D01*
X198799Y113445D01*
X198812Y113424D01*
X198824Y113403D01*
X198835Y113387D01*
X198846Y113374D01*
X198855Y113364D01*
X198863Y113354D01*
X198866Y113351D01*
X198868Y113349D01*
X198895Y113323D01*
X198923Y113303D01*
X198952Y113283D01*
X198981Y113267D01*
X199010Y113254D01*
X199039Y113243D01*
X199068Y113234D01*
X199095Y113227D01*
X199121Y113220D01*
X199145Y113216D01*
X199167Y113212D01*
X199183Y113211D01*
X199199Y113209D01*
X199210D01*
X199217D01*
X199219D01*
X199259Y113211D01*
X199299Y113216D01*
X199336Y113223D01*
X199370Y113233D01*
X199405Y113243D01*
X199434Y113256D01*
X199463Y113271D01*
X199489Y113283D01*
X199512Y113298D01*
X199532Y113313D01*
X199550Y113325D01*
X199565Y113336D01*
X199578Y113345D01*
X199585Y113353D01*
X199591Y113358D01*
X199592Y113360D01*
X199620Y113389D01*
X199642Y113418D01*
X199662Y113449D01*
X199680Y113480D01*
X199694Y113511D01*
X199707Y113542D01*
X199716Y113573D01*
X199725Y113600D01*
X199731Y113627D01*
X199736Y113651D01*
X199738Y113673D01*
X199742Y113693D01*
Y113707D01*
X199743Y113720D01*
Y113729D01*
X199742Y113764D01*
X199738Y113795D01*
X199732Y113826D01*
X199725Y113855D01*
X199716Y113882D01*
X199707Y113908D01*
X199696Y113931D01*
X199685Y113953D01*
X199676Y113973D01*
X199665Y113990D01*
X199656Y114006D01*
X199647Y114017D01*
X199640Y114028D01*
X199634Y114035D01*
X199631Y114039D01*
X199629Y114041D01*
X199605Y114064D01*
X199580Y114084D01*
X199550Y114104D01*
X199520Y114122D01*
X199458Y114153D01*
X199394Y114179D01*
X199365Y114188D01*
X199338Y114197D01*
X199314Y114204D01*
X199292Y114210D01*
X199274Y114215D01*
X199259Y114219D01*
X199252Y114221D01*
X199248D01*
X199290Y114530D01*
X199348Y114523D01*
D02*
G37*
G36*
X203780Y147774D02*
X203731Y147701D01*
X203705Y147668D01*
X203682Y147635D01*
X203658Y147606D01*
X203634Y147579D01*
X203612Y147554D01*
X203592Y147530D01*
X203574Y147508D01*
X203556Y147490D01*
X203541Y147475D01*
X203529Y147461D01*
X203518Y147452D01*
X203511Y147443D01*
X203505Y147439D01*
X203503Y147437D01*
X203474Y147414D01*
X203443Y147392D01*
X203411Y147370D01*
X203378Y147352D01*
X203349Y147335D01*
X203336Y147328D01*
X203325Y147322D01*
X203316Y147317D01*
X203309Y147315D01*
X203305Y147311D01*
X203303D01*
X203369Y147301D01*
X203431Y147288D01*
X203487Y147272D01*
X203540Y147255D01*
X203587Y147235D01*
X203632Y147217D01*
X203671Y147197D01*
X203707Y147177D01*
X203738Y147157D01*
X203764Y147139D01*
X203787Y147122D01*
X203805Y147108D01*
X203820Y147095D01*
X203831Y147086D01*
X203836Y147080D01*
X203838Y147079D01*
X203869Y147044D01*
X203896Y147006D01*
X203920Y146969D01*
X203940Y146931D01*
X203957Y146893D01*
X203971Y146855D01*
X203982Y146818D01*
X203991Y146784D01*
X203998Y146751D01*
X204004Y146722D01*
X204008Y146695D01*
X204011Y146673D01*
Y146653D01*
X204013Y146638D01*
Y146631D01*
Y146627D01*
X204011Y146589D01*
X204009Y146551D01*
X204004Y146514D01*
X203996Y146480D01*
X203989Y146447D01*
X203980Y146416D01*
X203969Y146387D01*
X203960Y146360D01*
X203951Y146336D01*
X203940Y146314D01*
X203931Y146294D01*
X203924Y146278D01*
X203917Y146265D01*
X203913Y146256D01*
X203909Y146250D01*
X203907Y146249D01*
X203887Y146218D01*
X203866Y146189D01*
X203842Y146163D01*
X203820Y146138D01*
X203796Y146116D01*
X203773Y146096D01*
X203749Y146079D01*
X203727Y146063D01*
X203707Y146050D01*
X203687Y146039D01*
X203671Y146028D01*
X203656Y146021D01*
X203643Y146016D01*
X203634Y146012D01*
X203629Y146008D01*
X203627D01*
X203592Y145996D01*
X203554Y145985D01*
X203514Y145976D01*
X203474Y145968D01*
X203389Y145956D01*
X203347Y145952D01*
X203307Y145948D01*
X203267Y145945D01*
X203232Y145943D01*
X203199Y145941D01*
X203170D01*
X203148Y145939D01*
X202000D01*
Y148458D01*
X202333D01*
Y147339D01*
X202764D01*
X202803Y147341D01*
X202835Y147343D01*
X202861Y147344D01*
X202879Y147348D01*
X202894Y147350D01*
X202903Y147352D01*
X202905D01*
X202934Y147361D01*
X202961Y147370D01*
X202986Y147382D01*
X203008Y147393D01*
X203028Y147403D01*
X203043Y147412D01*
X203052Y147417D01*
X203056Y147419D01*
X203085Y147439D01*
X203114Y147464D01*
X203141Y147494D01*
X203168Y147521D01*
X203190Y147546D01*
X203208Y147568D01*
X203216Y147577D01*
X203221Y147583D01*
X203223Y147586D01*
X203225Y147588D01*
X203243Y147612D01*
X203263Y147637D01*
X203303Y147692D01*
X203343Y147750D01*
X203381Y147807D01*
X203398Y147832D01*
X203414Y147856D01*
X203429Y147878D01*
X203441Y147898D01*
X203450Y147912D01*
X203458Y147925D01*
X203463Y147932D01*
X203465Y147934D01*
X203798Y148458D01*
X204215D01*
X203780Y147774D01*
D02*
G37*
G36*
X207269Y148498D02*
X207311Y148495D01*
X207349Y148491D01*
X207387Y148484D01*
X207422Y148475D01*
X207456Y148465D01*
X207487Y148456D01*
X207515Y148445D01*
X207542Y148436D01*
X207564Y148427D01*
X207584Y148418D01*
X207602Y148409D01*
X207615Y148402D01*
X207626Y148398D01*
X207631Y148394D01*
X207633Y148393D01*
X207666Y148371D01*
X207697Y148349D01*
X207726Y148324D01*
X207751Y148298D01*
X207777Y148273D01*
X207800Y148247D01*
X207820Y148222D01*
X207840Y148196D01*
X207857Y148172D01*
X207871Y148152D01*
X207884Y148132D01*
X207895Y148114D01*
X207902Y148101D01*
X207908Y148091D01*
X207911Y148083D01*
X207913Y148081D01*
X207931Y148043D01*
X207948Y148003D01*
X207961Y147965D01*
X207973Y147927D01*
X207984Y147889D01*
X207991Y147852D01*
X207999Y147818D01*
X208004Y147785D01*
X208008Y147754D01*
X208012Y147727D01*
X208013Y147703D01*
X208015Y147681D01*
X208017Y147665D01*
Y147652D01*
Y147643D01*
Y147641D01*
X208015Y147575D01*
X208008Y147512D01*
X207997Y147453D01*
X207982Y147397D01*
X207966Y147344D01*
X207948Y147297D01*
X207928Y147251D01*
X207908Y147211D01*
X207888Y147175D01*
X207868Y147144D01*
X207850Y147117D01*
X207833Y147095D01*
X207819Y147077D01*
X207808Y147064D01*
X207800Y147055D01*
X207799Y147053D01*
X207757Y147013D01*
X207713Y146977D01*
X207669Y146948D01*
X207626Y146920D01*
X207580Y146898D01*
X207536Y146880D01*
X207495Y146864D01*
X207454Y146853D01*
X207416Y146844D01*
X207382Y146836D01*
X207351Y146831D01*
X207324Y146827D01*
X207304Y146826D01*
X207287Y146824D01*
X207240D01*
X207207Y146827D01*
X207143Y146836D01*
X207087Y146851D01*
X207060Y146858D01*
X207036Y146866D01*
X207012Y146873D01*
X206992Y146880D01*
X206976Y146888D01*
X206960Y146895D01*
X206949Y146900D01*
X206940Y146904D01*
X206934Y146906D01*
X206932Y146907D01*
X206903Y146924D01*
X206874Y146942D01*
X206823Y146982D01*
X206776Y147024D01*
X206756Y147044D01*
X206737Y147064D01*
X206719Y147084D01*
X206705Y147102D01*
X206692Y147119D01*
X206681Y147133D01*
X206672Y147144D01*
X206666Y147153D01*
X206663Y147159D01*
X206661Y147160D01*
X206663Y147091D01*
X206665Y147026D01*
X206670Y146966D01*
X206676Y146909D01*
X206681Y146858D01*
X206688Y146809D01*
X206697Y146765D01*
X206705Y146727D01*
X206712Y146693D01*
X206719Y146662D01*
X206727Y146636D01*
X206734Y146616D01*
X206739Y146600D01*
X206743Y146587D01*
X206747Y146580D01*
Y146578D01*
X206763Y146542D01*
X206781Y146507D01*
X206799Y146474D01*
X206819Y146443D01*
X206838Y146416D01*
X206858Y146391D01*
X206876Y146367D01*
X206894Y146347D01*
X206912Y146329D01*
X206927Y146312D01*
X206941Y146300D01*
X206954Y146289D01*
X206963Y146280D01*
X206972Y146274D01*
X206976Y146271D01*
X206978Y146269D01*
X206999Y146254D01*
X207021Y146241D01*
X207065Y146220D01*
X207109Y146205D01*
X207149Y146196D01*
X207169Y146192D01*
X207185Y146189D01*
X207200Y146187D01*
X207212D01*
X207223Y146185D01*
X207238D01*
X207271Y146187D01*
X207304Y146190D01*
X207334Y146198D01*
X207364Y146205D01*
X207391Y146216D01*
X207415Y146227D01*
X207438Y146240D01*
X207460Y146250D01*
X207480Y146263D01*
X207496Y146276D01*
X207511Y146287D01*
X207524Y146298D01*
X207533Y146305D01*
X207540Y146312D01*
X207544Y146316D01*
X207545Y146318D01*
X207560Y146334D01*
X207573Y146352D01*
X207596Y146394D01*
X207616Y146438D01*
X207633Y146480D01*
X207647Y146520D01*
X207651Y146536D01*
X207657Y146553D01*
X207660Y146563D01*
X207662Y146574D01*
X207664Y146580D01*
Y146582D01*
X207971Y146558D01*
X207962Y146505D01*
X207951Y146454D01*
X207937Y146407D01*
X207919Y146363D01*
X207902Y146321D01*
X207882Y146283D01*
X207862Y146249D01*
X207842Y146218D01*
X207822Y146190D01*
X207804Y146167D01*
X207788Y146145D01*
X207773Y146128D01*
X207760Y146116D01*
X207751Y146105D01*
X207744Y146099D01*
X207742Y146098D01*
X207706Y146069D01*
X207667Y146043D01*
X207627Y146019D01*
X207586Y146001D01*
X207545Y145985D01*
X207505Y145970D01*
X207466Y145959D01*
X207429Y145950D01*
X207393Y145945D01*
X207360Y145939D01*
X207331Y145936D01*
X207305Y145932D01*
X207285D01*
X207269Y145930D01*
X207256D01*
X207183Y145934D01*
X207114Y145943D01*
X207050Y145958D01*
X206989Y145976D01*
X206932Y145998D01*
X206881Y146021D01*
X206834Y146048D01*
X206790Y146074D01*
X206752Y146101D01*
X206717Y146128D01*
X206690Y146152D01*
X206666Y146174D01*
X206646Y146192D01*
X206634Y146207D01*
X206626Y146216D01*
X206623Y146220D01*
X206599Y146252D01*
X206575Y146287D01*
X206554Y146321D01*
X206534Y146360D01*
X206497Y146440D01*
X206466Y146525D01*
X206441Y146613D01*
X206419Y146700D01*
X206401Y146789D01*
X206388Y146875D01*
X206375Y146957D01*
X206368Y147031D01*
X206364Y147068D01*
X206363Y147100D01*
X206359Y147133D01*
X206357Y147160D01*
Y147188D01*
X206355Y147211D01*
Y147231D01*
X206353Y147248D01*
Y147262D01*
Y147272D01*
Y147279D01*
Y147281D01*
Y147341D01*
X206357Y147399D01*
X206359Y147453D01*
X206364Y147508D01*
X206370Y147559D01*
X206375Y147608D01*
X206383Y147655D01*
X206392Y147701D01*
X206401Y147745D01*
X206410Y147787D01*
X206421Y147825D01*
X206430Y147863D01*
X206441Y147898D01*
X206453Y147932D01*
X206465Y147963D01*
X206475Y147992D01*
X206486Y148020D01*
X206499Y148047D01*
X206510Y148071D01*
X206521Y148092D01*
X206530Y148112D01*
X206541Y148131D01*
X206559Y148161D01*
X206575Y148185D01*
X206586Y148203D01*
X206595Y148212D01*
X206597Y148216D01*
X206645Y148265D01*
X206694Y148309D01*
X206747Y148347D01*
X206799Y148380D01*
X206852Y148407D01*
X206903Y148431D01*
X206954Y148449D01*
X207003Y148464D01*
X207050Y148476D01*
X207092Y148485D01*
X207131Y148491D01*
X207163Y148496D01*
X207191Y148498D01*
X207202D01*
X207211Y148500D01*
X207227D01*
X207269Y148498D01*
D02*
G37*
G36*
X206035Y148161D02*
X204801D01*
X204821Y148131D01*
X204843Y148100D01*
X204865Y148072D01*
X204885Y148047D01*
X204903Y148027D01*
X204918Y148010D01*
X204927Y148000D01*
X204930Y147996D01*
X204947Y147978D01*
X204968Y147958D01*
X204992Y147936D01*
X205019Y147910D01*
X205048Y147885D01*
X205078Y147857D01*
X205139Y147805D01*
X205169Y147779D01*
X205196Y147756D01*
X205220Y147734D01*
X205243Y147716D01*
X205261Y147699D01*
X205274Y147688D01*
X205283Y147679D01*
X205287Y147677D01*
X205347Y147626D01*
X205403Y147577D01*
X205454Y147532D01*
X205502Y147490D01*
X205545Y147450D01*
X205584Y147414D01*
X205620Y147381D01*
X205651Y147352D01*
X205678Y147324D01*
X205700Y147301D01*
X205720Y147281D01*
X205736Y147264D01*
X205749Y147251D01*
X205756Y147242D01*
X205762Y147237D01*
X205764Y147235D01*
X205789Y147204D01*
X205815Y147175D01*
X205837Y147146D01*
X205857Y147119D01*
X205893Y147066D01*
X205908Y147042D01*
X205920Y147020D01*
X205933Y147000D01*
X205942Y146982D01*
X205951Y146966D01*
X205957Y146953D01*
X205962Y146942D01*
X205966Y146935D01*
X205969Y146929D01*
Y146927D01*
X205989Y146873D01*
X206006Y146820D01*
X206017Y146769D01*
X206024Y146724D01*
X206026Y146704D01*
X206028Y146686D01*
X206030Y146671D01*
X206031Y146656D01*
Y146645D01*
Y146638D01*
Y146633D01*
Y146631D01*
X206030Y146576D01*
X206022Y146523D01*
X206011Y146474D01*
X205998Y146427D01*
X205982Y146383D01*
X205964Y146342D01*
X205944Y146303D01*
X205926Y146269D01*
X205906Y146238D01*
X205886Y146210D01*
X205868Y146187D01*
X205851Y146169D01*
X205838Y146152D01*
X205827Y146141D01*
X205820Y146134D01*
X205818Y146132D01*
X205777Y146096D01*
X205733Y146065D01*
X205687Y146039D01*
X205640Y146016D01*
X205593Y145996D01*
X205543Y145979D01*
X205498Y145967D01*
X205452Y145956D01*
X205411Y145947D01*
X205371Y145941D01*
X205336Y145936D01*
X205305Y145934D01*
X205280Y145932D01*
X205261Y145930D01*
X205245D01*
X205180Y145932D01*
X205118Y145937D01*
X205059Y145947D01*
X205005Y145959D01*
X204954Y145974D01*
X204907Y145990D01*
X204865Y146007D01*
X204825Y146023D01*
X204790Y146041D01*
X204759Y146058D01*
X204734Y146074D01*
X204712Y146089D01*
X204695Y146099D01*
X204683Y146110D01*
X204675Y146116D01*
X204674Y146118D01*
X204635Y146154D01*
X204603Y146194D01*
X204572Y146236D01*
X204546Y146280D01*
X204522Y146325D01*
X204503Y146371D01*
X204486Y146414D01*
X204472Y146458D01*
X204461Y146498D01*
X204451Y146536D01*
X204444Y146571D01*
X204439Y146600D01*
X204433Y146624D01*
X204432Y146642D01*
Y146649D01*
X204430Y146654D01*
Y146656D01*
Y146658D01*
X204748Y146691D01*
X204750Y146647D01*
X204754Y146607D01*
X204761Y146569D01*
X204768Y146533D01*
X204779Y146500D01*
X204790Y146471D01*
X204803Y146442D01*
X204816Y146418D01*
X204826Y146396D01*
X204839Y146376D01*
X204850Y146360D01*
X204861Y146345D01*
X204868Y146336D01*
X204876Y146327D01*
X204879Y146323D01*
X204881Y146321D01*
X204907Y146298D01*
X204936Y146278D01*
X204965Y146260D01*
X204994Y146243D01*
X205025Y146230D01*
X205054Y146220D01*
X205083Y146210D01*
X205110Y146203D01*
X205138Y146198D01*
X205161Y146194D01*
X205183Y146190D01*
X205203Y146189D01*
X205218Y146187D01*
X205240D01*
X205278Y146189D01*
X205314Y146192D01*
X205349Y146198D01*
X205382Y146207D01*
X205411Y146216D01*
X205440Y146227D01*
X205465Y146238D01*
X205489Y146250D01*
X205509Y146261D01*
X205527Y146274D01*
X205543Y146285D01*
X205556Y146294D01*
X205567Y146303D01*
X205574Y146309D01*
X205578Y146312D01*
X205580Y146314D01*
X205604Y146338D01*
X205624Y146363D01*
X205642Y146389D01*
X205656Y146416D01*
X205669Y146442D01*
X205680Y146467D01*
X205689Y146493D01*
X205696Y146516D01*
X205702Y146538D01*
X205705Y146558D01*
X205709Y146576D01*
X205711Y146593D01*
X205713Y146605D01*
Y146615D01*
Y146622D01*
Y146624D01*
X205711Y146656D01*
X205707Y146689D01*
X205700Y146722D01*
X205691Y146755D01*
X205667Y146818D01*
X205653Y146847D01*
X205640Y146875D01*
X205627Y146900D01*
X205613Y146924D01*
X205602Y146944D01*
X205591Y146962D01*
X205580Y146975D01*
X205573Y146986D01*
X205569Y146993D01*
X205567Y146995D01*
X205538Y147033D01*
X205502Y147075D01*
X205464Y147117D01*
X205420Y147160D01*
X205376Y147206D01*
X205329Y147250D01*
X205283Y147293D01*
X205236Y147335D01*
X205192Y147375D01*
X205150Y147412D01*
X205114Y147446D01*
X205079Y147474D01*
X205052Y147497D01*
X205041Y147506D01*
X205032Y147515D01*
X205025Y147521D01*
X205019Y147526D01*
X205016Y147528D01*
X205014Y147530D01*
X204967Y147570D01*
X204921Y147608D01*
X204879Y147645D01*
X204839Y147679D01*
X204803Y147714D01*
X204770Y147745D01*
X204741Y147774D01*
X204714Y147801D01*
X204688Y147825D01*
X204668Y147847D01*
X204650Y147865D01*
X204635Y147881D01*
X204624Y147894D01*
X204617Y147903D01*
X204612Y147908D01*
X204610Y147910D01*
X204561Y147972D01*
X204519Y148032D01*
X204484Y148089D01*
X204468Y148114D01*
X204455Y148140D01*
X204444Y148161D01*
X204433Y148181D01*
X204424Y148200D01*
X204419Y148216D01*
X204413Y148229D01*
X204410Y148238D01*
X204406Y148243D01*
Y148245D01*
X204393Y148283D01*
X204384Y148322D01*
X204379Y148358D01*
X204375Y148389D01*
X204373Y148418D01*
X204372Y148429D01*
Y148440D01*
Y148447D01*
Y148453D01*
Y148456D01*
Y148458D01*
X206035D01*
Y148161D01*
D02*
G37*
G36*
X237500Y115928D02*
X237203D01*
Y117167D01*
X234981D01*
Y117500D01*
X237500D01*
Y115928D01*
D02*
G37*
G36*
Y114031D02*
X237203D01*
Y115265D01*
X237172Y115245D01*
X237141Y115223D01*
X237114Y115201D01*
X237089Y115181D01*
X237069Y115163D01*
X237052Y115149D01*
X237041Y115139D01*
X237038Y115136D01*
X237019Y115120D01*
X237000Y115098D01*
X236978Y115074D01*
X236952Y115047D01*
X236927Y115018D01*
X236899Y114988D01*
X236847Y114927D01*
X236821Y114898D01*
X236797Y114870D01*
X236776Y114847D01*
X236757Y114823D01*
X236741Y114805D01*
X236730Y114792D01*
X236721Y114783D01*
X236719Y114779D01*
X236668Y114719D01*
X236619Y114663D01*
X236574Y114612D01*
X236532Y114564D01*
X236492Y114521D01*
X236455Y114482D01*
X236423Y114446D01*
X236393Y114415D01*
X236366Y114388D01*
X236343Y114366D01*
X236322Y114346D01*
X236306Y114330D01*
X236293Y114317D01*
X236284Y114310D01*
X236279Y114304D01*
X236277Y114302D01*
X236246Y114277D01*
X236217Y114251D01*
X236188Y114230D01*
X236160Y114209D01*
X236108Y114173D01*
X236084Y114158D01*
X236062Y114146D01*
X236042Y114133D01*
X236024Y114124D01*
X236008Y114115D01*
X235995Y114109D01*
X235984Y114104D01*
X235977Y114100D01*
X235971Y114097D01*
X235969D01*
X235915Y114077D01*
X235862Y114060D01*
X235811Y114049D01*
X235766Y114042D01*
X235746Y114040D01*
X235727Y114038D01*
X235713Y114037D01*
X235698Y114035D01*
X235687D01*
X235680D01*
X235675D01*
X235673D01*
X235618Y114037D01*
X235565Y114044D01*
X235516Y114055D01*
X235469Y114067D01*
X235425Y114084D01*
X235383Y114102D01*
X235345Y114122D01*
X235311Y114140D01*
X235280Y114160D01*
X235252Y114180D01*
X235229Y114199D01*
X235210Y114215D01*
X235194Y114228D01*
X235183Y114239D01*
X235176Y114246D01*
X235174Y114248D01*
X235138Y114290D01*
X235107Y114333D01*
X235081Y114379D01*
X235058Y114426D01*
X235038Y114473D01*
X235021Y114523D01*
X235008Y114568D01*
X234998Y114613D01*
X234988Y114655D01*
X234983Y114695D01*
X234978Y114730D01*
X234976Y114761D01*
X234974Y114786D01*
X234972Y114805D01*
Y114821D01*
X234974Y114886D01*
X234979Y114948D01*
X234988Y115007D01*
X235001Y115061D01*
X235016Y115112D01*
X235032Y115159D01*
X235049Y115201D01*
X235065Y115241D01*
X235083Y115276D01*
X235099Y115307D01*
X235116Y115332D01*
X235130Y115354D01*
X235141Y115371D01*
X235152Y115383D01*
X235158Y115391D01*
X235159Y115392D01*
X235196Y115431D01*
X235236Y115463D01*
X235278Y115494D01*
X235321Y115520D01*
X235367Y115544D01*
X235413Y115564D01*
X235456Y115580D01*
X235500Y115594D01*
X235540Y115605D01*
X235578Y115614D01*
X235613Y115622D01*
X235642Y115627D01*
X235665Y115633D01*
X235684Y115635D01*
X235691D01*
X235696Y115636D01*
X235698D01*
X235700D01*
X235733Y115318D01*
X235689Y115316D01*
X235649Y115312D01*
X235611Y115305D01*
X235575Y115298D01*
X235542Y115287D01*
X235513Y115276D01*
X235484Y115263D01*
X235460Y115251D01*
X235438Y115240D01*
X235418Y115227D01*
X235402Y115216D01*
X235387Y115205D01*
X235378Y115198D01*
X235369Y115190D01*
X235365Y115187D01*
X235363Y115185D01*
X235340Y115159D01*
X235320Y115130D01*
X235301Y115101D01*
X235285Y115072D01*
X235272Y115041D01*
X235261Y115012D01*
X235252Y114983D01*
X235245Y114956D01*
X235240Y114928D01*
X235236Y114905D01*
X235232Y114883D01*
X235230Y114863D01*
X235229Y114848D01*
Y114827D01*
X235230Y114788D01*
X235234Y114752D01*
X235240Y114717D01*
X235249Y114684D01*
X235258Y114655D01*
X235269Y114626D01*
X235280Y114601D01*
X235292Y114577D01*
X235303Y114557D01*
X235316Y114539D01*
X235327Y114523D01*
X235336Y114510D01*
X235345Y114499D01*
X235351Y114492D01*
X235354Y114488D01*
X235356Y114486D01*
X235380Y114462D01*
X235405Y114443D01*
X235431Y114424D01*
X235458Y114410D01*
X235484Y114397D01*
X235509Y114386D01*
X235534Y114377D01*
X235558Y114370D01*
X235580Y114364D01*
X235600Y114360D01*
X235618Y114357D01*
X235634Y114355D01*
X235647Y114353D01*
X235656D01*
X235664D01*
X235665D01*
X235698Y114355D01*
X235731Y114359D01*
X235764Y114366D01*
X235796Y114375D01*
X235860Y114399D01*
X235889Y114413D01*
X235917Y114426D01*
X235942Y114439D01*
X235966Y114453D01*
X235986Y114464D01*
X236004Y114475D01*
X236017Y114486D01*
X236028Y114493D01*
X236035Y114497D01*
X236037Y114499D01*
X236075Y114528D01*
X236117Y114564D01*
X236159Y114603D01*
X236202Y114646D01*
X236248Y114690D01*
X236292Y114737D01*
X236335Y114783D01*
X236377Y114830D01*
X236417Y114874D01*
X236454Y114916D01*
X236488Y114952D01*
X236515Y114987D01*
X236539Y115014D01*
X236548Y115025D01*
X236557Y115034D01*
X236563Y115041D01*
X236568Y115047D01*
X236570Y115050D01*
X236572Y115052D01*
X236612Y115100D01*
X236650Y115145D01*
X236686Y115187D01*
X236721Y115227D01*
X236756Y115263D01*
X236787Y115296D01*
X236816Y115325D01*
X236843Y115352D01*
X236867Y115378D01*
X236889Y115398D01*
X236907Y115416D01*
X236923Y115431D01*
X236936Y115442D01*
X236945Y115449D01*
X236950Y115454D01*
X236952Y115456D01*
X237014Y115505D01*
X237074Y115547D01*
X237131Y115582D01*
X237156Y115598D01*
X237181Y115611D01*
X237203Y115622D01*
X237223Y115633D01*
X237242Y115642D01*
X237258Y115647D01*
X237271Y115653D01*
X237280Y115656D01*
X237285Y115660D01*
X237287D01*
X237325Y115673D01*
X237364Y115682D01*
X237400Y115687D01*
X237431Y115691D01*
X237460Y115693D01*
X237471Y115695D01*
X237482D01*
X237489D01*
X237495D01*
X237498D01*
X237500D01*
Y114031D01*
D02*
G37*
G36*
X247458Y123667D02*
X246339D01*
Y123236D01*
X246341Y123197D01*
X246342Y123165D01*
X246344Y123139D01*
X246348Y123121D01*
X246350Y123106D01*
X246352Y123097D01*
Y123096D01*
X246361Y123066D01*
X246370Y123039D01*
X246382Y123014D01*
X246393Y122992D01*
X246403Y122972D01*
X246412Y122957D01*
X246417Y122948D01*
X246419Y122944D01*
X246439Y122915D01*
X246464Y122886D01*
X246494Y122859D01*
X246521Y122832D01*
X246546Y122810D01*
X246568Y122792D01*
X246577Y122784D01*
X246583Y122779D01*
X246586Y122777D01*
X246588Y122775D01*
X246612Y122757D01*
X246637Y122737D01*
X246692Y122697D01*
X246750Y122657D01*
X246807Y122619D01*
X246832Y122602D01*
X246856Y122586D01*
X246878Y122571D01*
X246898Y122559D01*
X246912Y122549D01*
X246925Y122542D01*
X246932Y122537D01*
X246934Y122535D01*
X247458Y122202D01*
Y121785D01*
X246774Y122220D01*
X246701Y122269D01*
X246668Y122295D01*
X246636Y122318D01*
X246606Y122342D01*
X246579Y122366D01*
X246554Y122388D01*
X246530Y122407D01*
X246508Y122426D01*
X246490Y122444D01*
X246475Y122459D01*
X246461Y122471D01*
X246452Y122482D01*
X246443Y122490D01*
X246439Y122495D01*
X246437Y122497D01*
X246413Y122526D01*
X246392Y122557D01*
X246370Y122590D01*
X246352Y122622D01*
X246335Y122651D01*
X246328Y122664D01*
X246322Y122675D01*
X246317Y122684D01*
X246315Y122692D01*
X246312Y122695D01*
Y122697D01*
X246301Y122631D01*
X246288Y122570D01*
X246271Y122513D01*
X246255Y122460D01*
X246235Y122413D01*
X246217Y122368D01*
X246197Y122329D01*
X246177Y122293D01*
X246157Y122262D01*
X246139Y122237D01*
X246122Y122213D01*
X246108Y122195D01*
X246095Y122180D01*
X246086Y122169D01*
X246080Y122164D01*
X246079Y122162D01*
X246044Y122131D01*
X246006Y122104D01*
X245969Y122080D01*
X245931Y122060D01*
X245893Y122044D01*
X245855Y122029D01*
X245818Y122018D01*
X245784Y122009D01*
X245751Y122002D01*
X245722Y121996D01*
X245695Y121993D01*
X245673Y121989D01*
X245653D01*
X245638Y121987D01*
X245631D01*
X245627D01*
X245589Y121989D01*
X245551Y121991D01*
X245514Y121996D01*
X245480Y122003D01*
X245447Y122011D01*
X245416Y122020D01*
X245387Y122031D01*
X245360Y122040D01*
X245336Y122049D01*
X245314Y122060D01*
X245294Y122069D01*
X245278Y122076D01*
X245265Y122084D01*
X245256Y122087D01*
X245251Y122091D01*
X245249Y122093D01*
X245218Y122113D01*
X245189Y122134D01*
X245163Y122158D01*
X245138Y122180D01*
X245116Y122204D01*
X245096Y122227D01*
X245079Y122251D01*
X245063Y122273D01*
X245050Y122293D01*
X245039Y122313D01*
X245028Y122329D01*
X245021Y122344D01*
X245016Y122357D01*
X245012Y122366D01*
X245008Y122371D01*
Y122373D01*
X244996Y122407D01*
X244985Y122446D01*
X244976Y122486D01*
X244968Y122526D01*
X244956Y122611D01*
X244952Y122653D01*
X244948Y122693D01*
X244945Y122733D01*
X244943Y122768D01*
X244941Y122801D01*
Y122830D01*
X244939Y122852D01*
Y124000D01*
X247458D01*
Y123667D01*
D02*
G37*
G36*
Y119965D02*
X247162D01*
Y121199D01*
X247131Y121179D01*
X247100Y121157D01*
X247072Y121135D01*
X247047Y121115D01*
X247027Y121097D01*
X247010Y121083D01*
X247000Y121073D01*
X246996Y121070D01*
X246978Y121054D01*
X246958Y121032D01*
X246936Y121008D01*
X246910Y120981D01*
X246885Y120951D01*
X246858Y120922D01*
X246805Y120861D01*
X246779Y120831D01*
X246756Y120804D01*
X246734Y120781D01*
X246716Y120757D01*
X246699Y120739D01*
X246688Y120726D01*
X246679Y120717D01*
X246677Y120713D01*
X246626Y120653D01*
X246577Y120597D01*
X246532Y120546D01*
X246490Y120498D01*
X246450Y120455D01*
X246413Y120416D01*
X246381Y120380D01*
X246352Y120349D01*
X246324Y120322D01*
X246301Y120300D01*
X246281Y120280D01*
X246264Y120264D01*
X246252Y120251D01*
X246242Y120244D01*
X246237Y120238D01*
X246235Y120236D01*
X246204Y120211D01*
X246175Y120185D01*
X246146Y120164D01*
X246119Y120143D01*
X246066Y120107D01*
X246042Y120092D01*
X246020Y120080D01*
X246000Y120067D01*
X245982Y120058D01*
X245966Y120049D01*
X245953Y120043D01*
X245942Y120038D01*
X245935Y120034D01*
X245929Y120031D01*
X245928D01*
X245873Y120011D01*
X245820Y119994D01*
X245769Y119983D01*
X245724Y119976D01*
X245704Y119974D01*
X245686Y119972D01*
X245671Y119971D01*
X245656Y119969D01*
X245645D01*
X245638D01*
X245633D01*
X245631D01*
X245576Y119971D01*
X245524Y119978D01*
X245474Y119989D01*
X245427Y120001D01*
X245383Y120018D01*
X245341Y120036D01*
X245303Y120056D01*
X245269Y120074D01*
X245238Y120094D01*
X245211Y120114D01*
X245187Y120133D01*
X245169Y120149D01*
X245152Y120162D01*
X245141Y120173D01*
X245134Y120180D01*
X245132Y120182D01*
X245096Y120224D01*
X245065Y120267D01*
X245039Y120313D01*
X245016Y120360D01*
X244996Y120407D01*
X244979Y120457D01*
X244967Y120502D01*
X244956Y120547D01*
X244947Y120589D01*
X244941Y120629D01*
X244936Y120664D01*
X244934Y120695D01*
X244932Y120720D01*
X244930Y120739D01*
Y120755D01*
X244932Y120820D01*
X244937Y120882D01*
X244947Y120941D01*
X244959Y120995D01*
X244974Y121046D01*
X244990Y121093D01*
X245007Y121135D01*
X245023Y121175D01*
X245041Y121210D01*
X245058Y121241D01*
X245074Y121266D01*
X245089Y121288D01*
X245099Y121305D01*
X245110Y121317D01*
X245116Y121325D01*
X245118Y121326D01*
X245154Y121365D01*
X245194Y121397D01*
X245236Y121428D01*
X245280Y121454D01*
X245325Y121477D01*
X245371Y121498D01*
X245414Y121514D01*
X245458Y121528D01*
X245498Y121539D01*
X245536Y121548D01*
X245571Y121556D01*
X245600Y121561D01*
X245624Y121567D01*
X245642Y121569D01*
X245649D01*
X245655Y121570D01*
X245656D01*
X245658D01*
X245691Y121252D01*
X245647Y121250D01*
X245607Y121246D01*
X245569Y121239D01*
X245533Y121232D01*
X245500Y121221D01*
X245471Y121210D01*
X245442Y121197D01*
X245418Y121185D01*
X245396Y121174D01*
X245376Y121161D01*
X245360Y121150D01*
X245345Y121139D01*
X245336Y121132D01*
X245327Y121124D01*
X245323Y121121D01*
X245321Y121119D01*
X245298Y121093D01*
X245278Y121064D01*
X245260Y121035D01*
X245243Y121006D01*
X245231Y120975D01*
X245220Y120946D01*
X245211Y120917D01*
X245203Y120890D01*
X245198Y120862D01*
X245194Y120839D01*
X245191Y120817D01*
X245189Y120797D01*
X245187Y120782D01*
Y120760D01*
X245189Y120722D01*
X245192Y120686D01*
X245198Y120651D01*
X245207Y120618D01*
X245216Y120589D01*
X245227Y120560D01*
X245238Y120535D01*
X245251Y120511D01*
X245261Y120491D01*
X245274Y120473D01*
X245285Y120457D01*
X245294Y120444D01*
X245303Y120433D01*
X245309Y120426D01*
X245312Y120422D01*
X245314Y120420D01*
X245338Y120396D01*
X245363Y120376D01*
X245389Y120358D01*
X245416Y120344D01*
X245442Y120331D01*
X245467Y120320D01*
X245493Y120311D01*
X245516Y120304D01*
X245538Y120298D01*
X245558Y120294D01*
X245576Y120291D01*
X245593Y120289D01*
X245605Y120287D01*
X245615D01*
X245622D01*
X245624D01*
X245656Y120289D01*
X245689Y120293D01*
X245722Y120300D01*
X245755Y120309D01*
X245818Y120333D01*
X245848Y120347D01*
X245875Y120360D01*
X245900Y120373D01*
X245924Y120387D01*
X245944Y120398D01*
X245962Y120409D01*
X245975Y120420D01*
X245986Y120427D01*
X245993Y120431D01*
X245995Y120433D01*
X246033Y120462D01*
X246075Y120498D01*
X246117Y120537D01*
X246161Y120580D01*
X246206Y120624D01*
X246250Y120671D01*
X246293Y120717D01*
X246335Y120764D01*
X246375Y120808D01*
X246412Y120850D01*
X246446Y120886D01*
X246474Y120921D01*
X246497Y120948D01*
X246506Y120959D01*
X246515Y120968D01*
X246521Y120975D01*
X246526Y120981D01*
X246528Y120984D01*
X246530Y120986D01*
X246570Y121033D01*
X246608Y121079D01*
X246645Y121121D01*
X246679Y121161D01*
X246714Y121197D01*
X246745Y121230D01*
X246774Y121259D01*
X246801Y121286D01*
X246825Y121312D01*
X246847Y121332D01*
X246865Y121350D01*
X246881Y121365D01*
X246894Y121376D01*
X246903Y121383D01*
X246908Y121388D01*
X246910Y121390D01*
X246972Y121439D01*
X247032Y121481D01*
X247089Y121516D01*
X247114Y121532D01*
X247140Y121545D01*
X247162Y121556D01*
X247182Y121567D01*
X247200Y121576D01*
X247216Y121581D01*
X247229Y121587D01*
X247238Y121590D01*
X247243Y121594D01*
X247245D01*
X247283Y121607D01*
X247322Y121616D01*
X247358Y121621D01*
X247389Y121625D01*
X247418Y121627D01*
X247429Y121629D01*
X247440D01*
X247447D01*
X247453D01*
X247456D01*
X247458D01*
Y119965D01*
D02*
G37*
G36*
X246856Y119627D02*
X246910Y119614D01*
X246963Y119599D01*
X247012Y119583D01*
X247058Y119563D01*
X247100Y119541D01*
X247138Y119521D01*
X247172Y119499D01*
X247203Y119477D01*
X247231Y119457D01*
X247254Y119437D01*
X247274Y119421D01*
X247289Y119406D01*
X247300Y119395D01*
X247307Y119388D01*
X247309Y119386D01*
X247342Y119344D01*
X247373Y119301D01*
X247398Y119254D01*
X247420Y119208D01*
X247438Y119161D01*
X247453Y119113D01*
X247465Y119068D01*
X247476Y119024D01*
X247484Y118984D01*
X247489Y118946D01*
X247495Y118911D01*
X247496Y118882D01*
X247498Y118859D01*
X247500Y118840D01*
Y118826D01*
X247496Y118749D01*
X247487Y118676D01*
X247471Y118609D01*
X247453Y118545D01*
X247429Y118485D01*
X247404Y118431D01*
X247376Y118382D01*
X247347Y118336D01*
X247318Y118296D01*
X247291Y118262D01*
X247265Y118233D01*
X247242Y118207D01*
X247222Y118189D01*
X247207Y118174D01*
X247198Y118167D01*
X247194Y118163D01*
X247147Y118129D01*
X247098Y118098D01*
X247049Y118070D01*
X246998Y118047D01*
X246949Y118029D01*
X246899Y118012D01*
X246852Y117999D01*
X246807Y117989D01*
X246765Y117980D01*
X246726Y117974D01*
X246692Y117969D01*
X246661Y117967D01*
X246637Y117965D01*
X246619Y117963D01*
X246614D01*
X246608D01*
X246606D01*
X246605D01*
X246539Y117965D01*
X246477Y117972D01*
X246417Y117985D01*
X246361Y117998D01*
X246310Y118016D01*
X246261Y118036D01*
X246217Y118056D01*
X246177Y118076D01*
X246141Y118098D01*
X246108Y118118D01*
X246080Y118138D01*
X246059Y118154D01*
X246040Y118169D01*
X246028Y118182D01*
X246019Y118189D01*
X246017Y118191D01*
X245977Y118234D01*
X245940Y118280D01*
X245911Y118327D01*
X245884Y118374D01*
X245862Y118422D01*
X245844Y118467D01*
X245827Y118513D01*
X245816Y118555D01*
X245807Y118595D01*
X245800Y118633D01*
X245795Y118666D01*
X245791Y118695D01*
X245789Y118717D01*
X245787Y118735D01*
Y118749D01*
X245789Y118795D01*
X245795Y118842D01*
X245802Y118886D01*
X245813Y118930D01*
X245824Y118970D01*
X245836Y119010D01*
X245851Y119046D01*
X245866Y119081D01*
X245882Y119112D01*
X245895Y119141D01*
X245909Y119164D01*
X245920Y119184D01*
X245931Y119202D01*
X245938Y119213D01*
X245944Y119223D01*
X245946Y119224D01*
X245267Y119090D01*
Y118081D01*
X244972D01*
Y119335D01*
X246266Y119579D01*
X246304Y119288D01*
X246266Y119261D01*
X246232Y119230D01*
X246202Y119199D01*
X246177Y119170D01*
X246157Y119142D01*
X246142Y119121D01*
X246137Y119112D01*
X246133Y119106D01*
X246130Y119102D01*
Y119101D01*
X246106Y119055D01*
X246090Y119008D01*
X246077Y118962D01*
X246070Y118920D01*
X246066Y118900D01*
X246064Y118884D01*
X246062Y118868D01*
Y118855D01*
X246060Y118844D01*
Y118829D01*
X246062Y118786D01*
X246068Y118744D01*
X246075Y118704D01*
X246084Y118666D01*
X246095Y118631D01*
X246110Y118600D01*
X246122Y118571D01*
X246137Y118544D01*
X246151Y118520D01*
X246164Y118500D01*
X246177Y118482D01*
X246190Y118467D01*
X246199Y118455D01*
X246206Y118447D01*
X246212Y118442D01*
X246213Y118440D01*
X246242Y118414D01*
X246275Y118391D01*
X246308Y118371D01*
X246342Y118354D01*
X246379Y118340D01*
X246413Y118327D01*
X246446Y118318D01*
X246479Y118309D01*
X246512Y118303D01*
X246539Y118298D01*
X246566Y118294D01*
X246588Y118292D01*
X246606D01*
X246621Y118291D01*
X246628D01*
X246632D01*
X246683Y118292D01*
X246730Y118298D01*
X246776Y118305D01*
X246819Y118314D01*
X246859Y118327D01*
X246896Y118340D01*
X246929Y118354D01*
X246959Y118367D01*
X246987Y118382D01*
X247010Y118396D01*
X247030Y118409D01*
X247047Y118422D01*
X247060Y118431D01*
X247071Y118438D01*
X247076Y118444D01*
X247078Y118445D01*
X247107Y118474D01*
X247132Y118506D01*
X247156Y118538D01*
X247174Y118569D01*
X247191Y118602D01*
X247205Y118633D01*
X247216Y118664D01*
X247223Y118693D01*
X247231Y118720D01*
X247236Y118746D01*
X247240Y118769D01*
X247243Y118788D01*
Y118804D01*
X247245Y118815D01*
Y118826D01*
X247243Y118860D01*
X247240Y118893D01*
X247234Y118924D01*
X247227Y118953D01*
X247218Y118982D01*
X247207Y119008D01*
X247198Y119033D01*
X247185Y119055D01*
X247174Y119075D01*
X247165Y119091D01*
X247154Y119108D01*
X247145Y119121D01*
X247138Y119132D01*
X247132Y119139D01*
X247129Y119142D01*
X247127Y119144D01*
X247103Y119168D01*
X247078Y119190D01*
X247050Y119208D01*
X247021Y119226D01*
X246992Y119241D01*
X246961Y119254D01*
X246905Y119275D01*
X246878Y119284D01*
X246852Y119292D01*
X246829Y119297D01*
X246808Y119303D01*
X246792Y119306D01*
X246781Y119308D01*
X246772Y119310D01*
X246770D01*
X246797Y119634D01*
X246856Y119627D01*
D02*
G37*
%LPC*%
G36*
X216667Y140240D02*
X215872D01*
X215821Y140239D01*
X215773Y140235D01*
X215730Y140229D01*
X215690Y140222D01*
X215653Y140213D01*
X215619Y140204D01*
X215588Y140193D01*
X215562Y140182D01*
X215539Y140171D01*
X215519Y140160D01*
X215500Y140151D01*
X215486Y140142D01*
X215477Y140135D01*
X215468Y140129D01*
X215464Y140126D01*
X215462Y140124D01*
X215439Y140102D01*
X215419Y140078D01*
X215402Y140055D01*
X215386Y140029D01*
X215373Y140006D01*
X215364Y139980D01*
X215355Y139956D01*
X215348Y139935D01*
X215342Y139913D01*
X215338Y139893D01*
X215335Y139876D01*
X215333Y139860D01*
X215331Y139847D01*
Y139838D01*
Y139833D01*
Y139831D01*
X215335Y139785D01*
X215342Y139743D01*
X215353Y139705D01*
X215364Y139673D01*
X215377Y139645D01*
X215382Y139632D01*
X215388Y139623D01*
X215393Y139616D01*
X215395Y139611D01*
X215399Y139607D01*
Y139605D01*
X215426Y139569D01*
X215457Y139538D01*
X215489Y139512D01*
X215522Y139490D01*
X215551Y139474D01*
X215562Y139469D01*
X215573Y139463D01*
X215582Y139460D01*
X215590Y139456D01*
X215593Y139454D01*
X215595D01*
X215620Y139447D01*
X215646Y139440D01*
X215704Y139429D01*
X215764Y139420D01*
X215821Y139414D01*
X215848Y139412D01*
X215872Y139410D01*
X215895D01*
X215914Y139409D01*
X216667D01*
Y140240D01*
D02*
G37*
G36*
X203086Y147049D02*
X202333D01*
Y146218D01*
X203128D01*
X203179Y146220D01*
X203227Y146223D01*
X203270Y146229D01*
X203310Y146236D01*
X203347Y146245D01*
X203381Y146254D01*
X203412Y146265D01*
X203438Y146276D01*
X203462Y146287D01*
X203482Y146298D01*
X203500Y146307D01*
X203514Y146316D01*
X203523Y146323D01*
X203532Y146329D01*
X203536Y146332D01*
X203538Y146334D01*
X203562Y146356D01*
X203582Y146380D01*
X203598Y146403D01*
X203614Y146429D01*
X203627Y146452D01*
X203636Y146478D01*
X203645Y146502D01*
X203653Y146523D01*
X203658Y146545D01*
X203662Y146565D01*
X203665Y146582D01*
X203667Y146598D01*
X203669Y146611D01*
Y146620D01*
Y146625D01*
Y146627D01*
X203665Y146673D01*
X203658Y146715D01*
X203647Y146753D01*
X203636Y146786D01*
X203623Y146813D01*
X203618Y146826D01*
X203612Y146835D01*
X203607Y146842D01*
X203605Y146847D01*
X203602Y146851D01*
Y146853D01*
X203574Y146889D01*
X203543Y146920D01*
X203511Y146946D01*
X203478Y146968D01*
X203449Y146984D01*
X203438Y146989D01*
X203427Y146995D01*
X203418Y146999D01*
X203411Y147002D01*
X203407Y147004D01*
X203405D01*
X203380Y147011D01*
X203354Y147019D01*
X203296Y147029D01*
X203236Y147038D01*
X203179Y147044D01*
X203152Y147046D01*
X203128Y147048D01*
X203105D01*
X203086Y147049D01*
D02*
G37*
G36*
X207229Y148245D02*
X207220D01*
X207171Y148242D01*
X207123Y148234D01*
X207080Y148222D01*
X207041Y148207D01*
X207023Y148202D01*
X207009Y148194D01*
X206996Y148187D01*
X206985Y148181D01*
X206976Y148178D01*
X206969Y148174D01*
X206965Y148171D01*
X206963D01*
X206921Y148140D01*
X206883Y148103D01*
X206850Y148067D01*
X206825Y148030D01*
X206803Y147998D01*
X206796Y147985D01*
X206788Y147972D01*
X206783Y147963D01*
X206779Y147954D01*
X206776Y147950D01*
Y147949D01*
X206754Y147892D01*
X206737Y147837D01*
X206725Y147787D01*
X206717Y147739D01*
X206714Y147719D01*
X206712Y147699D01*
X206710Y147683D01*
Y147668D01*
X206708Y147657D01*
Y147648D01*
Y147643D01*
Y147641D01*
X206710Y147597D01*
X206714Y147555D01*
X206721Y147515D01*
X206732Y147477D01*
X206743Y147443D01*
X206754Y147410D01*
X206768Y147381D01*
X206781Y147353D01*
X206794Y147330D01*
X206808Y147308D01*
X206819Y147290D01*
X206832Y147275D01*
X206841Y147264D01*
X206849Y147255D01*
X206852Y147250D01*
X206854Y147248D01*
X206881Y147221D01*
X206910Y147199D01*
X206941Y147177D01*
X206970Y147160D01*
X207001Y147146D01*
X207031Y147133D01*
X207060Y147124D01*
X207087Y147115D01*
X207112Y147109D01*
X207134Y147104D01*
X207156Y147102D01*
X207174Y147099D01*
X207189D01*
X207200Y147097D01*
X207209D01*
X207247Y147099D01*
X207285Y147104D01*
X207320Y147111D01*
X207353Y147120D01*
X207384Y147131D01*
X207413Y147144D01*
X207438Y147159D01*
X207464Y147171D01*
X207484Y147186D01*
X207504Y147201D01*
X207520Y147213D01*
X207533Y147224D01*
X207544Y147233D01*
X207553Y147241D01*
X207557Y147246D01*
X207558Y147248D01*
X207584Y147277D01*
X207604Y147310D01*
X207624Y147343D01*
X207640Y147375D01*
X207653Y147410D01*
X207664Y147444D01*
X207673Y147477D01*
X207680Y147510D01*
X207687Y147541D01*
X207691Y147568D01*
X207695Y147594D01*
X207697Y147616D01*
X207698Y147634D01*
Y147648D01*
Y147655D01*
Y147659D01*
X207697Y147708D01*
X207693Y147756D01*
X207686Y147799D01*
X207677Y147841D01*
X207666Y147879D01*
X207653Y147914D01*
X207640Y147947D01*
X207627Y147976D01*
X207615Y148001D01*
X207602Y148025D01*
X207589Y148043D01*
X207578Y148060D01*
X207569Y148072D01*
X207562Y148081D01*
X207558Y148087D01*
X207557Y148089D01*
X207529Y148116D01*
X207502Y148140D01*
X207473Y148161D01*
X207445Y148180D01*
X207416Y148194D01*
X207389Y148207D01*
X207362Y148218D01*
X207336Y148225D01*
X207311Y148232D01*
X207289Y148236D01*
X207269Y148240D01*
X207253Y148243D01*
X207240D01*
X207229Y148245D01*
D02*
G37*
G36*
X246049Y123667D02*
X245218D01*
Y122872D01*
X245220Y122821D01*
X245223Y122773D01*
X245229Y122730D01*
X245236Y122690D01*
X245245Y122653D01*
X245254Y122619D01*
X245265Y122588D01*
X245276Y122562D01*
X245287Y122539D01*
X245298Y122519D01*
X245307Y122500D01*
X245316Y122486D01*
X245323Y122477D01*
X245329Y122468D01*
X245332Y122464D01*
X245334Y122462D01*
X245356Y122439D01*
X245380Y122418D01*
X245403Y122402D01*
X245429Y122386D01*
X245452Y122373D01*
X245478Y122364D01*
X245502Y122355D01*
X245524Y122347D01*
X245545Y122342D01*
X245565Y122338D01*
X245582Y122335D01*
X245598Y122333D01*
X245611Y122331D01*
X245620D01*
X245625D01*
X245627D01*
X245673Y122335D01*
X245715Y122342D01*
X245753Y122353D01*
X245786Y122364D01*
X245813Y122377D01*
X245826Y122382D01*
X245835Y122388D01*
X245842Y122393D01*
X245848Y122395D01*
X245851Y122398D01*
X245853D01*
X245889Y122426D01*
X245920Y122457D01*
X245946Y122490D01*
X245968Y122522D01*
X245984Y122551D01*
X245989Y122562D01*
X245995Y122573D01*
X245999Y122582D01*
X246002Y122590D01*
X246004Y122593D01*
Y122595D01*
X246011Y122620D01*
X246019Y122646D01*
X246029Y122704D01*
X246039Y122764D01*
X246044Y122821D01*
X246046Y122848D01*
X246048Y122872D01*
Y122895D01*
X246049Y122914D01*
Y123667D01*
D02*
G37*
%LPD*%
D10*
X223299Y134850D02*
Y141150D01*
X210701Y134850D02*
X223299D01*
X210701D02*
Y141150D01*
X223299D01*
X231705Y106149D02*
Y113851D01*
X218295Y106149D02*
X231705D01*
X218295D02*
Y113851D01*
X231705D01*
X206649Y125705D02*
X214351D01*
Y112295D02*
Y125705D01*
X206649Y112295D02*
X214351D01*
X206649D02*
Y125705D01*
X196149D02*
X203851D01*
Y112295D02*
Y125705D01*
X196149Y112295D02*
X203851D01*
X196149D02*
Y125705D01*
X210701Y144350D02*
Y150650D01*
X223299D01*
Y144350D02*
Y150650D01*
X210701Y144350D02*
X223299D01*
X234252Y110216D02*
Y124784D01*
Y110216D02*
X240748D01*
Y124784D01*
X234252D02*
X240748D01*
X244350Y117701D02*
Y130299D01*
Y117701D02*
X250650D01*
Y130299D01*
X244350D02*
X250650D01*
M02*
