M48
;Layer_Color=9474304
;FILE_FORMAT=2:4
INCH,TZ
;TYPE=PLATED
T01F00S00C0.0079
T02F00S00C0.0197
T03F00S00C0.0201
T04F00S00C0.0280
T05F00S00C0.0402
;TYPE=NON_PLATED
T06F00S00C0.0394
%
T01
X4100Y4056
Y4350
Y4644
X13663Y9385
X13939Y9661
X13663Y9936
X13939Y10212
X14215Y9936
X14490Y9661
X14215Y9385
X14490Y9109
X14766Y9385
X14766Y9936
X14490Y10212
X13939Y9109
X22250Y12150
Y12444
Y12738
T02
X14350Y2700
X13200Y6750
X12750Y7150
X12300Y7500
X6600Y6550
X9650Y10700
X12700Y10300
X24225Y9467
X31850Y10900
X31250Y12150
T03
X24400Y3500
X21550Y4300
X20500Y5800
X19000Y3950
X16700Y4250
X16600Y7450
X12250Y3900
X7500Y5150
X5600Y8350
X4350Y9900
X4400Y11700
X12150Y12600
X14350Y12300
X16650Y12400
X22450Y9000
T04
X29400Y3600
Y4600
Y5600
Y6600
Y7600
X35400
Y6600
Y5600
Y4600
Y3600
Y8850
Y9850
Y10850
Y11850
Y12850
X29400
Y11850
Y10850
Y9850
Y8850
T05
X24350Y2050
X25350
X23350
X22350
X20800
X19800
X18800
X17800
X16200
X15200
X13150Y2000
X12150
X11150
X10150
X9150
X2700
X1700
T06
X2520Y9099
Y12249
M30
