G04*
G04 #@! TF.GenerationSoftware,Altium Limited,Altium Designer,24.7.2 (38)*
G04*
G04 Layer_Color=0*
%FSLAX25Y25*%
%MOIN*%
G70*
G04*
G04 #@! TF.SameCoordinates,557B2C77-FFCE-42D9-A2FA-4134FEC932EB*
G04*
G04*
G04 #@! TF.FilePolarity,Positive*
G04*
G01*
G75*
%ADD76C,0.00394*%
D76*
X64500Y40532D02*
Y44469D01*
X62532Y42500D02*
X66469D01*
X212531Y35500D02*
X216469D01*
X214500Y33531D02*
Y37468D01*
X198031Y35500D02*
X201969D01*
X200000Y33531D02*
Y37468D01*
X174500Y29531D02*
Y33468D01*
X172531Y31500D02*
X176469D01*
X96500Y67532D02*
Y71469D01*
X94532Y69500D02*
X98469D01*
X88532Y146000D02*
X92469D01*
X90500Y144032D02*
Y147968D01*
X80000Y129032D02*
Y132968D01*
X78031Y131000D02*
X81968D01*
X41500Y18032D02*
Y21969D01*
X39531Y20000D02*
X43468D01*
X42000Y54031D02*
Y57968D01*
X40031Y56000D02*
X43968D01*
X53031Y50000D02*
X56968D01*
X55000Y48031D02*
Y51968D01*
X15032Y46500D02*
X18969D01*
X17000Y44532D02*
Y48469D01*
X25532Y46500D02*
X29469D01*
X27500Y44532D02*
Y48469D01*
X76531Y94500D02*
X80468D01*
X78500Y92532D02*
Y96469D01*
X76531Y112500D02*
X80468D01*
X78500Y110531D02*
Y114469D01*
X86532Y112500D02*
X90469D01*
X88500Y110531D02*
Y114469D01*
X98532Y131000D02*
X102469D01*
X100500Y129032D02*
Y132968D01*
X162531Y31500D02*
X166469D01*
X164500Y29531D02*
Y33468D01*
X229000Y33531D02*
Y37468D01*
X227031Y35500D02*
X230968D01*
X94532Y37500D02*
X98469D01*
X96500Y35531D02*
Y39469D01*
X83031Y50000D02*
X86968D01*
X85000Y48031D02*
Y51968D01*
X133000Y32531D02*
Y36468D01*
X131032Y34500D02*
X134968D01*
X134500Y44032D02*
Y47969D01*
X132531Y46000D02*
X136469D01*
X268032Y24000D02*
X271969D01*
X270000Y22031D02*
Y25969D01*
X268032Y42000D02*
X271969D01*
X270000Y40031D02*
Y43968D01*
X268032Y33000D02*
X271969D01*
X270000Y31032D02*
Y34969D01*
X268032Y51000D02*
X271969D01*
X270000Y49031D02*
Y52969D01*
X268032Y60000D02*
X271969D01*
X270000Y58031D02*
Y61968D01*
X268032Y69000D02*
X271969D01*
X270000Y67032D02*
Y70969D01*
X268032Y78000D02*
X271969D01*
X270000Y76032D02*
Y79969D01*
X267988Y96000D02*
X271925D01*
X269957Y94032D02*
Y97969D01*
X268032Y87000D02*
X271969D01*
X270000Y85031D02*
Y88968D01*
Y130032D02*
Y133968D01*
X268032Y132000D02*
X271969D01*
X268032Y141000D02*
X271969D01*
X270000Y139032D02*
Y142968D01*
X268032Y123000D02*
X271969D01*
X270000Y121031D02*
Y124969D01*
X268032Y114000D02*
X271969D01*
X270000Y112031D02*
Y115969D01*
X268032Y105000D02*
X271969D01*
X270000Y103032D02*
Y106968D01*
X90500Y129032D02*
Y132968D01*
X88532Y131000D02*
X92469D01*
X89531Y82000D02*
X93468D01*
X91500Y80032D02*
Y83969D01*
X89531Y92000D02*
X93468D01*
X91500Y90031D02*
Y93968D01*
X114500Y42031D02*
Y45968D01*
X112531Y44000D02*
X116469D01*
M02*
