<?xml version="1.0" encoding="utf-8"?><svg enable-background="new 0 0 130 90" viewBox="0 0 130 90" xmlns="http://www.w3.org/2000/svg"><path d="m130 0h-10v2h10zm-20 0h-10v2h10zm-20 0h-10v2h10zm-20 0h-10v2h10zm-20 0h-10v2h10zm-20 0h-10v2h10zm-20 0h-10v2h10zm-8 10h-2v10h2zm0 20h-2v10h2zm0 20h-2v10h2zm0 20h-2v10h2zm8 18h-10v2h10zm20 0h-10v2h10zm20 0h-10v2h10zm20 0h-10v2h10zm20 0h-10v2h10zm20 0h-10v2h10zm20 0h-10v2h10zm0-18h-2v10h2zm0-20h-2v10h2zm0-20h-2v10h2zm0-20h-2v10h2z" fill="#373a36"/><path d="m60.9 975.9v17.3h-17.3v8.2h17.3v17.3h8.2v-17.3h17.3v-8.2h-17.3v-17.3z" fill="none" stroke="#373a36" stroke-linecap="round" stroke-width="2" transform="translate(0 -952.36217)"/></svg>
