G04*
G04 #@! TF.GenerationSoftware,Altium Limited,Altium Designer,24.7.2 (38)*
G04*
G04 Layer_Color=16711935*
%FSLAX25Y25*%
%MOIN*%
G70*
G04*
G04 #@! TF.SameCoordinates,557B2C77-FFCE-42D9-A2FA-4134FEC932EB*
G04*
G04*
G04 #@! TF.FilePolarity,Negative*
G04*
G01*
G75*
%ADD23R,0.04724X0.04724*%
%ADD29R,0.04940X0.05733*%
%ADD30R,0.03937X0.04528*%
%ADD31R,0.05733X0.04940*%
%ADD36R,0.04724X0.04724*%
G04:AMPARAMS|DCode=49|XSize=34.13mil|YSize=15.63mil|CornerRadius=2.87mil|HoleSize=0mil|Usage=FLASHONLY|Rotation=0.000|XOffset=0mil|YOffset=0mil|HoleType=Round|Shape=RoundedRectangle|*
%AMROUNDEDRECTD49*
21,1,0.03413,0.00989,0,0,0.0*
21,1,0.02839,0.01563,0,0,0.0*
1,1,0.00574,0.01420,-0.00494*
1,1,0.00574,-0.01420,-0.00494*
1,1,0.00574,-0.01420,0.00494*
1,1,0.00574,0.01420,0.00494*
%
%ADD49ROUNDEDRECTD49*%
%ADD50R,0.03607X0.09749*%
%ADD56C,0.02375*%
%ADD57C,0.04737*%
%ADD58C,0.06194*%
%ADD59R,0.06194X0.06194*%
%ADD60R,0.05595X0.05595*%
%ADD61C,0.05595*%
%ADD62C,0.04343*%
D23*
X247500Y127543D02*
D03*
Y120457D02*
D03*
D29*
X221749Y110000D02*
D03*
X228251D02*
D03*
D30*
X237500Y122126D02*
D03*
Y112874D02*
D03*
D31*
X210500Y115749D02*
D03*
Y122251D02*
D03*
X200000Y115749D02*
D03*
Y122251D02*
D03*
D36*
X213457Y138000D02*
D03*
X220543D02*
D03*
Y147500D02*
D03*
X213457D02*
D03*
D49*
X218483Y120503D02*
D03*
Y122472D02*
D03*
Y124440D02*
D03*
Y126409D02*
D03*
Y128377D02*
D03*
X226517D02*
D03*
Y126409D02*
D03*
Y124440D02*
D03*
Y122472D02*
D03*
Y120503D02*
D03*
D50*
X222500Y124440D02*
D03*
D56*
X41000Y46440D02*
D03*
X222500Y121500D02*
D03*
Y124440D02*
D03*
Y127380D02*
D03*
X41000Y43500D02*
D03*
Y40560D02*
D03*
D57*
X25205Y122488D02*
D03*
Y90992D02*
D03*
X312500Y121500D02*
D03*
X242255Y94666D02*
D03*
X143500Y27000D02*
D03*
X96500Y107000D02*
D03*
X66000Y65500D02*
D03*
X127000Y103000D02*
D03*
X132000Y67500D02*
D03*
X127500Y71500D02*
D03*
X123000Y75000D02*
D03*
X318500Y109000D02*
D03*
D58*
X178000Y20500D02*
D03*
X188000D02*
D03*
X198000D02*
D03*
X17000Y20000D02*
D03*
X152000Y20500D02*
D03*
X91500Y20000D02*
D03*
X101500D02*
D03*
X111500D02*
D03*
X121500D02*
D03*
X223500Y20500D02*
D03*
X233500D02*
D03*
X243500D02*
D03*
D59*
X208000D02*
D03*
X27000Y20000D02*
D03*
X162000Y20500D02*
D03*
X131500Y20000D02*
D03*
X253500Y20500D02*
D03*
D60*
X354000Y36000D02*
D03*
Y88500D02*
D03*
D61*
Y46000D02*
D03*
Y56000D02*
D03*
Y66000D02*
D03*
Y76000D02*
D03*
X294000D02*
D03*
Y66000D02*
D03*
Y56000D02*
D03*
Y46000D02*
D03*
Y36000D02*
D03*
X354000Y98500D02*
D03*
Y108500D02*
D03*
Y118500D02*
D03*
Y128500D02*
D03*
X294000D02*
D03*
Y118500D02*
D03*
Y108500D02*
D03*
Y98500D02*
D03*
Y88500D02*
D03*
D62*
X56000Y83500D02*
D03*
X43500Y99000D02*
D03*
X44000Y117000D02*
D03*
X143500Y123000D02*
D03*
X166500Y124000D02*
D03*
X166000Y74500D02*
D03*
X244000Y35000D02*
D03*
X215500Y43000D02*
D03*
X190000Y39500D02*
D03*
X122500Y39000D02*
D03*
X224500Y90000D02*
D03*
X205000Y58000D02*
D03*
X167000Y42500D02*
D03*
X121500Y126000D02*
D03*
X75000Y51500D02*
D03*
M02*
