G04*
G04 #@! TF.GenerationSoftware,Altium Limited,Altium Designer,24.7.2 (38)*
G04*
G04 Layer_Color=8388736*
%FSLAX25Y25*%
%MOIN*%
G70*
G04*
G04 #@! TF.SameCoordinates,557B2C77-FFCE-42D9-A2FA-4134FEC932EB*
G04*
G04*
G04 #@! TF.FilePolarity,Negative*
G04*
G01*
G75*
%ADD23R,0.04724X0.04724*%
%ADD24R,0.04550X0.05544*%
%ADD25R,0.05143X0.04545*%
%ADD27R,0.05544X0.04550*%
%ADD29R,0.04940X0.05733*%
%ADD30R,0.03937X0.04528*%
%ADD31R,0.05733X0.04940*%
%ADD36R,0.04724X0.04724*%
G04:AMPARAMS|DCode=37|XSize=85.56mil|YSize=31.62mil|CornerRadius=6.95mil|HoleSize=0mil|Usage=FLASHONLY|Rotation=0.000|XOffset=0mil|YOffset=0mil|HoleType=Round|Shape=RoundedRectangle|*
%AMROUNDEDRECTD37*
21,1,0.08556,0.01772,0,0,0.0*
21,1,0.07165,0.03162,0,0,0.0*
1,1,0.01391,0.03583,-0.00886*
1,1,0.01391,-0.03583,-0.00886*
1,1,0.01391,-0.03583,0.00886*
1,1,0.01391,0.03583,0.00886*
%
%ADD37ROUNDEDRECTD37*%
%ADD38R,0.04343X0.06706*%
%ADD39R,0.06706X0.04343*%
%ADD40R,0.04343X0.04343*%
%ADD41R,0.07887X0.04824*%
%ADD42R,0.01484X0.02370*%
%ADD43R,0.09461X0.05524*%
%ADD44R,0.06706X0.07099*%
%ADD45R,0.07099X0.03556*%
%ADD46R,0.14304X0.05800*%
%ADD47R,0.02370X0.01484*%
%ADD48R,0.08280X0.05131*%
G04:AMPARAMS|DCode=49|XSize=34.13mil|YSize=15.63mil|CornerRadius=2.87mil|HoleSize=0mil|Usage=FLASHONLY|Rotation=0.000|XOffset=0mil|YOffset=0mil|HoleType=Round|Shape=RoundedRectangle|*
%AMROUNDEDRECTD49*
21,1,0.03413,0.00989,0,0,0.0*
21,1,0.02839,0.01563,0,0,0.0*
1,1,0.00574,0.01420,-0.00494*
1,1,0.00574,-0.01420,-0.00494*
1,1,0.00574,-0.01420,0.00494*
1,1,0.00574,0.01420,0.00494*
%
%ADD49ROUNDEDRECTD49*%
%ADD50R,0.03607X0.09749*%
G04:AMPARAMS|DCode=51|XSize=14.63mil|YSize=37.07mil|CornerRadius=3.33mil|HoleSize=0mil|Usage=FLASHONLY|Rotation=0.000|XOffset=0mil|YOffset=0mil|HoleType=Round|Shape=RoundedRectangle|*
%AMROUNDEDRECTD51*
21,1,0.01463,0.03041,0,0,0.0*
21,1,0.00797,0.03707,0,0,0.0*
1,1,0.00666,0.00399,-0.01521*
1,1,0.00666,-0.00399,-0.01521*
1,1,0.00666,-0.00399,0.01521*
1,1,0.00666,0.00399,0.01521*
%
%ADD51ROUNDEDRECTD51*%
G04:AMPARAMS|DCode=52|XSize=15.63mil|YSize=38.07mil|CornerRadius=3.83mil|HoleSize=0mil|Usage=FLASHONLY|Rotation=0.000|XOffset=0mil|YOffset=0mil|HoleType=Round|Shape=RoundedRectangle|*
%AMROUNDEDRECTD52*
21,1,0.01563,0.03041,0,0,0.0*
21,1,0.00797,0.03807,0,0,0.0*
1,1,0.00766,0.00399,-0.01521*
1,1,0.00766,-0.00399,-0.01521*
1,1,0.00766,-0.00399,0.01521*
1,1,0.00766,0.00399,0.01521*
%
%ADD52ROUNDEDRECTD52*%
G04:AMPARAMS|DCode=53|XSize=37.07mil|YSize=14.63mil|CornerRadius=3.33mil|HoleSize=0mil|Usage=FLASHONLY|Rotation=0.000|XOffset=0mil|YOffset=0mil|HoleType=Round|Shape=RoundedRectangle|*
%AMROUNDEDRECTD53*
21,1,0.03707,0.00797,0,0,0.0*
21,1,0.03041,0.01463,0,0,0.0*
1,1,0.00666,0.01521,-0.00399*
1,1,0.00666,-0.01521,-0.00399*
1,1,0.00666,-0.01521,0.00399*
1,1,0.00666,0.01521,0.00399*
%
%ADD53ROUNDEDRECTD53*%
G04:AMPARAMS|DCode=54|XSize=38.07mil|YSize=15.63mil|CornerRadius=3.83mil|HoleSize=0mil|Usage=FLASHONLY|Rotation=0.000|XOffset=0mil|YOffset=0mil|HoleType=Round|Shape=RoundedRectangle|*
%AMROUNDEDRECTD54*
21,1,0.03807,0.00797,0,0,0.0*
21,1,0.03041,0.01563,0,0,0.0*
1,1,0.00766,0.01521,-0.00399*
1,1,0.00766,-0.01521,-0.00399*
1,1,0.00766,-0.01521,0.00399*
1,1,0.00766,0.01521,0.00399*
%
%ADD54ROUNDEDRECTD54*%
%ADD55R,0.05131X0.05131*%
%ADD56C,0.02375*%
%ADD57C,0.04737*%
%ADD58C,0.06194*%
%ADD59R,0.06194X0.06194*%
%ADD60R,0.05595X0.05595*%
%ADD61C,0.05595*%
%ADD62C,0.04343*%
D23*
X64500Y38957D02*
D03*
Y46043D02*
D03*
D24*
X211149Y35500D02*
D03*
X217851D02*
D03*
X196649D02*
D03*
X203351D02*
D03*
X99851Y69500D02*
D03*
X93149D02*
D03*
X232351Y35500D02*
D03*
X225649D02*
D03*
X93149Y37500D02*
D03*
X99851D02*
D03*
X131149Y46000D02*
D03*
X137851D02*
D03*
D25*
X174500Y34161D02*
D03*
Y28839D02*
D03*
X164500D02*
D03*
Y34161D02*
D03*
D27*
X90500Y142649D02*
D03*
Y149351D02*
D03*
X80000Y134351D02*
D03*
Y127649D02*
D03*
X78500Y97851D02*
D03*
Y91149D02*
D03*
Y109149D02*
D03*
Y115851D02*
D03*
X88500D02*
D03*
Y109149D02*
D03*
X114500Y40649D02*
D03*
Y47351D02*
D03*
D29*
X44751Y20000D02*
D03*
X38249D02*
D03*
X38749Y56000D02*
D03*
X45251D02*
D03*
X129749Y34500D02*
D03*
X136251D02*
D03*
X94751Y82000D02*
D03*
X88249D02*
D03*
X94751Y92000D02*
D03*
X88249D02*
D03*
D30*
X55000Y54626D02*
D03*
Y45374D02*
D03*
D31*
X17000Y49751D02*
D03*
Y43249D02*
D03*
X27500Y49751D02*
D03*
Y43249D02*
D03*
X100500Y134251D02*
D03*
Y127749D02*
D03*
X85000Y53251D02*
D03*
Y46749D02*
D03*
X90500Y127749D02*
D03*
Y134251D02*
D03*
D36*
X266457Y24000D02*
D03*
X273543D02*
D03*
X266457Y42000D02*
D03*
X273543D02*
D03*
X266457Y33000D02*
D03*
X273543D02*
D03*
X266457Y51000D02*
D03*
X273543D02*
D03*
X266457Y60000D02*
D03*
X273543D02*
D03*
X266457Y69000D02*
D03*
X273543D02*
D03*
X266457Y78000D02*
D03*
X273543D02*
D03*
X266413Y96000D02*
D03*
X273500D02*
D03*
X266457Y87000D02*
D03*
X273543D02*
D03*
Y132000D02*
D03*
X266457D02*
D03*
Y141000D02*
D03*
X273543D02*
D03*
X266457Y123000D02*
D03*
X273543D02*
D03*
X266457Y114000D02*
D03*
X273543D02*
D03*
X266457Y105000D02*
D03*
X273543D02*
D03*
D37*
X232756Y124000D02*
D03*
Y119000D02*
D03*
Y114000D02*
D03*
Y109000D02*
D03*
Y104000D02*
D03*
Y99000D02*
D03*
Y94000D02*
D03*
Y89000D02*
D03*
X252244D02*
D03*
Y94000D02*
D03*
Y99000D02*
D03*
Y104000D02*
D03*
Y109000D02*
D03*
Y114000D02*
D03*
Y119000D02*
D03*
Y124000D02*
D03*
X197256Y86500D02*
D03*
Y81500D02*
D03*
Y76500D02*
D03*
Y71500D02*
D03*
Y66500D02*
D03*
Y61500D02*
D03*
Y56500D02*
D03*
Y51500D02*
D03*
X216744D02*
D03*
Y56500D02*
D03*
Y61500D02*
D03*
Y66500D02*
D03*
Y71500D02*
D03*
Y76500D02*
D03*
Y81500D02*
D03*
Y86500D02*
D03*
D38*
X175551Y57079D02*
D03*
X170551Y57079D02*
D03*
X165551Y57079D02*
D03*
X160551Y57079D02*
D03*
X155551Y57079D02*
D03*
X150551Y57079D02*
D03*
X145551Y57079D02*
D03*
X140551Y57079D02*
D03*
X135551Y57079D02*
D03*
X130551Y57079D02*
D03*
X125551D02*
D03*
X120551Y57079D02*
D03*
D39*
X182500Y127000D02*
D03*
X182500Y122000D02*
D03*
X182500Y117000D02*
D03*
X182500Y112000D02*
D03*
X182500Y107000D02*
D03*
X182500Y102000D02*
D03*
X182500Y97000D02*
D03*
X182500Y92000D02*
D03*
X182500Y87000D02*
D03*
X182500Y82000D02*
D03*
X182500Y77000D02*
D03*
X182500Y72000D02*
D03*
Y67000D02*
D03*
Y62000D02*
D03*
X113602D02*
D03*
X113602Y67000D02*
D03*
X113602Y72000D02*
D03*
Y77000D02*
D03*
X113602Y82000D02*
D03*
X113602Y87000D02*
D03*
X113602Y92000D02*
D03*
Y97000D02*
D03*
Y102000D02*
D03*
X113602Y107000D02*
D03*
X113602Y112000D02*
D03*
Y117000D02*
D03*
Y122000D02*
D03*
Y127000D02*
D03*
D40*
X147658Y102118D02*
D03*
X142146Y102118D02*
D03*
X136634Y102118D02*
D03*
X147658Y91094D02*
D03*
X142146Y91094D02*
D03*
X136634Y91094D02*
D03*
X147657Y96606D02*
D03*
X136634D02*
D03*
X142146D02*
D03*
D41*
X63394Y133512D02*
D03*
D42*
X99453Y59577D02*
D03*
Y50423D02*
D03*
X93547D02*
D03*
X95516D02*
D03*
X97484D02*
D03*
X93547Y59577D02*
D03*
X95516D02*
D03*
X97484D02*
D03*
D43*
X26779Y133512D02*
D03*
Y72488D02*
D03*
D44*
X64378Y76032D02*
D03*
D45*
X68512Y128787D02*
D03*
Y124457D02*
D03*
Y120126D02*
D03*
Y115795D02*
D03*
Y111465D02*
D03*
Y107134D02*
D03*
Y102803D02*
D03*
Y98472D02*
D03*
Y94142D02*
D03*
D46*
X211748Y114500D02*
D03*
X200252Y104500D02*
D03*
D47*
X92908Y53031D02*
D03*
Y56968D02*
D03*
Y55000D02*
D03*
X100092Y53031D02*
D03*
Y56968D02*
D03*
Y55000D02*
D03*
D48*
X104000Y82079D02*
D03*
Y91921D02*
D03*
D49*
X36983Y47437D02*
D03*
Y45469D02*
D03*
Y43500D02*
D03*
Y41532D02*
D03*
Y39563D02*
D03*
X45017D02*
D03*
Y41532D02*
D03*
Y43500D02*
D03*
Y45469D02*
D03*
Y47437D02*
D03*
D50*
X41000Y43500D02*
D03*
D51*
X147547Y33350D02*
D03*
X153453D02*
D03*
Y44650D02*
D03*
X147547D02*
D03*
D52*
X149516Y33350D02*
D03*
X151484D02*
D03*
Y44650D02*
D03*
X149516D02*
D03*
D53*
X144850Y41953D02*
D03*
Y36047D02*
D03*
X156150D02*
D03*
Y41953D02*
D03*
D54*
X144850Y39984D02*
D03*
Y38016D02*
D03*
X156150D02*
D03*
Y39984D02*
D03*
D55*
X150500Y39000D02*
D03*
D56*
X41000Y46440D02*
D03*
X222500Y121500D02*
D03*
Y124440D02*
D03*
Y127380D02*
D03*
X41000Y43500D02*
D03*
Y40560D02*
D03*
D57*
X25205Y122488D02*
D03*
Y90992D02*
D03*
X312500Y121500D02*
D03*
X242255Y94666D02*
D03*
X143500Y27000D02*
D03*
X96500Y107000D02*
D03*
X66000Y65500D02*
D03*
X127000Y103000D02*
D03*
X132000Y67500D02*
D03*
X127500Y71500D02*
D03*
X123000Y75000D02*
D03*
X318500Y109000D02*
D03*
D58*
X178000Y20500D02*
D03*
X188000D02*
D03*
X198000D02*
D03*
X17000Y20000D02*
D03*
X152000Y20500D02*
D03*
X91500Y20000D02*
D03*
X101500D02*
D03*
X111500D02*
D03*
X121500D02*
D03*
X223500Y20500D02*
D03*
X233500D02*
D03*
X243500D02*
D03*
D59*
X208000D02*
D03*
X27000Y20000D02*
D03*
X162000Y20500D02*
D03*
X131500Y20000D02*
D03*
X253500Y20500D02*
D03*
D60*
X354000Y36000D02*
D03*
Y88500D02*
D03*
D61*
Y46000D02*
D03*
Y56000D02*
D03*
Y66000D02*
D03*
Y76000D02*
D03*
X294000D02*
D03*
Y66000D02*
D03*
Y56000D02*
D03*
Y46000D02*
D03*
Y36000D02*
D03*
X354000Y98500D02*
D03*
Y108500D02*
D03*
Y118500D02*
D03*
Y128500D02*
D03*
X294000D02*
D03*
Y118500D02*
D03*
Y108500D02*
D03*
Y98500D02*
D03*
Y88500D02*
D03*
D62*
X56000Y83500D02*
D03*
X43500Y99000D02*
D03*
X44000Y117000D02*
D03*
X143500Y123000D02*
D03*
X166500Y124000D02*
D03*
X166000Y74500D02*
D03*
X244000Y35000D02*
D03*
X215500Y43000D02*
D03*
X190000Y39500D02*
D03*
X122500Y39000D02*
D03*
X224500Y90000D02*
D03*
X205000Y58000D02*
D03*
X167000Y42500D02*
D03*
X121500Y126000D02*
D03*
X75000Y51500D02*
D03*
M02*
