G04*
G04 #@! TF.GenerationSoftware,Altium Limited,Altium Designer,24.7.2 (38)*
G04*
G04 Layer_Physical_Order=2*
G04 Layer_Color=16711680*
%FSLAX25Y25*%
%MOIN*%
G70*
G04*
G04 #@! TF.SameCoordinates,557B2C77-FFCE-42D9-A2FA-4134FEC932EB*
G04*
G04*
G04 #@! TF.FilePolarity,Positive*
G04*
G01*
G75*
%ADD23R,0.04724X0.04724*%
%ADD29R,0.04940X0.05733*%
%ADD30R,0.03937X0.04528*%
%ADD31R,0.05733X0.04940*%
G04:AMPARAMS|DCode=32|XSize=29.13mil|YSize=10.63mil|CornerRadius=0.37mil|HoleSize=0mil|Usage=FLASHONLY|Rotation=0.000|XOffset=0mil|YOffset=0mil|HoleType=Round|Shape=RoundedRectangle|*
%AMROUNDEDRECTD32*
21,1,0.02913,0.00989,0,0,0.0*
21,1,0.02839,0.01063,0,0,0.0*
1,1,0.00074,0.01420,-0.00494*
1,1,0.00074,-0.01420,-0.00494*
1,1,0.00074,-0.01420,0.00494*
1,1,0.00074,0.01420,0.00494*
%
%ADD32ROUNDEDRECTD32*%
%ADD36R,0.04724X0.04724*%
%ADD63R,0.03307X0.09449*%
%ADD65C,0.01500*%
%ADD66C,0.01000*%
%ADD68C,0.04000*%
%ADD69C,0.01575*%
%ADD70C,0.03937*%
%ADD71C,0.05394*%
%ADD72R,0.05394X0.05394*%
%ADD73R,0.04795X0.04795*%
%ADD74C,0.04795*%
%ADD75C,0.03543*%
G36*
X343000Y155810D02*
X343000Y155810D01*
X343349Y155808D01*
X345654Y155657D01*
X348262Y155139D01*
X350781Y154284D01*
X353166Y153108D01*
X355377Y151630D01*
X357377Y149876D01*
X359130Y147877D01*
X360608Y145666D01*
X361784Y143281D01*
X362638Y140762D01*
X363157Y138154D01*
X363308Y135849D01*
X363311Y135500D01*
X363311Y135500D01*
X363311Y135500D01*
Y27846D01*
X363311Y27845D01*
X363311Y27500D01*
X363306Y27152D01*
X363173Y24776D01*
X362716Y22087D01*
X361961Y19466D01*
X360917Y16945D01*
X359597Y14558D01*
X358019Y12333D01*
X356201Y10299D01*
X354167Y8481D01*
X351942Y6903D01*
X349555Y5583D01*
X347034Y4539D01*
X344413Y3784D01*
X341724Y3327D01*
X339083Y3179D01*
X339000Y3190D01*
X18500Y3190D01*
X18383Y3174D01*
X16101Y3354D01*
X13761Y3915D01*
X11538Y4836D01*
X9486Y6094D01*
X7656Y7656D01*
X6094Y9486D01*
X4836Y11538D01*
X3915Y13761D01*
X3354Y16101D01*
X3174Y18383D01*
X3190Y18500D01*
Y137667D01*
X3190Y138000D01*
X3190Y138000D01*
X3190Y138000D01*
X3190D01*
X3197Y138347D01*
X3326Y140327D01*
X3781Y142614D01*
X4531Y144822D01*
X5562Y146913D01*
X6858Y148852D01*
X8395Y150605D01*
X10148Y152142D01*
X12087Y153438D01*
X14178Y154469D01*
X16386Y155219D01*
X18673Y155674D01*
X20653Y155803D01*
X21000Y155810D01*
X21000Y155810D01*
X21000Y155810D01*
X111802D01*
Y132866D01*
X111864Y132554D01*
X112041Y132289D01*
X112306Y132113D01*
X112618Y132051D01*
X183484Y132051D01*
X183796Y132113D01*
X184061Y132289D01*
X184238Y132554D01*
X184300Y132866D01*
X184300Y155810D01*
X343000D01*
X343000Y155810D01*
D02*
G37*
%LPC*%
G36*
X216819Y141362D02*
X214457D01*
Y139000D01*
X216819D01*
Y141362D01*
D02*
G37*
G36*
X212457D02*
X210094D01*
Y139000D01*
X212457D01*
Y141362D01*
D02*
G37*
G36*
X216819Y137000D02*
X214457D01*
Y134638D01*
X216819D01*
Y137000D01*
D02*
G37*
G36*
X212457D02*
X210094D01*
Y134638D01*
X212457D01*
Y137000D01*
D02*
G37*
G36*
X230548Y152993D02*
X217369D01*
X216764Y152872D01*
X216251Y152530D01*
X214384Y150662D01*
X210295D01*
Y144338D01*
X216619D01*
Y148427D01*
X217058Y148866D01*
X217381Y148732D01*
Y144338D01*
X219218D01*
Y141162D01*
X217381D01*
Y134838D01*
X219218D01*
Y133374D01*
X217545Y131702D01*
X217258Y131272D01*
X217157Y130765D01*
Y129725D01*
X217063D01*
X216737Y129660D01*
X216460Y129475D01*
X216275Y129198D01*
X216210Y128872D01*
Y127883D01*
X216275Y127556D01*
X216384Y127393D01*
X216275Y127230D01*
X216210Y126903D01*
Y125914D01*
X216088Y125766D01*
X215306D01*
X214799Y125665D01*
X214621Y125546D01*
X212470D01*
X212342Y125521D01*
X206834D01*
Y125075D01*
X203666D01*
Y125521D01*
X196334D01*
Y125039D01*
X194215D01*
X193484Y124943D01*
X192803Y124661D01*
X192218Y124212D01*
X153830Y85824D01*
X118000D01*
X117269Y85728D01*
X116588Y85446D01*
X116003Y84997D01*
X53830Y22824D01*
X30497D01*
Y23497D01*
X23503D01*
Y16503D01*
X30497D01*
Y17176D01*
X55000D01*
X55731Y17272D01*
X56412Y17554D01*
X56997Y18003D01*
X119170Y80176D01*
X155000D01*
X155731Y80272D01*
X156412Y80554D01*
X156997Y81003D01*
X195385Y119391D01*
X195855D01*
X196133Y119219D01*
Y116749D01*
X200000D01*
X203867D01*
Y119219D01*
X204130Y119427D01*
X206370D01*
X206633Y119219D01*
Y116749D01*
X210500D01*
X214367D01*
Y119219D01*
X214166D01*
Y121146D01*
X215884D01*
X216006Y120998D01*
Y120009D01*
X216086Y119604D01*
X216315Y119261D01*
X216658Y119032D01*
X217063Y118951D01*
X217483D01*
Y120503D01*
X219483D01*
Y118951D01*
X219847D01*
Y118716D01*
X221500D01*
Y124440D01*
Y130165D01*
X220252D01*
X220107Y130515D01*
X221481Y131888D01*
X221768Y132318D01*
X221869Y132825D01*
Y134838D01*
X223706D01*
Y141162D01*
X221869D01*
Y144338D01*
X223706D01*
Y149832D01*
X229893D01*
X248696Y131029D01*
X248562Y130705D01*
X244338D01*
Y128869D01*
X232043D01*
X231536Y128768D01*
X231106Y128481D01*
X230497Y127871D01*
X229004D01*
X228994Y127883D01*
Y128872D01*
X228914Y129276D01*
X228685Y129619D01*
X228342Y129849D01*
X227937Y129929D01*
X227517D01*
Y128377D01*
X225517D01*
Y129929D01*
X225153D01*
Y130165D01*
X223500D01*
Y124440D01*
Y118716D01*
X225153D01*
Y119155D01*
X227937D01*
X228049Y119178D01*
X230428D01*
X234732Y114874D01*
Y114100D01*
X233456Y112824D01*
X231521D01*
Y113666D01*
X225219D01*
Y113866D01*
X222749D01*
Y110000D01*
Y106133D01*
X225219D01*
Y106333D01*
X228267D01*
X228401Y106010D01*
X208696Y86304D01*
X192752Y70361D01*
X185281D01*
X184676Y70241D01*
X184163Y69898D01*
X143998Y29733D01*
X143865Y29768D01*
X143135D01*
X142431Y29580D01*
X141800Y29215D01*
X141285Y28700D01*
X140920Y28069D01*
X140732Y27365D01*
Y26636D01*
X140920Y25931D01*
X141285Y25300D01*
X141800Y24785D01*
X142431Y24420D01*
X143135Y24231D01*
X143865D01*
X144569Y24420D01*
X145200Y24785D01*
X145715Y25300D01*
X146080Y25931D01*
X146268Y26636D01*
Y27365D01*
X146233Y27498D01*
X185936Y67201D01*
X193407D01*
X194012Y67321D01*
X194525Y67664D01*
X207909Y81048D01*
X208233Y80914D01*
Y23997D01*
X204503D01*
Y17003D01*
X211497D01*
Y23997D01*
X211393D01*
Y84532D01*
X234037Y107176D01*
X234626D01*
X235147Y107244D01*
X240675Y101716D01*
Y96951D01*
X240555Y96882D01*
X240040Y96366D01*
X239675Y95735D01*
X239487Y95031D01*
Y94302D01*
X239675Y93598D01*
X240040Y92967D01*
X240555Y92451D01*
X241186Y92087D01*
X241891Y91898D01*
X242619D01*
X243324Y92087D01*
X243955Y92451D01*
X244470Y92967D01*
X244835Y93598D01*
X245023Y94302D01*
Y95031D01*
X244835Y95735D01*
X244470Y96366D01*
X243955Y96882D01*
X243835Y96951D01*
Y102371D01*
X243715Y102976D01*
X243373Y103489D01*
X237740Y109121D01*
X238430Y109810D01*
X240268D01*
Y111881D01*
X241826Y113439D01*
X244420Y110845D01*
Y108196D01*
X244540Y107591D01*
X244882Y107078D01*
X291968Y59993D01*
Y58490D01*
X291441Y57963D01*
X291020Y57234D01*
X290802Y56421D01*
Y55579D01*
X291020Y54766D01*
X291441Y54037D01*
X292037Y53441D01*
X292766Y53020D01*
X293579Y52802D01*
X294421D01*
X295234Y53020D01*
X295963Y53441D01*
X296559Y54037D01*
X296780Y54420D01*
X351220D01*
X351441Y54037D01*
X352037Y53441D01*
X352766Y53020D01*
X353579Y52802D01*
X354421D01*
X355234Y53020D01*
X355963Y53441D01*
X356559Y54037D01*
X356980Y54766D01*
X357198Y55579D01*
Y56421D01*
X357083Y56848D01*
X361617Y61383D01*
X361960Y61895D01*
X362080Y62500D01*
Y102000D01*
X361960Y102605D01*
X361617Y103118D01*
X357083Y107652D01*
X357198Y108079D01*
Y108921D01*
X356980Y109734D01*
X356559Y110463D01*
X355963Y111059D01*
X355234Y111480D01*
X354421Y111698D01*
X353579D01*
X352766Y111480D01*
X352037Y111059D01*
X351441Y110463D01*
X351020Y109734D01*
X350802Y108921D01*
Y108079D01*
X351020Y107266D01*
X351441Y106537D01*
X352037Y105941D01*
X352766Y105520D01*
X353579Y105302D01*
X354421D01*
X354848Y105417D01*
X358920Y101345D01*
Y63155D01*
X354848Y59083D01*
X354421Y59198D01*
X353579D01*
X352766Y58980D01*
X352037Y58559D01*
X351441Y57963D01*
X351220Y57580D01*
X296780D01*
X296559Y57963D01*
X295963Y58559D01*
X295234Y58980D01*
X295129Y59008D01*
Y60648D01*
X295008Y61252D01*
X294666Y61765D01*
X293952Y62479D01*
X294086Y62802D01*
X294421D01*
X295234Y63020D01*
X295963Y63441D01*
X296559Y64037D01*
X296980Y64766D01*
X297198Y65579D01*
Y66421D01*
X296980Y67234D01*
X296559Y67963D01*
X295963Y68559D01*
X295234Y68980D01*
X294421Y69198D01*
X293579D01*
X292766Y68980D01*
X292037Y68559D01*
X291441Y67963D01*
X291020Y67234D01*
X290802Y66421D01*
Y66086D01*
X290479Y65952D01*
X247580Y108851D01*
Y109920D01*
X289773D01*
X290802Y108890D01*
Y108079D01*
X291020Y107266D01*
X291441Y106537D01*
X292037Y105941D01*
X292766Y105520D01*
X293579Y105302D01*
X294421D01*
X295234Y105520D01*
X295963Y105941D01*
X296559Y106537D01*
X296980Y107266D01*
X297198Y108079D01*
Y108921D01*
X296980Y109734D01*
X296559Y110463D01*
X295963Y111059D01*
X295234Y111480D01*
X294421Y111698D01*
X293579D01*
X292766Y111480D01*
X292713Y111449D01*
X291545Y112618D01*
X291032Y112960D01*
X290427Y113080D01*
X246655D01*
X244061Y115674D01*
X245658Y117270D01*
X247138D01*
X247321Y117295D01*
X250662D01*
Y121384D01*
X252530Y123251D01*
X252872Y123764D01*
X252993Y124369D01*
Y130548D01*
X252872Y131152D01*
X252530Y131665D01*
X231665Y152530D01*
X231152Y152872D01*
X230548Y152993D01*
D02*
G37*
G36*
X354421Y131698D02*
X353579D01*
X352766Y131480D01*
X352037Y131059D01*
X351441Y130463D01*
X351020Y129734D01*
X350802Y128921D01*
Y128079D01*
X351020Y127266D01*
X351441Y126537D01*
X352037Y125941D01*
X352766Y125520D01*
X353579Y125302D01*
X354421D01*
X355234Y125520D01*
X355963Y125941D01*
X356559Y126537D01*
X356980Y127266D01*
X357198Y128079D01*
Y128921D01*
X356980Y129734D01*
X356559Y130463D01*
X355963Y131059D01*
X355234Y131480D01*
X354421Y131698D01*
D02*
G37*
G36*
X294421D02*
X293579D01*
X292766Y131480D01*
X292037Y131059D01*
X291441Y130463D01*
X291020Y129734D01*
X290802Y128921D01*
Y128079D01*
X291020Y127266D01*
X291441Y126537D01*
X292037Y125941D01*
X292766Y125520D01*
X293579Y125302D01*
X294421D01*
X295234Y125520D01*
X295963Y125941D01*
X296559Y126537D01*
X296980Y127266D01*
X297198Y128079D01*
Y128921D01*
X296980Y129734D01*
X296559Y130463D01*
X295963Y131059D01*
X295234Y131480D01*
X294421Y131698D01*
D02*
G37*
G36*
X25569Y125257D02*
X24840D01*
X24136Y125068D01*
X23505Y124704D01*
X22989Y124188D01*
X22625Y123557D01*
X22436Y122853D01*
Y122124D01*
X22625Y121420D01*
X22989Y120788D01*
X23505Y120273D01*
X24136Y119908D01*
X24840Y119720D01*
X25569D01*
X26273Y119908D01*
X26905Y120273D01*
X27420Y120788D01*
X27785Y121420D01*
X27973Y122124D01*
Y122853D01*
X27785Y123557D01*
X27420Y124188D01*
X26905Y124704D01*
X26273Y125068D01*
X25569Y125257D01*
D02*
G37*
G36*
X354421Y121698D02*
X353579D01*
X352766Y121480D01*
X352037Y121059D01*
X351441Y120463D01*
X351020Y119734D01*
X350802Y118921D01*
Y118079D01*
X351020Y117266D01*
X351441Y116537D01*
X352037Y115941D01*
X352766Y115520D01*
X353579Y115302D01*
X354421D01*
X355234Y115520D01*
X355963Y115941D01*
X356559Y116537D01*
X356980Y117266D01*
X357198Y118079D01*
Y118921D01*
X356980Y119734D01*
X356559Y120463D01*
X355963Y121059D01*
X355234Y121480D01*
X354421Y121698D01*
D02*
G37*
G36*
X294421D02*
X293579D01*
X292766Y121480D01*
X292037Y121059D01*
X291441Y120463D01*
X291020Y119734D01*
X290802Y118921D01*
Y118079D01*
X291020Y117266D01*
X291441Y116537D01*
X292037Y115941D01*
X292766Y115520D01*
X293579Y115302D01*
X294421D01*
X295234Y115520D01*
X295963Y115941D01*
X296559Y116537D01*
X296980Y117266D01*
X297198Y118079D01*
Y118921D01*
X296980Y119734D01*
X296559Y120463D01*
X295963Y121059D01*
X295234Y121480D01*
X294421Y121698D01*
D02*
G37*
G36*
X214367Y114749D02*
X211500D01*
Y112279D01*
X214367D01*
Y114749D01*
D02*
G37*
G36*
X209500D02*
X206633D01*
Y112279D01*
X209500D01*
Y114749D01*
D02*
G37*
G36*
X203867D02*
X201000D01*
Y112279D01*
X203867D01*
Y114749D01*
D02*
G37*
G36*
X199000D02*
X196133D01*
Y112279D01*
X199000D01*
Y114749D01*
D02*
G37*
G36*
X220749Y113866D02*
X218279D01*
Y111000D01*
X220749D01*
Y113866D01*
D02*
G37*
G36*
X318864Y111768D02*
X318135D01*
X317431Y111580D01*
X316800Y111215D01*
X316285Y110700D01*
X315920Y110069D01*
X315732Y109364D01*
Y108635D01*
X315767Y108502D01*
X297345Y90080D01*
X296780D01*
X296559Y90463D01*
X295963Y91059D01*
X295234Y91480D01*
X294421Y91698D01*
X293579D01*
X292766Y91480D01*
X292037Y91059D01*
X291441Y90463D01*
X291020Y89734D01*
X290802Y88921D01*
Y88079D01*
X291020Y87266D01*
X291441Y86537D01*
X292037Y85941D01*
X292766Y85520D01*
X293579Y85302D01*
X294421D01*
X295234Y85520D01*
X295963Y85941D01*
X296559Y86537D01*
X296780Y86920D01*
X298000D01*
X298605Y87040D01*
X299117Y87383D01*
X318002Y106267D01*
X318135Y106231D01*
X318864D01*
X319569Y106420D01*
X320200Y106785D01*
X320715Y107300D01*
X321080Y107931D01*
X321269Y108635D01*
Y109364D01*
X321080Y110069D01*
X320715Y110700D01*
X320200Y111215D01*
X319569Y111580D01*
X318864Y111768D01*
D02*
G37*
G36*
X220749Y109000D02*
X218279D01*
Y106133D01*
X220749D01*
Y109000D01*
D02*
G37*
G36*
X140390Y103639D02*
Y102118D01*
X138390D01*
Y103639D01*
X138377Y103633D01*
X137874Y103131D01*
X137602Y102474D01*
Y101763D01*
X137861Y101139D01*
X137749Y101003D01*
X137613Y100891D01*
X136989Y101150D01*
X136278D01*
X135621Y100877D01*
X135119Y100375D01*
X135113Y100362D01*
X136634D01*
Y98362D01*
X135113D01*
X135119Y98350D01*
X135621Y97847D01*
X136278Y97575D01*
X136989D01*
X137613Y97833D01*
X137749Y97722D01*
X137861Y97586D01*
X137602Y96962D01*
Y96251D01*
X137861Y95627D01*
X137749Y95491D01*
X137613Y95379D01*
X136989Y95638D01*
X136278D01*
X135621Y95366D01*
X135119Y94863D01*
X135113Y94850D01*
X136634D01*
Y92850D01*
X135113D01*
X135119Y92838D01*
X135621Y92335D01*
X136278Y92063D01*
X136989D01*
X137613Y92321D01*
X137749Y92210D01*
X137861Y92074D01*
X137602Y91450D01*
Y90739D01*
X137874Y90082D01*
X138377Y89579D01*
X138390Y89574D01*
Y91094D01*
X140390D01*
Y89574D01*
X140402Y89579D01*
X140905Y90082D01*
X141177Y90739D01*
Y91450D01*
X140919Y92074D01*
X141030Y92210D01*
X141166Y92321D01*
X141790Y92063D01*
X142501D01*
X143125Y92321D01*
X143261Y92210D01*
X143373Y92074D01*
X143114Y91450D01*
Y90739D01*
X143386Y90082D01*
X143889Y89579D01*
X143902Y89574D01*
Y91094D01*
X145902D01*
Y89574D01*
X145914Y89579D01*
X146417Y90082D01*
X146689Y90739D01*
Y91450D01*
X146431Y92074D01*
X146542Y92210D01*
X146678Y92321D01*
X147302Y92063D01*
X148013D01*
X148670Y92335D01*
X149173Y92838D01*
X149178Y92850D01*
X147658D01*
Y94850D01*
X149178D01*
X149173Y94863D01*
X148670Y95366D01*
X148013Y95638D01*
X147302D01*
X146678Y95379D01*
X146542Y95491D01*
X146431Y95627D01*
X146689Y96251D01*
Y96962D01*
X146431Y97586D01*
X146542Y97722D01*
X146678Y97833D01*
X147302Y97575D01*
X148013D01*
X148670Y97847D01*
X149173Y98350D01*
X149178Y98362D01*
X147658D01*
Y100362D01*
X149178D01*
X149173Y100375D01*
X148670Y100877D01*
X148013Y101150D01*
X147302D01*
X146678Y100891D01*
X146542Y101003D01*
X146431Y101139D01*
X146689Y101763D01*
Y102474D01*
X146417Y103131D01*
X145914Y103633D01*
X145902Y103639D01*
Y102118D01*
X143902D01*
Y103639D01*
X143889Y103633D01*
X143386Y103131D01*
X143114Y102474D01*
Y101763D01*
X143373Y101139D01*
X143261Y101003D01*
X143125Y100891D01*
X142501Y101150D01*
X141790D01*
X141166Y100891D01*
X141030Y101003D01*
X140919Y101139D01*
X141177Y101763D01*
Y102474D01*
X140905Y103131D01*
X140402Y103633D01*
X140390Y103639D01*
D02*
G37*
G36*
X312864Y124268D02*
X312136D01*
X311431Y124080D01*
X310800Y123715D01*
X310285Y123200D01*
X309920Y122569D01*
X309732Y121864D01*
Y121135D01*
X309920Y120431D01*
X310285Y119800D01*
X310800Y119285D01*
X310920Y119216D01*
Y117655D01*
X294848Y101583D01*
X294421Y101698D01*
X293579D01*
X292766Y101480D01*
X292037Y101059D01*
X291441Y100463D01*
X291020Y99734D01*
X290802Y98921D01*
Y98079D01*
X291020Y97266D01*
X291441Y96537D01*
X292037Y95941D01*
X292766Y95520D01*
X293579Y95302D01*
X294421D01*
X295234Y95520D01*
X295963Y95941D01*
X296559Y96537D01*
X296980Y97266D01*
X297198Y98079D01*
Y98921D01*
X297083Y99348D01*
X313617Y115883D01*
X313960Y116395D01*
X314080Y117000D01*
Y119216D01*
X314200Y119285D01*
X314715Y119800D01*
X315080Y120431D01*
X315268Y121135D01*
Y121864D01*
X315080Y122569D01*
X314715Y123200D01*
X314200Y123715D01*
X313569Y124080D01*
X312864Y124268D01*
D02*
G37*
G36*
X96864Y109768D02*
X96135D01*
X95431Y109580D01*
X94800Y109215D01*
X94285Y108700D01*
X93920Y108069D01*
X93731Y107364D01*
Y106635D01*
X93920Y105931D01*
X94285Y105300D01*
X94800Y104785D01*
X94920Y104716D01*
Y96655D01*
X66498Y68233D01*
X66365Y68269D01*
X65636D01*
X64931Y68080D01*
X64300Y67715D01*
X63785Y67200D01*
X63420Y66569D01*
X63231Y65864D01*
Y65136D01*
X63420Y64431D01*
X63785Y63800D01*
X64300Y63285D01*
X64931Y62920D01*
X65636Y62731D01*
X66365D01*
X67069Y62920D01*
X67700Y63285D01*
X68215Y63800D01*
X68284Y63920D01*
X89500D01*
X90105Y64040D01*
X90618Y64382D01*
X126502Y100267D01*
X126636Y100232D01*
X127365D01*
X128069Y100420D01*
X128700Y100785D01*
X129215Y101300D01*
X129580Y101931D01*
X129769Y102636D01*
Y103365D01*
X129580Y104069D01*
X129215Y104700D01*
X128700Y105215D01*
X128069Y105580D01*
X127365Y105769D01*
X126636D01*
X125931Y105580D01*
X125300Y105215D01*
X124785Y104700D01*
X124420Y104069D01*
X124232Y103365D01*
Y102636D01*
X124267Y102502D01*
X88845Y67080D01*
X70273D01*
X70139Y67404D01*
X97618Y94883D01*
X97960Y95395D01*
X98080Y96000D01*
Y104716D01*
X98200Y104785D01*
X98715Y105300D01*
X99080Y105931D01*
X99269Y106635D01*
Y107364D01*
X99080Y108069D01*
X98715Y108700D01*
X98200Y109215D01*
X97569Y109580D01*
X96864Y109768D01*
D02*
G37*
G36*
X354421Y101698D02*
X353579D01*
X352766Y101480D01*
X352037Y101059D01*
X351441Y100463D01*
X351020Y99734D01*
X350802Y98921D01*
Y98079D01*
X351020Y97266D01*
X351441Y96537D01*
X352037Y95941D01*
X352766Y95520D01*
X353579Y95302D01*
X354421D01*
X355234Y95520D01*
X355963Y95941D01*
X356559Y96537D01*
X356980Y97266D01*
X357198Y98079D01*
Y98921D01*
X356980Y99734D01*
X356559Y100463D01*
X355963Y101059D01*
X355234Y101480D01*
X354421Y101698D01*
D02*
G37*
G36*
X25569Y93761D02*
X24840D01*
X24136Y93572D01*
X23505Y93208D01*
X22989Y92692D01*
X22625Y92061D01*
X22436Y91357D01*
Y90628D01*
X22625Y89924D01*
X22989Y89292D01*
X23505Y88777D01*
X24136Y88412D01*
X24840Y88224D01*
X25569D01*
X26273Y88412D01*
X26905Y88777D01*
X27420Y89292D01*
X27785Y89924D01*
X27973Y90628D01*
Y91357D01*
X27785Y92061D01*
X27420Y92692D01*
X26905Y93208D01*
X26273Y93572D01*
X25569Y93761D01*
D02*
G37*
G36*
X357198Y91698D02*
X350802D01*
Y85302D01*
X357198D01*
Y91698D01*
D02*
G37*
G36*
X354421Y79198D02*
X353579D01*
X352766Y78980D01*
X352037Y78559D01*
X351441Y77963D01*
X351020Y77234D01*
X350802Y76421D01*
Y75579D01*
X351020Y74766D01*
X351441Y74037D01*
X352037Y73441D01*
X352766Y73020D01*
X353579Y72802D01*
X354421D01*
X355234Y73020D01*
X355963Y73441D01*
X356559Y74037D01*
X356980Y74766D01*
X357198Y75579D01*
Y76421D01*
X356980Y77234D01*
X356559Y77963D01*
X355963Y78559D01*
X355234Y78980D01*
X354421Y79198D01*
D02*
G37*
G36*
X294421D02*
X293579D01*
X292766Y78980D01*
X292037Y78559D01*
X291441Y77963D01*
X291020Y77234D01*
X290802Y76421D01*
Y75579D01*
X291020Y74766D01*
X291441Y74037D01*
X292037Y73441D01*
X292766Y73020D01*
X293579Y72802D01*
X294421D01*
X295234Y73020D01*
X295963Y73441D01*
X296559Y74037D01*
X296980Y74766D01*
X297198Y75579D01*
Y76421D01*
X296980Y77234D01*
X296559Y77963D01*
X295963Y78559D01*
X295234Y78980D01*
X294421Y79198D01*
D02*
G37*
G36*
X354421Y69198D02*
X353579D01*
X352766Y68980D01*
X352037Y68559D01*
X351441Y67963D01*
X351020Y67234D01*
X350802Y66421D01*
Y65579D01*
X351020Y64766D01*
X351441Y64037D01*
X352037Y63441D01*
X352766Y63020D01*
X353579Y62802D01*
X354421D01*
X355234Y63020D01*
X355963Y63441D01*
X356559Y64037D01*
X356980Y64766D01*
X357198Y65579D01*
Y66421D01*
X356980Y67234D01*
X356559Y67963D01*
X355963Y68559D01*
X355234Y68980D01*
X354421Y69198D01*
D02*
G37*
G36*
X42000Y47961D02*
Y47440D01*
X42520D01*
X42515Y47453D01*
X42013Y47956D01*
X42000Y47961D01*
D02*
G37*
G36*
X40000D02*
X39987Y47956D01*
X39485Y47453D01*
X39480Y47440D01*
X40000D01*
Y47961D01*
D02*
G37*
G36*
X42520Y45440D02*
X39480D01*
X39485Y45428D01*
X39942Y44970D01*
X39485Y44513D01*
X39480Y44500D01*
X42520D01*
X42515Y44513D01*
X42058Y44970D01*
X42515Y45428D01*
X42520Y45440D01*
D02*
G37*
G36*
X354421Y49198D02*
X353579D01*
X352766Y48980D01*
X352037Y48559D01*
X351441Y47963D01*
X351020Y47234D01*
X350802Y46421D01*
Y45579D01*
X351020Y44766D01*
X351441Y44037D01*
X352037Y43441D01*
X352766Y43020D01*
X353579Y42802D01*
X354421D01*
X355234Y43020D01*
X355963Y43441D01*
X356559Y44037D01*
X356980Y44766D01*
X357198Y45579D01*
Y46421D01*
X356980Y47234D01*
X356559Y47963D01*
X355963Y48559D01*
X355234Y48980D01*
X354421Y49198D01*
D02*
G37*
G36*
X294421D02*
X293579D01*
X292766Y48980D01*
X292037Y48559D01*
X291441Y47963D01*
X291020Y47234D01*
X290802Y46421D01*
Y45579D01*
X291020Y44766D01*
X291441Y44037D01*
X292037Y43441D01*
X292766Y43020D01*
X293579Y42802D01*
X294421D01*
X295234Y43020D01*
X295963Y43441D01*
X296559Y44037D01*
X296980Y44766D01*
X297198Y45579D01*
Y46421D01*
X296980Y47234D01*
X296559Y47963D01*
X295963Y48559D01*
X295234Y48980D01*
X294421Y49198D01*
D02*
G37*
G36*
X42520Y42500D02*
X39480D01*
X39485Y42487D01*
X39942Y42030D01*
X39485Y41572D01*
X39480Y41560D01*
X42520D01*
X42515Y41572D01*
X42058Y42030D01*
X42515Y42487D01*
X42520Y42500D01*
D02*
G37*
G36*
Y39560D02*
X42000D01*
Y39039D01*
X42013Y39044D01*
X42515Y39547D01*
X42520Y39560D01*
D02*
G37*
G36*
X40000D02*
X39480D01*
X39485Y39547D01*
X39987Y39044D01*
X40000Y39039D01*
Y39560D01*
D02*
G37*
G36*
X357198Y39198D02*
X350802D01*
Y32802D01*
X357198D01*
Y39198D01*
D02*
G37*
G36*
X294421D02*
X293579D01*
X292766Y38980D01*
X292037Y38559D01*
X291441Y37963D01*
X291020Y37234D01*
X290802Y36421D01*
Y35579D01*
X291020Y34766D01*
X291441Y34037D01*
X292037Y33441D01*
X292766Y33020D01*
X293579Y32802D01*
X294421D01*
X295234Y33020D01*
X295963Y33441D01*
X296559Y34037D01*
X296980Y34766D01*
X297198Y35579D01*
Y36421D01*
X296980Y37234D01*
X296559Y37963D01*
X295963Y38559D01*
X295234Y38980D01*
X294421Y39198D01*
D02*
G37*
G36*
X123364Y77768D02*
X122635D01*
X121931Y77580D01*
X121300Y77215D01*
X120785Y76700D01*
X120420Y76069D01*
X120231Y75365D01*
Y74635D01*
X120267Y74502D01*
X100382Y54618D01*
X100040Y54105D01*
X99920Y53500D01*
Y23125D01*
X99353Y22798D01*
X98702Y22147D01*
X98242Y21350D01*
X98003Y20460D01*
Y19540D01*
X98242Y18650D01*
X98702Y17853D01*
X99353Y17202D01*
X100150Y16741D01*
X101040Y16503D01*
X101960D01*
X102850Y16741D01*
X103647Y17202D01*
X104298Y17853D01*
X104759Y18650D01*
X104997Y19540D01*
Y20460D01*
X104759Y21350D01*
X104298Y22147D01*
X103647Y22798D01*
X103080Y23125D01*
Y52845D01*
X122502Y72267D01*
X122635Y72232D01*
X123364D01*
X124069Y72420D01*
X124616Y72736D01*
X124787Y72642D01*
X124888Y72545D01*
X124907Y72521D01*
X124732Y71864D01*
Y71135D01*
X124920Y70431D01*
X125285Y69800D01*
X125800Y69285D01*
X125920Y69216D01*
Y36655D01*
X112592Y23327D01*
X111960Y23497D01*
X111040D01*
X110150Y23258D01*
X109353Y22798D01*
X108702Y22147D01*
X108241Y21350D01*
X108003Y20460D01*
Y19540D01*
X108241Y18650D01*
X108702Y17853D01*
X109353Y17202D01*
X110150Y16741D01*
X111040Y16503D01*
X111960D01*
X112850Y16741D01*
X113647Y17202D01*
X114298Y17853D01*
X114759Y18650D01*
X114997Y19540D01*
Y20460D01*
X114828Y21092D01*
X128618Y34883D01*
X128960Y35395D01*
X129080Y36000D01*
Y66347D01*
X129420Y66431D01*
X129785Y65800D01*
X130300Y65285D01*
X130420Y65216D01*
Y49170D01*
X130540Y48566D01*
X130883Y48053D01*
X130920Y48016D01*
Y31655D01*
X122592Y23327D01*
X121960Y23497D01*
X121040D01*
X120150Y23258D01*
X119353Y22798D01*
X118702Y22147D01*
X118242Y21350D01*
X118003Y20460D01*
Y19540D01*
X118242Y18650D01*
X118702Y17853D01*
X119353Y17202D01*
X120150Y16741D01*
X121040Y16503D01*
X121960D01*
X122850Y16741D01*
X123647Y17202D01*
X124298Y17853D01*
X124759Y18650D01*
X124997Y19540D01*
Y20460D01*
X124828Y21092D01*
X133617Y29882D01*
X133960Y30395D01*
X134080Y31000D01*
Y48670D01*
X133960Y49275D01*
X133617Y49788D01*
X133580Y49825D01*
Y65216D01*
X133700Y65285D01*
X134215Y65800D01*
X134580Y66431D01*
X134768Y67136D01*
Y67865D01*
X134580Y68569D01*
X134215Y69200D01*
X133700Y69715D01*
X133069Y70080D01*
X132364Y70268D01*
X131635D01*
X130931Y70080D01*
X130300Y69715D01*
X129785Y69200D01*
X129420Y68569D01*
X129080Y68653D01*
Y69216D01*
X129200Y69285D01*
X129715Y69800D01*
X130080Y70431D01*
X130269Y71135D01*
Y71864D01*
X130080Y72569D01*
X129715Y73200D01*
X129200Y73715D01*
X128569Y74080D01*
X127865Y74269D01*
X127136D01*
X126431Y74080D01*
X125884Y73764D01*
X125713Y73858D01*
X125612Y73954D01*
X125593Y73979D01*
X125768Y74635D01*
Y75365D01*
X125580Y76069D01*
X125215Y76700D01*
X124700Y77215D01*
X124069Y77580D01*
X123364Y77768D01*
D02*
G37*
G36*
X179000Y24059D02*
Y21500D01*
X181559D01*
X181445Y21927D01*
X180958Y22770D01*
X180270Y23458D01*
X179427Y23945D01*
X179000Y24059D01*
D02*
G37*
G36*
X177000D02*
X176573Y23945D01*
X175730Y23458D01*
X175042Y22770D01*
X174555Y21927D01*
X174441Y21500D01*
X177000D01*
Y24059D01*
D02*
G37*
G36*
X92500Y23559D02*
Y21000D01*
X95059D01*
X94945Y21427D01*
X94458Y22270D01*
X93770Y22958D01*
X92927Y23445D01*
X92500Y23559D01*
D02*
G37*
G36*
X90500D02*
X90073Y23445D01*
X89230Y22958D01*
X88542Y22270D01*
X88055Y21427D01*
X87941Y21000D01*
X90500D01*
Y23559D01*
D02*
G37*
G36*
X18000D02*
Y21000D01*
X20559D01*
X20445Y21427D01*
X19958Y22270D01*
X19270Y22958D01*
X18427Y23445D01*
X18000Y23559D01*
D02*
G37*
G36*
X16000D02*
X15573Y23445D01*
X14730Y22958D01*
X14042Y22270D01*
X13555Y21427D01*
X13441Y21000D01*
X16000D01*
Y23559D01*
D02*
G37*
G36*
X256997Y23997D02*
X250003D01*
Y17003D01*
X256997D01*
Y23997D01*
D02*
G37*
G36*
X243960D02*
X243040D01*
X242150Y23758D01*
X241353Y23298D01*
X240702Y22647D01*
X240242Y21850D01*
X240003Y20960D01*
Y20040D01*
X240242Y19150D01*
X240702Y18353D01*
X241353Y17702D01*
X242150Y17242D01*
X243040Y17003D01*
X243960D01*
X244850Y17242D01*
X245647Y17702D01*
X246298Y18353D01*
X246759Y19150D01*
X246997Y20040D01*
Y20960D01*
X246759Y21850D01*
X246298Y22647D01*
X245647Y23298D01*
X244850Y23758D01*
X243960Y23997D01*
D02*
G37*
G36*
X233960D02*
X233040D01*
X232150Y23758D01*
X231353Y23298D01*
X230702Y22647D01*
X230241Y21850D01*
X230003Y20960D01*
Y20040D01*
X230241Y19150D01*
X230702Y18353D01*
X231353Y17702D01*
X232150Y17242D01*
X233040Y17003D01*
X233960D01*
X234850Y17242D01*
X235647Y17702D01*
X236298Y18353D01*
X236758Y19150D01*
X236997Y20040D01*
Y20960D01*
X236758Y21850D01*
X236298Y22647D01*
X235647Y23298D01*
X234850Y23758D01*
X233960Y23997D01*
D02*
G37*
G36*
X223960D02*
X223040D01*
X222150Y23758D01*
X221353Y23298D01*
X220702Y22647D01*
X220241Y21850D01*
X220003Y20960D01*
Y20040D01*
X220241Y19150D01*
X220702Y18353D01*
X221353Y17702D01*
X222150Y17242D01*
X223040Y17003D01*
X223960D01*
X224850Y17242D01*
X225647Y17702D01*
X226298Y18353D01*
X226759Y19150D01*
X226997Y20040D01*
Y20960D01*
X226759Y21850D01*
X226298Y22647D01*
X225647Y23298D01*
X224850Y23758D01*
X223960Y23997D01*
D02*
G37*
G36*
X198460D02*
X197540D01*
X196650Y23758D01*
X195853Y23298D01*
X195202Y22647D01*
X194741Y21850D01*
X194503Y20960D01*
Y20040D01*
X194741Y19150D01*
X195202Y18353D01*
X195853Y17702D01*
X196650Y17242D01*
X197540Y17003D01*
X198460D01*
X199350Y17242D01*
X200147Y17702D01*
X200798Y18353D01*
X201258Y19150D01*
X201497Y20040D01*
Y20960D01*
X201258Y21850D01*
X200798Y22647D01*
X200147Y23298D01*
X199350Y23758D01*
X198460Y23997D01*
D02*
G37*
G36*
X188460D02*
X187540D01*
X186650Y23758D01*
X185853Y23298D01*
X185202Y22647D01*
X184741Y21850D01*
X184503Y20960D01*
Y20040D01*
X184741Y19150D01*
X185202Y18353D01*
X185853Y17702D01*
X186650Y17242D01*
X187540Y17003D01*
X188460D01*
X189350Y17242D01*
X190147Y17702D01*
X190798Y18353D01*
X191259Y19150D01*
X191497Y20040D01*
Y20960D01*
X191259Y21850D01*
X190798Y22647D01*
X190147Y23298D01*
X189350Y23758D01*
X188460Y23997D01*
D02*
G37*
G36*
X165497D02*
X158503D01*
Y17003D01*
X165497D01*
Y23997D01*
D02*
G37*
G36*
X152460D02*
X151540D01*
X150650Y23758D01*
X149853Y23298D01*
X149202Y22647D01*
X148741Y21850D01*
X148503Y20960D01*
Y20040D01*
X148741Y19150D01*
X149202Y18353D01*
X149853Y17702D01*
X150650Y17242D01*
X151540Y17003D01*
X152460D01*
X153350Y17242D01*
X154147Y17702D01*
X154798Y18353D01*
X155259Y19150D01*
X155497Y20040D01*
Y20960D01*
X155259Y21850D01*
X154798Y22647D01*
X154147Y23298D01*
X153350Y23758D01*
X152460Y23997D01*
D02*
G37*
G36*
X181559Y19500D02*
X179000D01*
Y16941D01*
X179427Y17055D01*
X180270Y17542D01*
X180958Y18230D01*
X181445Y19073D01*
X181559Y19500D01*
D02*
G37*
G36*
X177000D02*
X174441D01*
X174555Y19073D01*
X175042Y18230D01*
X175730Y17542D01*
X176573Y17055D01*
X177000Y16941D01*
Y19500D01*
D02*
G37*
G36*
X134997Y23497D02*
X128003D01*
Y16503D01*
X134997D01*
Y23497D01*
D02*
G37*
G36*
X95059Y19000D02*
X92500D01*
Y16441D01*
X92927Y16555D01*
X93770Y17042D01*
X94458Y17730D01*
X94945Y18573D01*
X95059Y19000D01*
D02*
G37*
G36*
X90500D02*
X87941D01*
X88055Y18573D01*
X88542Y17730D01*
X89230Y17042D01*
X90073Y16555D01*
X90500Y16441D01*
Y19000D01*
D02*
G37*
G36*
X20559D02*
X18000D01*
Y16441D01*
X18427Y16555D01*
X19270Y17042D01*
X19958Y17730D01*
X20445Y18573D01*
X20559Y19000D01*
D02*
G37*
G36*
X16000D02*
X13441D01*
X13555Y18573D01*
X14042Y17730D01*
X14730Y17042D01*
X15573Y16555D01*
X16000Y16441D01*
Y19000D01*
D02*
G37*
%LPD*%
D23*
X247500Y127543D02*
D03*
Y120457D02*
D03*
D29*
X221749Y110000D02*
D03*
X228251D02*
D03*
D30*
X237500Y122126D02*
D03*
Y112874D02*
D03*
D31*
X210500Y115749D02*
D03*
Y122251D02*
D03*
X200000Y115749D02*
D03*
Y122251D02*
D03*
D32*
X218483Y120503D02*
D03*
Y122472D02*
D03*
Y124440D02*
D03*
Y126409D02*
D03*
Y128377D02*
D03*
X226517D02*
D03*
Y126409D02*
D03*
Y124440D02*
D03*
Y122472D02*
D03*
Y120503D02*
D03*
D36*
X213457Y138000D02*
D03*
X220543D02*
D03*
Y147500D02*
D03*
X213457D02*
D03*
D63*
X222500Y124440D02*
D03*
D65*
X209813Y85187D02*
X234626Y110000D01*
X312500Y117000D02*
Y121500D01*
X294000Y56000D02*
X354000D01*
X193407Y68781D02*
X209813Y85187D01*
Y22313D02*
Y85187D01*
X208000Y20500D02*
X209813Y22313D01*
X360500Y62500D02*
Y102000D01*
X354000Y56000D02*
X360500Y62500D01*
X354000Y108500D02*
X360500Y102000D01*
X293548Y56452D02*
Y60648D01*
X246000Y108196D02*
Y111500D01*
X293548Y56452D02*
X294000Y56000D01*
X246000Y108196D02*
X293548Y60648D01*
X290427Y111500D02*
X293427Y108500D01*
X246000Y111500D02*
X290427D01*
X293427Y108500D02*
X294000D01*
X241000Y116500D02*
X246000Y111500D01*
X251412Y124369D02*
Y130548D01*
X230548Y151412D02*
X251412Y130548D01*
X217369Y151412D02*
X230548D01*
X213457Y147500D02*
X217369Y151412D01*
X247500Y120457D02*
X251412Y124369D01*
X234626Y110000D02*
X242255Y102371D01*
Y94666D02*
Y102371D01*
X185281Y68781D02*
X193407D01*
X143500Y27000D02*
X185281Y68781D01*
X101500Y20000D02*
Y53500D01*
X123000Y75000D01*
X96500Y96000D02*
Y107000D01*
X66000Y65500D02*
X96500Y96000D01*
X89500Y65500D02*
X127000Y103000D01*
X66000Y65500D02*
X89500D01*
X132000Y49170D02*
Y67500D01*
X132500Y31000D02*
Y48670D01*
X132000Y49170D02*
X132500Y48670D01*
X121500Y20000D02*
X132500Y31000D01*
X111500Y20000D02*
X127500Y36000D01*
Y71500D01*
X294000Y88500D02*
X298000D01*
X318500Y109000D01*
X294000Y98500D02*
X312500Y117000D01*
D66*
X226517Y122472D02*
X237154D01*
X237500Y122126D01*
X218483Y130765D02*
X220543Y132825D01*
Y138000D01*
X218483Y128377D02*
Y130765D01*
X226517Y124440D02*
X232440D01*
X233690Y125690D01*
X227914Y126546D02*
X231046D01*
X226549Y126440D02*
X227808D01*
X231046Y126546D02*
X232043Y127543D01*
X226517Y126409D02*
X226549Y126440D01*
X232043Y127543D02*
X247500D01*
X227808Y126440D02*
X227914Y126546D01*
X230977Y120503D02*
X236427Y115053D01*
X226517Y120503D02*
X230977D01*
X210721Y122472D02*
X212470Y124221D01*
X210721Y122472D02*
X218483D01*
X210500Y122251D02*
X210721Y122472D01*
X212470Y124221D02*
X215087D01*
X215306Y124440D01*
X218483D01*
X236427Y115053D02*
X239447D01*
X220543Y138000D02*
Y147500D01*
X233690Y125690D02*
X242267D01*
X247500Y120457D01*
X237405Y122031D02*
X237500Y122126D01*
D68*
X155000Y83000D02*
X194215Y122215D01*
X199964D01*
X118000Y83000D02*
X155000D01*
X199964Y122215D02*
X200000Y122251D01*
X210500D01*
X239447Y115053D02*
X244488Y120095D01*
X237500Y113106D02*
X239447Y115053D01*
X244488Y120095D02*
X247138D01*
X247500Y120457D01*
X237500Y112874D02*
Y113106D01*
X234626Y110000D02*
X237500Y112874D01*
X229000Y110000D02*
X234626D01*
X55000Y20000D02*
X118000Y83000D01*
X27000Y20000D02*
X55000D01*
D69*
X144902Y91094D02*
D03*
X139390Y91094D02*
D03*
X144902Y96606D02*
D03*
X139390Y96606D02*
D03*
X144902Y102118D02*
D03*
X139390Y102118D02*
D03*
X147658Y93850D02*
D03*
X142146D02*
D03*
X136634Y93850D02*
D03*
X147658Y99362D02*
D03*
X136634Y99362D02*
D03*
X142146Y99362D02*
D03*
X41000Y46440D02*
D03*
X222500Y121500D02*
D03*
Y124440D02*
D03*
Y127380D02*
D03*
X41000Y43500D02*
D03*
Y40560D02*
D03*
D70*
X25205Y122488D02*
D03*
Y90992D02*
D03*
X312500Y121500D02*
D03*
X242255Y94666D02*
D03*
X143500Y27000D02*
D03*
X96500Y107000D02*
D03*
X66000Y65500D02*
D03*
X127000Y103000D02*
D03*
X132000Y67500D02*
D03*
X127500Y71500D02*
D03*
X123000Y75000D02*
D03*
X318500Y109000D02*
D03*
D71*
X178000Y20500D02*
D03*
X188000D02*
D03*
X198000D02*
D03*
X17000Y20000D02*
D03*
X152000Y20500D02*
D03*
X91500Y20000D02*
D03*
X101500D02*
D03*
X111500D02*
D03*
X121500D02*
D03*
X223500Y20500D02*
D03*
X233500D02*
D03*
X243500D02*
D03*
D72*
X208000D02*
D03*
X27000Y20000D02*
D03*
X162000Y20500D02*
D03*
X131500Y20000D02*
D03*
X253500Y20500D02*
D03*
D73*
X354000Y36000D02*
D03*
Y88500D02*
D03*
D74*
Y46000D02*
D03*
Y56000D02*
D03*
Y66000D02*
D03*
Y76000D02*
D03*
X294000D02*
D03*
Y66000D02*
D03*
Y56000D02*
D03*
Y46000D02*
D03*
Y36000D02*
D03*
X354000Y98500D02*
D03*
Y108500D02*
D03*
Y118500D02*
D03*
Y128500D02*
D03*
X294000D02*
D03*
Y118500D02*
D03*
Y108500D02*
D03*
Y98500D02*
D03*
Y88500D02*
D03*
D75*
X56000Y83500D02*
D03*
X43500Y99000D02*
D03*
X44000Y117000D02*
D03*
X143500Y123000D02*
D03*
X166500Y124000D02*
D03*
X166000Y74500D02*
D03*
X244000Y35000D02*
D03*
X215500Y43000D02*
D03*
X190000Y39500D02*
D03*
X122500Y39000D02*
D03*
X224500Y90000D02*
D03*
X205000Y58000D02*
D03*
X167000Y42500D02*
D03*
X121500Y126000D02*
D03*
X75000Y51500D02*
D03*
M02*
