G04*
G04 #@! TF.GenerationSoftware,Altium Limited,Altium Designer,24.7.2 (38)*
G04*
G04 Layer_Color=8421504*
%FSLAX25Y25*%
%MOIN*%
G70*
G04*
G04 #@! TF.SameCoordinates,557B2C77-FFCE-42D9-A2FA-4134FEC932EB*
G04*
G04*
G04 #@! TF.FilePolarity,Positive*
G04*
G01*
G75*
G04:AMPARAMS|DCode=13|XSize=77.56mil|YSize=23.62mil|CornerRadius=2.95mil|HoleSize=0mil|Usage=FLASHONLY|Rotation=0.000|XOffset=0mil|YOffset=0mil|HoleType=Round|Shape=RoundedRectangle|*
%AMROUNDEDRECTD13*
21,1,0.07756,0.01772,0,0,0.0*
21,1,0.07165,0.02362,0,0,0.0*
1,1,0.00591,0.03583,-0.00886*
1,1,0.00591,-0.03583,-0.00886*
1,1,0.00591,-0.03583,0.00886*
1,1,0.00591,0.03583,0.00886*
%
%ADD13ROUNDEDRECTD13*%
%ADD14R,0.03543X0.05906*%
%ADD15R,0.05906X0.03543*%
%ADD16R,0.03543X0.03543*%
%ADD17R,0.07087X0.04024*%
%ADD18R,0.00984X0.01870*%
%ADD19R,0.08661X0.04724*%
%ADD20R,0.05906X0.06299*%
%ADD21R,0.06299X0.02756*%
%ADD22R,0.13504X0.05000*%
%ADD23R,0.04724X0.04724*%
%ADD24R,0.04550X0.05544*%
%ADD25R,0.05143X0.04545*%
%ADD26R,0.01870X0.00984*%
%ADD27R,0.05544X0.04550*%
%ADD28R,0.07480X0.04331*%
%ADD29R,0.04940X0.05733*%
%ADD30R,0.03937X0.04528*%
%ADD31R,0.05733X0.04940*%
G04:AMPARAMS|DCode=32|XSize=29.13mil|YSize=10.63mil|CornerRadius=0.37mil|HoleSize=0mil|Usage=FLASHONLY|Rotation=0.000|XOffset=0mil|YOffset=0mil|HoleType=Round|Shape=RoundedRectangle|*
%AMROUNDEDRECTD32*
21,1,0.02913,0.00989,0,0,0.0*
21,1,0.02839,0.01063,0,0,0.0*
1,1,0.00074,0.01420,-0.00494*
1,1,0.00074,-0.01420,-0.00494*
1,1,0.00074,-0.01420,0.00494*
1,1,0.00074,0.01420,0.00494*
%
%ADD32ROUNDEDRECTD32*%
G04:AMPARAMS|DCode=33|XSize=10.63mil|YSize=33.07mil|CornerRadius=1.33mil|HoleSize=0mil|Usage=FLASHONLY|Rotation=0.000|XOffset=0mil|YOffset=0mil|HoleType=Round|Shape=RoundedRectangle|*
%AMROUNDEDRECTD33*
21,1,0.01063,0.03041,0,0,0.0*
21,1,0.00797,0.03307,0,0,0.0*
1,1,0.00266,0.00399,-0.01521*
1,1,0.00266,-0.00399,-0.01521*
1,1,0.00266,-0.00399,0.01521*
1,1,0.00266,0.00399,0.01521*
%
%ADD33ROUNDEDRECTD33*%
G04:AMPARAMS|DCode=34|XSize=33.07mil|YSize=10.63mil|CornerRadius=1.33mil|HoleSize=0mil|Usage=FLASHONLY|Rotation=0.000|XOffset=0mil|YOffset=0mil|HoleType=Round|Shape=RoundedRectangle|*
%AMROUNDEDRECTD34*
21,1,0.03307,0.00797,0,0,0.0*
21,1,0.03041,0.01063,0,0,0.0*
1,1,0.00266,0.01521,-0.00399*
1,1,0.00266,-0.01521,-0.00399*
1,1,0.00266,-0.01521,0.00399*
1,1,0.00266,0.01521,0.00399*
%
%ADD34ROUNDEDRECTD34*%
%ADD35R,0.02756X0.02756*%
%ADD36R,0.04724X0.04724*%
G36*
X42654Y39164D02*
X39344D01*
Y43106D01*
X42654D01*
Y39164D01*
D02*
G37*
G36*
Y43894D02*
X39345D01*
Y47831D01*
X42654D01*
Y43894D01*
D02*
G37*
D13*
X232756Y124000D02*
D03*
Y119000D02*
D03*
Y114000D02*
D03*
Y109000D02*
D03*
Y104000D02*
D03*
Y99000D02*
D03*
Y94000D02*
D03*
Y89000D02*
D03*
X252244D02*
D03*
Y94000D02*
D03*
Y99000D02*
D03*
Y104000D02*
D03*
Y109000D02*
D03*
Y114000D02*
D03*
Y119000D02*
D03*
Y124000D02*
D03*
X197256Y86500D02*
D03*
Y81500D02*
D03*
Y76500D02*
D03*
Y71500D02*
D03*
Y66500D02*
D03*
Y61500D02*
D03*
Y56500D02*
D03*
Y51500D02*
D03*
X216744D02*
D03*
Y56500D02*
D03*
Y61500D02*
D03*
Y66500D02*
D03*
Y71500D02*
D03*
Y76500D02*
D03*
Y81500D02*
D03*
Y86500D02*
D03*
D14*
X175551Y57079D02*
D03*
X170551Y57079D02*
D03*
X165551Y57079D02*
D03*
X160551Y57079D02*
D03*
X155551Y57079D02*
D03*
X150551Y57079D02*
D03*
X145551Y57079D02*
D03*
X140551Y57079D02*
D03*
X135551Y57079D02*
D03*
X130551Y57079D02*
D03*
X125551D02*
D03*
X120551Y57079D02*
D03*
D15*
X182500Y127000D02*
D03*
X182500Y122000D02*
D03*
X182500Y117000D02*
D03*
X182500Y112000D02*
D03*
X182500Y107000D02*
D03*
X182500Y102000D02*
D03*
X182500Y97000D02*
D03*
X182500Y92000D02*
D03*
X182500Y87000D02*
D03*
X182500Y82000D02*
D03*
X182500Y77000D02*
D03*
X182500Y72000D02*
D03*
Y67000D02*
D03*
Y62000D02*
D03*
X113602D02*
D03*
X113602Y67000D02*
D03*
X113602Y72000D02*
D03*
Y77000D02*
D03*
X113602Y82000D02*
D03*
X113602Y87000D02*
D03*
X113602Y92000D02*
D03*
Y97000D02*
D03*
Y102000D02*
D03*
X113602Y107000D02*
D03*
X113602Y112000D02*
D03*
Y117000D02*
D03*
Y122000D02*
D03*
Y127000D02*
D03*
D16*
X147658Y102118D02*
D03*
X142146Y102118D02*
D03*
X136634Y102118D02*
D03*
X147658Y91094D02*
D03*
X142146Y91094D02*
D03*
X136634Y91094D02*
D03*
X147657Y96606D02*
D03*
X136634D02*
D03*
X142146D02*
D03*
D17*
X63394Y133512D02*
D03*
D18*
X99453Y59577D02*
D03*
Y50423D02*
D03*
X93547D02*
D03*
X95516D02*
D03*
X97484D02*
D03*
X93547Y59577D02*
D03*
X95516D02*
D03*
X97484D02*
D03*
D19*
X26779Y133512D02*
D03*
Y72488D02*
D03*
D20*
X64378Y76032D02*
D03*
D21*
X68512Y128787D02*
D03*
Y124457D02*
D03*
Y120126D02*
D03*
Y115795D02*
D03*
Y111465D02*
D03*
Y107134D02*
D03*
Y102803D02*
D03*
Y98472D02*
D03*
Y94142D02*
D03*
D22*
X211748Y114500D02*
D03*
X200252Y104500D02*
D03*
D23*
X64500Y38957D02*
D03*
Y46043D02*
D03*
D24*
X211149Y35500D02*
D03*
X217851D02*
D03*
X196649D02*
D03*
X203351D02*
D03*
X99851Y69500D02*
D03*
X93149D02*
D03*
X232351Y35500D02*
D03*
X225649D02*
D03*
X93149Y37500D02*
D03*
X99851D02*
D03*
X131149Y46000D02*
D03*
X137851D02*
D03*
D25*
X174500Y34161D02*
D03*
Y28839D02*
D03*
X164500D02*
D03*
Y34161D02*
D03*
D26*
X92908Y53031D02*
D03*
Y56968D02*
D03*
Y55000D02*
D03*
X100092Y53031D02*
D03*
Y56968D02*
D03*
Y55000D02*
D03*
D27*
X90500Y142649D02*
D03*
Y149351D02*
D03*
X80000Y134351D02*
D03*
Y127649D02*
D03*
X78500Y97851D02*
D03*
Y91149D02*
D03*
Y109149D02*
D03*
Y115851D02*
D03*
X88500D02*
D03*
Y109149D02*
D03*
X114500Y40649D02*
D03*
Y47351D02*
D03*
D28*
X104000Y82079D02*
D03*
Y91921D02*
D03*
D29*
X44751Y20000D02*
D03*
X38249D02*
D03*
X38749Y56000D02*
D03*
X45251D02*
D03*
X129749Y34500D02*
D03*
X136251D02*
D03*
X94751Y82000D02*
D03*
X88249D02*
D03*
X94751Y92000D02*
D03*
X88249D02*
D03*
D30*
X55000Y54626D02*
D03*
Y45374D02*
D03*
D31*
X17000Y49751D02*
D03*
Y43249D02*
D03*
X27500Y49751D02*
D03*
Y43249D02*
D03*
X100500Y134251D02*
D03*
Y127749D02*
D03*
X85000Y53251D02*
D03*
Y46749D02*
D03*
X90500Y127749D02*
D03*
Y134251D02*
D03*
D32*
X36983Y47437D02*
D03*
Y45469D02*
D03*
Y43500D02*
D03*
Y41532D02*
D03*
Y39563D02*
D03*
X45017D02*
D03*
Y41532D02*
D03*
Y43500D02*
D03*
Y45469D02*
D03*
Y47437D02*
D03*
D33*
X147547Y33350D02*
D03*
X149516D02*
D03*
X151484D02*
D03*
X153453D02*
D03*
Y44650D02*
D03*
X151484D02*
D03*
X149516D02*
D03*
X147547D02*
D03*
D34*
X144850Y41953D02*
D03*
Y39984D02*
D03*
Y38016D02*
D03*
Y36047D02*
D03*
X156150D02*
D03*
Y38016D02*
D03*
Y39984D02*
D03*
Y41953D02*
D03*
D35*
X150500Y39000D02*
D03*
D36*
X266457Y24000D02*
D03*
X273543D02*
D03*
X266457Y42000D02*
D03*
X273543D02*
D03*
X266457Y33000D02*
D03*
X273543D02*
D03*
X266457Y51000D02*
D03*
X273543D02*
D03*
X266457Y60000D02*
D03*
X273543D02*
D03*
X266457Y69000D02*
D03*
X273543D02*
D03*
X266457Y78000D02*
D03*
X273543D02*
D03*
X266413Y96000D02*
D03*
X273500D02*
D03*
X266457Y87000D02*
D03*
X273543D02*
D03*
Y132000D02*
D03*
X266457D02*
D03*
Y141000D02*
D03*
X273543D02*
D03*
X266457Y123000D02*
D03*
X273543D02*
D03*
X266457Y114000D02*
D03*
X273543D02*
D03*
X266457Y105000D02*
D03*
X273543D02*
D03*
M02*
