G04*
G04 #@! TF.GenerationSoftware,Altium Limited,Altium Designer,24.7.2 (38)*
G04*
G04 Layer_Color=16711935*
%FSLAX25Y25*%
%MOIN*%
G70*
G04*
G04 #@! TF.SameCoordinates,557B2C77-FFCE-42D9-A2FA-4134FEC932EB*
G04*
G04*
G04 #@! TF.FilePolarity,Positive*
G04*
G01*
G75*
%ADD10C,0.00787*%
%ADD77C,0.00197*%
D10*
X223299Y134850D02*
Y141150D01*
X210701Y134850D02*
X223299D01*
X210701D02*
Y141150D01*
X223299D01*
X231705Y106149D02*
Y113851D01*
X218295Y106149D02*
X231705D01*
X218295D02*
Y113851D01*
X231705D01*
X206649Y125705D02*
X214351D01*
Y112295D02*
Y125705D01*
X206649Y112295D02*
X214351D01*
X206649D02*
Y125705D01*
X196149D02*
X203851D01*
Y112295D02*
Y125705D01*
X196149Y112295D02*
X203851D01*
X196149D02*
Y125705D01*
X210701Y144350D02*
Y150650D01*
X223299D01*
Y144350D02*
Y150650D01*
X210701Y144350D02*
X223299D01*
X234252Y110216D02*
Y124784D01*
Y110216D02*
X240748D01*
Y124784D01*
X234252D02*
X240748D01*
X244350Y117701D02*
Y130299D01*
Y117701D02*
X250650D01*
Y130299D01*
X244350D02*
X250650D01*
D77*
X216142Y118987D02*
X217579D01*
Y117550D02*
Y118987D01*
Y117550D02*
X227421D01*
Y118987D01*
X228858D01*
X227421Y129893D02*
X228858D01*
X227421D02*
Y131330D01*
X217579D02*
X227421D01*
X217579Y129893D02*
Y131330D01*
X216142Y129893D02*
X217579D01*
X216142Y118987D02*
Y129893D01*
X228858Y118987D02*
Y129893D01*
M02*
